<svg width="504" height="262" viewBox="0 0 504 262" fill="none" xmlns="http://www.w3.org/2000/svg">
<path d="M141.379 265.684C126.635 261.854 115.463 247.188 115.686 231.956C115.909 216.724 127.504 202.391 142.354 198.992C157.203 195.592 173.879 203.455 180.704 217.074C172.692 198.981 177.685 175.345 193.74 163.78C209.796 152.216 235.535 156.128 245.743 173.079C258.574 136.771 300.281 113.299 337.975 121.17C375.668 129.042 404.496 167.247 401.722 205.654C397.59 197.302 405.271 187.624 413.71 183.671C433.258 174.513 459.274 183.274 469.3 202.391C479.326 221.508 471.74 247.891 453.092 258.765C440.441 266.14 425.047 266.489 410.405 266.641C369.967 267.06 329.527 267.477 289.089 267.895C238.644 268.417 188.053 268.931 137.908 263.42" fill="url(#paint0_linear)"/>
<path d="M251.61 270.331C236.865 266.5 225.693 251.835 225.916 236.603C226.139 221.371 237.735 207.038 252.584 203.638C267.433 200.238 284.11 208.101 290.935 221.721C282.923 203.628 287.916 179.991 303.971 168.427C320.026 156.86 345.766 160.775 355.974 177.725C368.804 141.417 410.512 117.945 448.205 125.817C485.899 133.688 514.726 171.893 511.953 210.3C507.82 201.949 515.501 192.271 523.941 188.317C543.488 179.159 569.504 187.921 579.53 207.038C589.556 226.155 581.971 252.538 563.322 263.411C550.672 270.787 535.277 271.135 520.635 271.288C480.197 271.706 439.757 272.123 399.319 272.542C348.874 273.063 298.283 273.578 248.138 268.066" fill="url(#paint1_linear)"/>
<path d="M247.52 37.5405C252.863 53.5185 250.643 68.6612 250.643 68.6612C250.643 68.6612 239.761 57.8994 234.42 41.9214C229.078 25.9434 231.296 10.8008 231.296 10.8008C231.296 10.8008 242.176 21.5626 247.52 37.5405Z" fill="url(#paint2_linear)"/>
<path d="M233.049 47.7298C243.949 60.5757 247.521 75.4576 247.521 75.4576C247.521 75.4576 233.417 69.5141 222.517 56.6682C211.616 43.8224 208.045 28.9404 208.045 28.9404C208.045 28.9404 222.148 34.8839 233.049 47.7298Z" fill="url(#paint3_linear)"/>
<path d="M229.904 81.3206C244.58 89.5935 253.086 102.316 253.086 102.316C253.086 102.316 237.798 101.626 223.122 93.3551C208.446 85.0822 199.94 72.3599 199.94 72.3599C199.94 72.3599 215.228 73.0477 229.904 81.3206Z" fill="url(#paint4_linear)"/>
<path d="M235.747 107.192C252.143 111.062 263.85 120.919 263.85 120.919C263.85 120.919 248.972 124.504 232.575 120.635C216.179 116.765 204.472 106.907 204.472 106.907C204.472 106.907 219.35 103.322 235.747 107.192Z" fill="url(#paint5_linear)"/>
<path d="M238.322 128.902C254.907 131.865 267.137 141.064 267.137 141.064C267.137 141.064 252.478 145.462 235.893 142.5C219.307 139.537 207.077 130.338 207.077 130.338C207.077 130.338 221.736 125.94 238.322 128.902Z" fill="url(#paint6_linear)"/>
<path d="M247.512 151.615C263.901 155.514 275.589 165.392 275.589 165.392C275.589 165.392 260.704 168.951 244.314 165.052C227.925 161.154 216.237 151.275 216.237 151.275C216.237 151.275 231.122 147.718 247.512 151.615Z" fill="url(#paint7_linear)"/>
<path d="M251.929 178.011C268.766 178.562 282.192 185.912 282.192 185.912C282.192 185.912 268.315 192.368 251.478 191.818C234.64 191.267 221.215 183.917 221.215 183.917C221.215 183.917 235.09 177.461 251.929 178.011Z" fill="url(#paint8_linear)"/>
<path d="M272.044 51.1942C268.059 67.5633 258.117 79.1999 258.117 79.1999C258.117 79.1999 254.637 64.2956 258.621 47.9266C262.606 31.5575 272.548 19.9209 272.548 19.9209C272.548 19.9209 276.028 34.8251 272.044 51.1942Z" fill="url(#paint9_linear)"/>
<path d="M291.152 73.754C282.428 88.1659 269.447 96.2724 269.447 96.2724C269.447 96.2724 270.612 81.0131 279.336 66.5995C288.06 52.1876 301.041 44.0811 301.041 44.0811C301.041 44.0811 299.876 59.3421 291.152 73.754Z" fill="url(#paint10_linear)"/>
<path d="M295.178 98.9567C284.828 112.249 270.987 118.782 270.987 118.782C270.987 118.782 273.929 103.763 284.279 90.4694C294.629 77.1776 308.47 70.644 308.47 70.644C308.47 70.644 305.528 85.6649 295.178 98.9567Z" fill="url(#paint11_linear)"/>
<path d="M305.609 120.579C294.187 132.964 279.852 138.321 279.852 138.321C279.852 138.321 284.034 123.598 295.454 111.214C306.875 98.8295 321.211 93.4727 321.211 93.4727C321.211 93.4727 317.029 108.193 305.609 120.579Z" fill="url(#paint12_linear)"/>
<path d="M312.22 145.953C299.655 157.176 284.868 161.123 284.868 161.123C284.868 161.123 290.453 146.874 303.017 135.651C315.582 124.427 330.369 120.48 330.369 120.48C330.369 120.48 324.784 134.729 312.22 145.953Z" fill="url(#paint13_linear)"/>
<path d="M317.261 168.444C304.697 179.667 289.909 183.614 289.909 183.614C289.909 183.614 295.494 169.365 308.058 158.142C320.623 146.919 335.411 142.972 335.411 142.972C335.411 142.972 329.826 157.221 317.261 168.444Z" fill="url(#paint14_linear)"/>
<path d="M296.47 215.209L295.483 215.513L244.018 48.6178L245.004 48.3125L296.47 215.209Z" fill="url(#paint15_linear)"/>
<path d="M256.308 87.8207L238.373 66.8374L239.156 66.1685L255.838 85.6817L260.949 67.4584L261.942 67.7362L256.308 87.8207Z" fill="url(#paint16_linear)"/>
<path d="M262.579 106.355L235.04 93.5591L235.474 92.6242L262.243 105.06L276.847 84.9414L277.682 85.5486L262.579 106.355Z" fill="url(#paint17_linear)"/>
<path d="M267.987 124.383L240.446 111.586L240.882 110.652L267.65 123.089L282.254 102.969L283.09 103.576L267.987 124.383Z" fill="url(#paint18_linear)"/>
<path d="M275.448 144.796L247.38 134.089L247.749 133.125L275.103 143.561L289.165 125.444L289.98 126.077L275.448 144.796Z" fill="url(#paint19_linear)"/>
<path d="M281.625 166.865L261.235 162.356L261.458 161.349L281.234 165.724L296.075 147.918L296.867 148.578L281.625 166.865Z" fill="url(#paint20_linear)"/>
<path d="M287.038 186.736L266.493 183.551L266.652 182.532L286.641 185.631L301.31 169.096L302.082 169.78L287.038 186.736Z" fill="url(#paint21_linear)"/>
<path d="M450.809 146.848C460.852 184.62 450.261 216.451 446.198 226.539L447.884 224.45C453.452 217.393 459.303 210.611 465.33 204.038C460.747 166.052 478.159 130.896 478.159 130.896C482.895 163.86 473.157 190.183 468.222 200.904C472.538 196.29 476.936 191.778 481.386 187.358C482.439 186.31 483.502 185.279 484.566 184.246C484.43 149.687 502.194 120.334 502.194 120.334C502.875 150.548 492.183 172.941 487.137 181.776C488.159 180.804 489.18 179.83 490.211 178.872C490.195 178.864 490.178 178.855 490.161 178.847C490.161 178.847 490.221 178.819 490.31 178.78C494.881 174.536 499.537 170.433 504.256 166.462C503.969 134.285 520.563 106.864 520.563 106.864C521.237 136.733 509.894 158.351 505.75 165.22C509.863 161.792 514.017 158.45 518.211 155.212C520.429 153.508 522.662 151.843 524.903 150.194C529.724 128.052 543.436 112.487 543.436 112.487C539.392 132.168 530.273 144.558 526.46 149.052C534.35 143.311 542.376 137.966 550.56 133.208C556.351 127.484 569.881 116.183 590.322 111.439C590.322 111.439 572.593 130.508 547.925 136.513C542.779 139.657 537.676 143.047 532.63 146.613C536.896 145.035 550.848 141.048 565.819 149.606C565.819 149.606 547.637 156.194 531.621 147.337C527.328 150.393 523.074 153.565 518.873 156.834C516.33 158.824 513.803 160.858 511.288 162.917C516.87 160.857 535.033 155.692 554.485 166.812C554.485 166.812 530.886 175.377 510.064 163.917C504.925 168.159 499.858 172.552 494.883 177.102C503.832 174.317 524.323 170.359 546.102 182.809C546.102 182.809 517.582 193.159 491.955 179.809C488.758 182.799 485.6 185.852 482.494 188.981C478.847 192.648 475.243 196.38 471.687 200.175C478.722 196.693 505.705 185.312 537.112 197.676C537.112 197.676 503.125 213.684 470.569 201.365C463.25 209.231 456.169 217.388 449.505 225.933L449.047 226.508C458.066 221.223 486.065 207.403 520.957 215.461C520.957 215.461 484.96 236.633 447.292 228.709L445.622 230.805C444.98 231.621 444.315 232.417 443.694 233.251L441.86 235.776L434.527 245.874C432.009 249.189 429.829 252.735 427.523 256.193L420.676 266.613L418.498 265.416L425.486 254.912C427.839 251.426 430.066 247.857 432.628 244.517L440.1 234.352L441.968 231.812C442.601 230.973 443.278 230.172 443.93 229.35L444.455 228.7C434.256 188.01 450.809 146.848 450.809 146.848Z" fill="#260C4F"/>
<path d="M474.984 198.57C459.999 224.104 437.22 235.363 429.625 238.552L431.647 238.346C438.412 237.583 445.183 237.119 451.932 236.862C469.941 214.155 498.146 204.795 498.146 204.795C482.921 224.91 463.562 233.694 455.161 236.749C459.945 236.613 464.717 236.577 469.468 236.617C470.593 236.625 471.715 236.649 472.838 236.672C491.372 218.184 516.64 212.107 516.64 212.107C500.738 228.574 482.984 234.749 475.538 236.74C476.607 236.773 477.676 236.804 478.741 236.848C478.737 236.835 478.732 236.821 478.729 236.807C478.729 236.807 478.777 236.824 478.844 236.852C483.564 237.051 488.254 237.372 492.906 237.795C510.076 220.495 533.682 214.819 533.682 214.819C517.959 231.097 500.278 236.509 494.371 237.939C498.408 238.327 502.421 238.783 506.398 239.315C508.498 239.601 510.584 239.915 512.664 240.245C527.155 231.042 542.84 230.13 542.84 230.13C530.09 238.438 518.56 240.131 514.109 240.475C521.404 241.663 528.558 243.137 535.479 245.008C541.646 245.077 554.941 246.339 568.387 254.816C568.387 254.816 548.673 255.432 532.298 245.351C527.864 244.255 523.32 243.315 518.711 242.497C521.834 243.951 531.414 249.339 534.785 261.959C534.785 261.959 521.549 255.681 517.784 242.337C513.851 241.655 509.877 241.054 505.879 240.535C503.451 240.226 501.011 239.95 498.563 239.692C502.647 241.6 515.105 248.627 519.483 265.024C519.483 265.024 502.297 256.883 497.372 239.565C492.352 239.059 487.286 238.672 482.185 238.418C488.453 241.751 501.503 250.674 506.405 269.033C506.405 269.033 485.636 259.192 479.168 238.282C475.854 238.154 472.528 238.08 469.188 238.077C465.271 238.068 461.341 238.116 457.404 238.224C463.027 240.155 483.532 248.619 493.611 272.117C493.611 272.117 466.883 262.35 456.166 238.258C448.03 238.509 439.867 239.042 431.716 240.01L431.164 240.07C438.814 242.109 461.174 249.819 475.429 272.897C475.429 272.897 444.85 264.799 429.045 240.296L427.026 240.514C426.244 240.603 425.462 240.668 424.682 240.778L422.345 241.137L413.002 242.569C409.877 242.981 406.805 243.696 403.715 244.296L394.456 246.162L393.94 244.351L403.319 242.516C406.45 241.926 409.558 241.222 412.721 240.823L422.174 239.428L424.537 239.08C425.326 238.974 426.117 238.912 426.908 238.826L427.537 238.763C444.003 211.592 474.984 198.57 474.984 198.57Z" fill="url(#paint22_linear)"/>
<path d="M331.361 80.7322C353.665 114.508 353.754 149.246 353.089 160.49L354.054 157.883C357.197 149.121 360.706 140.534 364.458 132.095C347.445 96.3105 352.957 56.0594 352.957 56.0594C368.466 86.8644 367.578 115.915 366.264 128.064C368.981 122.112 371.813 116.234 374.724 110.427C375.412 109.052 376.118 107.688 376.821 106.324C365.303 72.4387 373.072 37.7691 373.072 37.7691C383.695 67.2071 380.575 92.7153 378.532 103.052C379.214 101.76 379.897 100.468 380.593 99.1871C380.575 99.1836 380.556 99.1802 380.537 99.1768C380.537 99.1768 380.587 99.1288 380.66 99.0619C383.75 93.3894 386.969 87.8284 390.293 82.3737C379.412 50.8774 386.671 18.4892 386.671 18.4892C397.172 47.5926 393.158 72.5519 391.352 80.6619C394.261 75.9396 397.239 71.2912 400.29 66.7302C401.908 64.3271 403.551 61.9565 405.206 59.6014C402.645 36.2734 410.98 16.4754 410.98 16.4754C413.493 37.1293 408.621 52.2977 406.361 57.9668C412.217 49.7316 418.335 41.8395 424.802 34.4723C428.603 26.9456 438.162 11.3913 456.669 0C456.669 0 445.545 24.5631 423.304 38.5839C419.287 43.3661 415.395 48.3748 411.615 53.5379C415.282 50.5824 427.666 42.0728 445.185 45.5411C445.185 45.5411 429.505 57.9993 410.863 54.579C407.656 58.9942 404.524 63.5106 401.475 68.1042C399.633 70.8967 397.824 73.7252 396.033 76.5743C400.834 72.7132 416.965 61.6598 439.725 66.1676C439.725 66.1676 419.378 82.3497 395.16 77.9585C391.511 83.8146 387.985 89.7975 384.6 95.904C392.468 90.2212 411.282 79.5846 436.764 84.6328C436.764 84.6328 412.172 104.191 382.616 99.5267C380.461 103.515 378.367 107.553 376.348 111.649C373.976 116.45 371.667 121.302 369.427 126.198C375.185 120.46 397.928 100.4 432.836 102.191C432.836 102.191 404.743 129.104 368.722 127.736C364.127 137.87 359.862 148.21 356.137 158.795L355.876 159.511C362.989 151.351 385.925 128.558 422.836 124.975C422.836 124.975 394.47 157.62 354.878 162.248L353.927 164.857C353.567 165.871 353.174 166.871 352.84 167.893L351.871 170.976L347.998 183.305C346.619 187.389 345.646 191.588 344.521 195.743L341.231 208.23L338.697 207.772L342.097 195.156C343.258 190.959 344.269 186.72 345.685 182.599L349.672 170.157L350.668 167.048C351.013 166.017 351.415 165.006 351.785 163.986L352.085 163.175C328.671 126.598 331.361 80.7322 331.361 80.7322Z" fill="url(#paint23_linear)"/>
<path d="M184.504 167.226C201.545 200.767 230.258 217.772 239.889 222.743L237.258 222.212C228.467 220.344 219.642 218.845 210.82 217.601C189.526 187.132 153.51 171.725 153.51 171.725C171.418 198.616 195.9 212.1 206.6 217.019C200.343 216.196 194.092 215.5 187.861 214.896C186.384 214.752 184.912 214.628 183.437 214.501C161.025 189.163 128.523 178.206 128.523 178.206C147.692 200.69 170.334 210.738 179.891 214.215C178.488 214.109 177.085 214.001 175.684 213.91C175.691 213.894 175.698 213.877 175.703 213.862C175.703 213.862 175.639 213.877 175.547 213.901C169.339 213.5 163.16 213.253 157.018 213.138C136.273 189.451 105.911 179.216 105.911 179.216C124.861 201.445 147.486 210.541 155.085 213.114C149.752 213.038 144.447 213.052 139.179 213.162C136.398 213.229 133.632 213.33 130.872 213.448C112.815 200.115 92.3478 196.841 92.3478 196.841C108.214 208.834 123.155 212.501 128.954 213.534C119.271 214.001 109.743 214.836 100.478 216.194C92.3873 215.433 74.8329 215.169 56.3455 223.779C56.3455 223.779 82.123 227.241 104.616 217.054C110.54 216.311 116.592 215.774 122.715 215.397C118.474 216.764 105.367 222.093 99.6653 237.195C99.6653 237.195 117.654 231.267 123.947 215.33C129.172 215.028 134.443 214.831 139.736 214.738C142.949 214.69 146.176 214.683 149.412 214.702C143.867 216.495 126.82 223.452 119.412 243.071C119.412 243.071 142.767 235.387 150.985 214.709C157.618 214.772 164.298 214.989 171.008 215.376C162.452 218.628 144.44 227.843 136.145 249.811C136.145 249.811 164.37 240.522 174.977 215.625C179.334 215.92 183.701 216.285 188.079 216.738C193.214 217.263 198.36 217.862 203.511 218.534C195.943 220.145 168.205 227.771 152.601 255.367C152.601 255.367 188.629 246.986 205.129 218.745C215.767 220.169 226.414 221.946 236.999 224.255L237.718 224.404C227.481 225.87 197.388 232.313 176.355 258.82C176.355 258.82 217.261 253.024 240.472 224.975L243.097 225.52C244.112 225.738 245.133 225.927 246.143 226.169L249.169 226.93L261.27 229.977C265.325 230.912 269.277 232.215 273.267 233.38L285.214 236.949L286.075 234.788L273.969 231.239C269.926 230.083 265.924 228.788 261.817 227.864L249.569 224.85L246.507 224.097C245.484 223.858 244.452 223.673 243.426 223.459L242.608 223.294C223.786 187.53 184.504 167.226 184.504 167.226Z" fill="#260C4F"/>
<path d="M362.987 195.451C360.345 185.078 356.682 174.812 356.345 164.114C356.009 153.416 359.761 141.801 368.814 136.091C377.867 130.381 392.399 133.824 395.283 144.132C396.447 148.294 396.66 154.093 400.895 154.951C404.895 155.762 407.583 150.784 407.803 146.711C408.163 140.05 405.849 133.583 404.113 127.142C402.377 120.702 401.24 113.659 403.827 107.511C406.415 101.363 414.026 96.9464 419.978 99.9567C422.199 101.08 423.99 103.089 426.408 103.679C430.474 104.672 434.405 101.13 435.892 97.2191C437.379 93.3065 437.277 88.9823 438.253 84.9118C441.685 70.6011 460.562 62.5924 473.238 70.0694C485.914 77.5481 488.032 97.9447 477.166 107.869C473.797 110.945 469.529 113.06 466.714 116.648C463.9 120.238 463.292 126.299 467.107 128.801C470.974 131.338 476.047 128.523 480.67 128.657C488.351 128.88 493.434 137.959 491.895 145.489C490.356 153.018 484.222 158.767 477.706 162.84C471.19 166.912 463.949 169.874 457.975 174.706C455.881 176.399 453.783 178.914 454.556 181.493C455.795 185.627 461.75 184.631 466.066 184.61C476.385 184.562 483.91 196.051 482.847 206.315C481.783 216.58 474.547 225.173 466.519 231.659C453.567 242.121 438.126 248.688 422.794 254.819C407.947 260.756 393.372 269.414 378.45 274.648C357.459 282.01 367.256 257.171 367.874 245.04C368.72 228.388 367.102 211.609 362.987 195.451Z" fill="url(#paint24_linear)"/>
<path d="M455.294 205.268C455.864 204.893 455.193 204.074 454.629 204.445C426.307 223.107 400.765 245.036 379.082 271.067C397.878 239.063 414.873 206.007 429.952 172.094C429.971 172.082 429.99 172.072 430.009 172.057C440.491 163.42 451.858 155.957 463.953 149.777C464.558 149.468 464.13 148.5 463.522 148.811C451.939 154.729 441.013 161.818 430.889 169.979C434.151 162.598 437.331 155.181 440.41 147.72C446.112 133.903 451.49 119.954 456.56 105.894C456.79 105.254 455.798 104.886 455.567 105.529C450.272 120.215 444.622 134.771 438.637 149.19C436.97 141.586 435.302 133.98 433.635 126.376C433.489 125.713 432.445 125.882 432.59 126.548C434.357 134.601 436.122 142.656 437.889 150.711C437.901 150.77 437.923 150.818 437.947 150.862C427.318 176.343 415.618 201.373 402.885 225.872C401.767 205.462 398.72 185.203 393.775 165.367C393.61 164.71 392.566 164.876 392.73 165.538C397.809 185.909 400.89 206.728 401.931 227.696C398.094 235.041 394.176 242.343 390.154 249.586C382.972 262.523 375.493 275.292 367.74 287.894C367.385 288.47 368.243 289.091 368.6 288.51C371.013 284.587 373.389 280.642 375.747 276.685C375.836 276.655 375.924 276.607 375.996 276.516C398.447 248.418 425.314 225.023 455.294 205.268Z" fill="url(#paint25_linear)"/>
<path d="M270.252 259.126C269.022 260.143 231.153 278.639 218.987 266.119L245.037 256.496C245.037 256.496 213.781 265.179 206.71 258.115C199.64 251.05 176.746 226.936 176.746 226.936C176.746 226.936 202.698 223.911 205.522 222.207C205.522 222.207 182.597 224.044 172.718 209.137C162.84 194.229 160.046 169.982 160.046 169.982L180.238 174.881C180.238 174.881 164.337 168.596 164.951 158.517C165.565 148.438 170.319 107.812 167.533 104.135C164.747 100.457 193.973 105.092 204.213 112.703C214.453 120.314 206.875 137.298 206.875 137.298C206.875 137.298 220.103 123.761 222.675 117.982C225.244 112.204 245.848 131.849 247.054 132.866C248.26 133.883 249.569 167.359 247.191 171.572C244.814 175.785 261.795 153.319 261.5 147.772C261.205 142.223 278.792 164.393 278.482 175.622C278.173 186.848 272.178 209.19 272.178 209.19C272.178 209.19 285.712 200.588 287.4 191.876C289.086 183.164 310.014 226.235 270.252 259.126Z" fill="url(#paint26_linear)"/>
<path opacity="0.49" d="M287.998 191.863C286.31 200.575 272.776 209.177 272.776 209.177C272.776 209.177 278.771 186.837 279.08 175.609C279.388 164.382 261.802 142.21 262.098 147.759C262.395 153.308 245.412 175.772 247.789 171.561C250.167 167.348 248.858 133.872 247.652 132.855C246.446 131.838 225.842 112.192 223.273 117.971C220.703 123.75 207.473 137.287 207.473 137.287C207.473 137.287 215.051 120.301 204.811 112.69C195.893 106.062 172.582 101.693 168.551 103.105L168.131 104.122C168.131 104.122 270.404 203.772 267.699 260.747C269.513 259.89 270.654 259.277 270.851 259.114C310.612 226.222 289.685 183.151 287.998 191.863Z" fill="url(#paint27_linear)"/>
<path d="M244.747 168.098C244.757 167.568 243.937 167.637 243.927 168.161C243.407 194.524 246.205 220.543 253.328 245.899C241.107 219.763 227.417 194.316 212.335 169.721C212.335 169.704 212.336 169.686 212.335 169.668C211.42 159.149 211.645 148.58 213.014 138.111C213.082 137.588 212.273 137.437 212.204 137.962C210.894 147.988 210.621 158.11 211.391 168.189C208.099 162.849 204.749 157.544 201.326 152.286C194.986 142.549 188.42 132.96 181.646 123.519C181.337 123.09 180.665 123.562 180.974 123.994C188.049 133.856 194.885 143.887 201.485 154.069C195.88 151.787 190.274 149.506 184.668 147.225C184.18 147.026 183.828 147.768 184.319 147.969C190.255 150.386 196.192 152.801 202.13 155.218C202.173 155.235 202.213 155.244 202.254 155.247C213.894 173.278 224.774 191.798 234.858 210.745C221.292 202.473 206.971 195.5 192.087 189.932C191.595 189.747 191.241 190.491 191.737 190.676C207.022 196.395 221.715 203.591 235.606 212.159C238.621 217.852 241.572 223.578 244.441 229.346C249.565 239.645 254.45 250.06 259.109 260.577C259.322 261.059 260.097 260.782 259.883 260.297C258.433 257.022 256.951 253.763 255.455 250.509C255.476 250.439 255.483 250.362 255.457 250.276C247.349 223.518 244.196 196.002 244.747 168.098Z" fill="#0C4B4F"/>
<path d="M334.428 89.0371C329.58 100.907 345.04 141.309 335.512 142.035C325.983 142.76 323.066 98.6016 323.066 98.6016C323.066 98.6016 300.54 106.802 293.825 115.424C287.11 124.045 316.997 169.984 313.294 175.574C309.59 181.164 281.353 143.355 280.375 126.621C280.375 126.621 251.44 168.78 276.847 192.65C302.254 216.52 291.581 223.523 274.795 206.37C258.008 189.217 250.987 172.5 250.987 172.5C250.987 172.5 233.213 216.021 253.049 242.232C272.885 268.442 290.78 267.227 302.614 259.987C314.448 252.747 323.705 238.772 323.705 238.772C339.584 263.366 351.759 293.55 385.9 282.991C400.621 278.439 415.158 272.214 395.141 262.973C375.123 253.733 367.463 257.707 360.222 245.874C354.519 236.553 361.584 234.712 370.895 238.868C380.206 243.026 397.01 266.222 409.062 254.1C421.115 241.978 424.057 214.772 406.398 217.148C388.737 219.523 370.152 223.297 374.31 213.986C378.468 204.676 414.548 221.54 417.98 202.701C421.412 183.862 408.294 149.031 408.294 149.031C408.294 149.031 370.109 177.79 363.497 172.639C354.876 165.922 405.297 158.105 399.184 133.947C393.07 109.789 393.07 109.789 393.07 109.789C393.07 109.789 366.895 141.712 364.084 133.817C361.27 125.921 387.499 112.13 380.242 94.2516C372.984 76.373 370.643 70.8018 370.643 70.8018C370.643 70.8018 339.275 77.1672 334.428 89.0371ZM351.318 220.048C356.035 223.436 357.384 229.626 357.384 229.626C357.384 229.626 351.087 230.324 346.37 226.937C341.653 223.549 338.937 219.261 340.304 217.358C341.671 215.456 346.601 216.66 351.318 220.048ZM355.79 185.265C361.523 184.336 366.849 187.768 366.849 187.768C366.849 187.768 362.881 192.708 357.149 193.638C351.416 194.567 346.466 193.447 346.09 191.135C345.716 188.825 350.058 186.197 355.79 185.265ZM309.244 182.442C313.336 185.154 314.364 190.811 314.364 190.811C314.364 190.811 308.755 192.072 304.662 189.36C300.57 186.648 298.276 182.902 299.542 180.991C300.808 179.08 305.151 179.73 309.244 182.442ZM365.67 143.81C369.507 143.584 372.799 146.458 372.799 146.458C372.799 146.458 369.869 149.702 366.032 149.928C362.195 150.155 359.005 148.97 358.903 147.28C358.804 145.59 361.833 144.038 365.67 143.81ZM327.742 147.771C330.946 149.894 331.851 154.169 331.851 154.169C331.851 154.169 327.561 155.002 324.357 152.88C321.153 150.759 319.313 147.892 320.247 146.482C321.182 145.071 324.537 145.649 327.742 147.771Z" fill="url(#paint28_linear)"/>
<path d="M326.737 259.931C324.742 252.74 323.915 245.261 323.747 237.807C323.586 230.343 324.095 222.863 325.238 215.479L325.687 212.712L326.257 209.967C326.644 208.141 326.993 206.304 327.5 204.504C328.421 200.876 329.411 197.29 330.401 193.705L336.408 172.198L360.405 86.1572L360.508 86.1847L337.226 172.428L331.413 193.993C330.423 197.583 329.437 201.173 328.526 204.761C328.023 206.547 327.68 208.37 327.296 210.184L326.732 212.906L326.288 215.65C323.814 230.242 323.61 245.375 326.84 259.901L326.737 259.931Z" fill="#260C4F"/>
<path d="M324.365 231.861C321.713 233.813 318.898 235.407 315.963 236.796C313.028 238.17 309.967 239.27 306.829 240.062C303.699 240.894 300.457 241.254 297.236 241.296L294.815 241.254L292.412 240.98L291.213 240.836L290.035 240.57L287.68 240.037L290.047 240.505L291.229 240.738L292.429 240.848L294.827 241.054L297.234 241.03C300.431 240.901 303.627 240.455 306.697 239.548C309.774 238.68 312.764 237.513 315.618 236.079C318.459 234.64 321.224 232.964 323.703 231.031L324.365 231.861Z" fill="#260C4F"/>
<path d="M327.617 206.617C333.066 207.132 338.579 207.307 344.065 207.145C346.809 207.06 349.548 206.855 352.265 206.5C354.988 206.147 357.67 205.615 360.278 204.752C365.501 203.065 370.554 200.835 375.518 198.459C380.479 196.068 385.367 193.519 390.163 190.807C385.41 193.598 380.563 196.224 375.635 198.697C370.701 201.156 365.681 203.469 360.441 205.257C357.826 206.169 355.091 206.759 352.356 207.157C349.617 207.559 346.857 207.809 344.095 207.94C338.567 208.19 333.042 208.104 327.51 207.672L327.617 206.617Z" fill="#260C4F"/>
<path d="M324.574 217.319C319.4 215.942 314.544 213.82 309.925 211.249C308.791 210.573 307.63 209.942 306.518 209.228L303.222 207.035L300.072 204.637C299.012 203.851 298.069 202.92 297.064 202.069L295.583 200.76L294.198 199.348C293.292 198.391 292.311 197.506 291.47 196.491L288.935 193.46L288.304 192.702L287.736 191.894L286.6 190.278L285.467 188.664L284.902 187.856L284.408 187.002L282.432 183.586C281.727 182.473 281.237 181.247 280.669 180.061L279.01 176.487L280.729 180.032C281.316 181.206 281.825 182.422 282.547 183.521L284.576 186.894L285.082 187.736L285.66 188.532L286.818 190.122L287.976 191.712L288.554 192.506L289.196 193.25L291.767 196.221C292.619 197.216 293.611 198.081 294.525 199.016L295.923 200.393L297.415 201.667C298.429 202.494 299.378 203.402 300.443 204.163L303.604 206.487L306.906 208.604C308.016 209.292 309.177 209.897 310.309 210.547C314.901 213.011 319.795 215.036 324.802 216.28L324.574 217.319Z" fill="#260C4F"/>
<path d="M332.738 184.061C329.551 181.205 326.814 178.001 324.306 174.606C321.81 171.212 319.57 167.627 317.697 163.856C315.815 160.097 314.172 156.208 312.983 152.179C311.678 148.182 310.918 144.04 310.283 139.899C311.007 144.028 311.851 148.143 313.237 152.098C314.505 156.088 316.222 159.92 318.169 163.613C320.105 167.315 322.402 170.822 324.942 174.128C327.479 177.423 330.294 180.563 333.414 183.241L332.738 184.061Z" fill="#260C4F"/>
<path d="M337.555 170.105C341.74 169.032 345.893 167.692 349.967 166.193C354.044 164.69 358.046 162.978 361.922 161.016C365.787 159.037 369.535 156.797 372.94 154.091C376.317 151.385 379.403 148.169 381.31 144.225C379.485 148.206 376.448 151.507 373.108 154.297C369.739 157.088 366.015 159.417 362.168 161.488C358.308 163.541 354.319 165.344 350.25 166.937C346.176 168.529 342.051 169.955 337.816 171.135L337.555 170.105Z" fill="#260C4F"/>
<path d="M504.487 57.4422C505.936 57.4422 507.11 56.2679 507.11 54.8195C507.11 53.371 505.936 52.1968 504.487 52.1968C503.039 52.1968 501.865 53.371 501.865 54.8195C501.865 56.2679 503.039 57.4422 504.487 57.4422Z" fill="#260C4F"/>
<path d="M168.289 31.7127C169.737 31.7127 170.912 30.5384 170.912 29.09C170.912 27.6415 169.737 26.4673 168.289 26.4673C166.84 26.4673 165.666 27.6415 165.666 29.09C165.666 30.5384 166.84 31.7127 168.289 31.7127Z" fill="#260C4F"/>
<path d="M3.62049 218.68C5.06896 218.68 6.24318 217.506 6.24318 216.058C6.24318 214.609 5.06896 213.435 3.62049 213.435C2.17202 213.435 0.997803 214.609 0.997803 216.058C0.997803 217.506 2.17202 218.68 3.62049 218.68Z" fill="#260C4F"/>
<defs>
<linearGradient id="paint0_linear" x1="115.683" y1="193.923" x2="473.745" y2="193.923" gradientUnits="userSpaceOnUse">
<stop stop-color="#255B51"/>
<stop offset="1" stop-color="#112B27"/>
</linearGradient>
<linearGradient id="paint1_linear" x1="225.912" y1="198.57" x2="583.975" y2="198.57" gradientUnits="userSpaceOnUse">
<stop stop-color="#255B51"/>
<stop offset="1" stop-color="#112B27"/>
</linearGradient>
<linearGradient id="paint2_linear" x1="234.421" y1="41.9215" x2="247.522" y2="37.5412" gradientUnits="userSpaceOnUse">
<stop stop-color="#2F2F06"/>
<stop offset="0.9895" stop-color="#2F5B06"/>
</linearGradient>
<linearGradient id="paint3_linear" x1="216.913" y1="55.8343" x2="238.655" y2="48.565" gradientUnits="userSpaceOnUse">
<stop stop-color="#2F2F06"/>
<stop offset="0.9895" stop-color="#2F5B06"/>
</linearGradient>
<linearGradient id="paint4_linear" x1="207.117" y1="93.8233" x2="245.912" y2="80.8521" gradientUnits="userSpaceOnUse">
<stop stop-color="#2F2F06"/>
<stop offset="0.9895" stop-color="#2F5B06"/>
</linearGradient>
<linearGradient id="paint5_linear" x1="209.565" y1="122.139" x2="258.758" y2="105.691" gradientUnits="userSpaceOnUse">
<stop stop-color="#2F2F06"/>
<stop offset="0.9895" stop-color="#2F5B06"/>
</linearGradient>
<linearGradient id="paint6_linear" x1="211.71" y1="144.195" x2="262.505" y2="127.212" gradientUnits="userSpaceOnUse">
<stop stop-color="#2F2F06"/>
<stop offset="0.9895" stop-color="#2F5B06"/>
</linearGradient>
<linearGradient id="paint7_linear" x1="221.344" y1="166.552" x2="270.484" y2="150.122" gradientUnits="userSpaceOnUse">
<stop stop-color="#2F2F06"/>
<stop offset="0.9895" stop-color="#2F5B06"/>
</linearGradient>
<linearGradient id="paint8_linear" x1="224.579" y1="193.985" x2="278.825" y2="175.848" gradientUnits="userSpaceOnUse">
<stop stop-color="#2F2F06"/>
<stop offset="0.9895" stop-color="#2F5B06"/>
</linearGradient>
<linearGradient id="paint9_linear" x1="249.931" y1="54.7124" x2="280.739" y2="44.4117" gradientUnits="userSpaceOnUse">
<stop stop-color="#2F2F06"/>
<stop offset="0.9895" stop-color="#2F5B06"/>
</linearGradient>
<linearGradient id="paint10_linear" x1="263.189" y1="77.5545" x2="307.303" y2="62.805" gradientUnits="userSpaceOnUse">
<stop stop-color="#2F2F06"/>
<stop offset="0.9895" stop-color="#2F5B06"/>
</linearGradient>
<linearGradient id="paint11_linear" x1="265.635" y1="102.772" x2="313.826" y2="86.6592" gradientUnits="userSpaceOnUse">
<stop stop-color="#2F2F06"/>
<stop offset="0.9895" stop-color="#2F5B06"/>
</linearGradient>
<linearGradient id="paint12_linear" x1="275.187" y1="124.373" x2="325.877" y2="107.425" gradientUnits="userSpaceOnUse">
<stop stop-color="#2F2F06"/>
<stop offset="0.9895" stop-color="#2F5B06"/>
</linearGradient>
<linearGradient id="paint13_linear" x1="281.045" y1="149.69" x2="334.195" y2="131.919" gradientUnits="userSpaceOnUse">
<stop stop-color="#2F2F06"/>
<stop offset="0.9895" stop-color="#2F5B06"/>
</linearGradient>
<linearGradient id="paint14_linear" x1="286.086" y1="172.18" x2="339.235" y2="154.41" gradientUnits="userSpaceOnUse">
<stop stop-color="#2F2F06"/>
<stop offset="0.9895" stop-color="#2F5B06"/>
</linearGradient>
<linearGradient id="paint15_linear" x1="267.804" y1="132.731" x2="272.685" y2="131.099" gradientUnits="userSpaceOnUse">
<stop stop-color="#2F2F06"/>
<stop offset="0.9895" stop-color="#2F5B06"/>
</linearGradient>
<linearGradient id="paint16_linear" x1="242.369" y1="78.7887" x2="263.299" y2="71.7909" gradientUnits="userSpaceOnUse">
<stop stop-color="#2F2F06"/>
<stop offset="0.9895" stop-color="#2F5B06"/>
</linearGradient>
<linearGradient id="paint17_linear" x1="238.23" y1="103.101" x2="278.994" y2="89.4712" gradientUnits="userSpaceOnUse">
<stop stop-color="#2F2F06"/>
<stop offset="0.9895" stop-color="#2F5B06"/>
</linearGradient>
<linearGradient id="paint18_linear" x1="243.637" y1="121.129" x2="284.402" y2="107.499" gradientUnits="userSpaceOnUse">
<stop stop-color="#2F2F06"/>
<stop offset="0.9895" stop-color="#2F5B06"/>
</linearGradient>
<linearGradient id="paint19_linear" x1="250.276" y1="142.748" x2="291.001" y2="129.131" gradientUnits="userSpaceOnUse">
<stop stop-color="#2F2F06"/>
<stop offset="0.9895" stop-color="#2F5B06"/>
</linearGradient>
<linearGradient id="paint20_linear" x1="262.52" y1="166.198" x2="298.712" y2="154.097" gradientUnits="userSpaceOnUse">
<stop stop-color="#2F2F06"/>
<stop offset="0.9895" stop-color="#2F5B06"/>
</linearGradient>
<linearGradient id="paint21_linear" x1="267.582" y1="186.81" x2="303.734" y2="174.722" gradientUnits="userSpaceOnUse">
<stop stop-color="#2F2F06"/>
<stop offset="0.9895" stop-color="#2F5B06"/>
</linearGradient>
<linearGradient id="paint22_linear" x1="393.936" y1="235.734" x2="568.388" y2="235.734" gradientUnits="userSpaceOnUse">
<stop stop-color="#2F2F06"/>
<stop offset="0.9895" stop-color="#2F5B06"/>
</linearGradient>
<linearGradient id="paint23_linear" x1="328.124" y1="202.588" x2="433.255" y2="-11.4888" gradientUnits="userSpaceOnUse">
<stop stop-color="#2F2F06"/>
<stop offset="0.9895" stop-color="#2F5B06"/>
</linearGradient>
<linearGradient id="paint24_linear" x1="352.433" y1="171.605" x2="545.067" y2="171.614" gradientUnits="userSpaceOnUse">
<stop stop-color="#2F2F06"/>
<stop offset="0.6259" stop-color="#528932"/>
<stop offset="0.9895" stop-color="#65B94A"/>
</linearGradient>
<linearGradient id="paint25_linear" x1="386.236" y1="168.492" x2="438.016" y2="225.291" gradientUnits="userSpaceOnUse">
<stop stop-color="#2F2F06"/>
<stop offset="0.9895" stop-color="#2F5B06"/>
</linearGradient>
<linearGradient id="paint26_linear" x1="294.223" y1="224.795" x2="143.831" y2="152.614" gradientUnits="userSpaceOnUse">
<stop stop-color="#255B51"/>
<stop offset="0.801" stop-color="#3A7B05"/>
</linearGradient>
<linearGradient id="paint27_linear" x1="300.377" y1="213.209" x2="150.292" y2="141.175" gradientUnits="userSpaceOnUse">
<stop stop-color="#255B51"/>
<stop offset="0.801" stop-color="#3A7B05"/>
</linearGradient>
<linearGradient id="paint28_linear" x1="293.955" y1="97.4487" x2="364.406" y2="291.01" gradientUnits="userSpaceOnUse">
<stop stop-color="#6BD55E"/>
<stop offset="0.1877" stop-color="#5FBE48"/>
<stop offset="0.5369" stop-color="#4B9A23"/>
<stop offset="0.8201" stop-color="#3E830D"/>
<stop offset="1" stop-color="#3A7B05"/>
</linearGradient>
</defs>
</svg>
