<svg width="451" height="412" viewBox="0 0 451 412" fill="none" xmlns="http://www.w3.org/2000/svg">
<circle cx="207.5" cy="199.5" r="199.5" fill="url(#paint0_linear)"/>
<g clip-path="url(#clip0)">
<path d="M450.086 355.937C461.988 386.16 355.724 406.133 230.509 412C103.764 408.935 7.19695 402.111 1.01963 363.498C-0.507572 330.85 78.2041 293.646 203.419 287.779C328.635 281.912 453.658 318.107 450.086 355.937Z" fill="url(#paint1_linear)"/>
<path d="M389.269 393.625C380.037 395.603 378.233 395.977 372.845 397.027C370.121 397.589 367.785 397.958 365.083 398.441C364.227 398.591 363.155 398.757 362.159 398.944C354.992 400.127 348.461 401.136 342.065 402.068C338.357 402.741 333.757 403.074 329.681 403.727C323.266 404.698 309.671 406.01 307.13 406.353C306.506 405.733 305.785 405.478 305.333 405.071C298.841 401.471 294.586 394.557 264.394 390.603L259.894 390.068C230.79 386.86 198.237 388.215 182.228 381.904C170.461 377.197 164.706 371.895 167.842 366.849C169.188 364.718 172.158 362.617 177.064 360.674C193.128 354.219 256.721 348.804 261.055 340.881C262.679 337.914 261.996 334.111 259.211 330.029C258.879 329.569 258.511 329.103 258.142 328.658L257.533 327.898C256.407 326.61 255.173 325.412 253.845 324.335L253.309 323.876L252.424 323.153C251.613 322.483 251.004 322.038 250.746 321.85C250.488 321.669 250.746 321.85 250.746 321.85C243.229 316.638 234.954 312.632 226.216 309.966L220.037 301.93C240.288 308.038 264.744 324.335 270.554 336.468C276.364 348.593 264.597 355.018 248.975 357.367C238.217 358.851 227.551 360.952 217.031 363.656H216.939L215.094 364.228C211.203 365.546 209.561 366.774 212.365 367.648L212.807 367.791C214.408 368.152 216.037 368.371 217.676 368.446C218.691 368.446 219.834 368.551 221.051 368.589C222.269 368.627 223.615 368.589 225.017 368.589C242.354 368.589 271.403 366.345 287.025 367.09C299.492 367.685 331.289 372.001 355.838 377.792C361.371 379.072 366.424 380.406 370.906 381.814C379.667 384.54 386.011 387.379 387.782 390.347C388.167 391.046 389.066 392.849 389.269 393.625Z" fill="#15CFFC"/>
<path opacity="0.19" d="M342.23 402.056C338.391 402.874 334.369 403.121 329.846 403.715C325.29 394.143 316.736 394.417 298.293 386.795C266.938 373.811 212.843 386.938 190.527 377.818C168.21 368.69 181.6 356.467 233.851 351.421C266.293 348.288 264.91 337.586 259.377 329.942C259.045 329.482 258.676 329.015 258.307 328.571L257.698 327.885C256.541 326.628 255.309 325.438 254.009 324.323L253.475 323.864L252.59 323.141C251.778 322.471 251.17 322.026 250.911 321.838C267.363 331.425 273.597 348.619 257.422 351.519C241.247 354.411 205.503 361.068 192.869 366.702C180.235 372.343 199.988 376.779 233.814 376.5C267.64 376.221 326.161 380.205 339.57 396.992C340.886 398.777 341.606 399.924 342.23 402.056Z" fill="#006AD4"/>
<path opacity="0.19" d="M372.915 397.05C370.232 397.591 367.881 397.987 365.154 398.465C363.567 386.392 361.148 385.121 321.069 379.54C276.971 373.364 220.035 374.472 207.77 370.578C195.967 366.872 215.498 363.845 216.992 363.626C207.642 365.795 206.406 366.872 212.437 367.686C214.502 368.017 217.417 368.296 221.124 368.635L232.19 369.523L246.373 370.653C281.545 373.568 286.562 371.12 334.017 377.853C366.681 382.485 372.215 388.088 372.915 397.05Z" fill="#006AD4"/>
<path d="M308.104 314.063L307.679 314.056C302.969 314.395 297.921 314.613 292.747 314.756C267.872 315.449 239.495 314.139 224.174 313.333C188.963 311.48 169.883 300.417 193.334 291.055C193.334 291.055 237.298 269.192 260.534 268.145C270.738 267.625 280.959 268.748 290.809 271.459C305.117 275.42 320.099 283.2 335.955 296.576C348.846 307.473 332.595 312.226 308.104 314.063Z" fill="url(#paint2_linear)"/>
<path opacity="0.28" d="M290.063 277.642C295.523 276.264 305.789 282.281 298.095 286.25C290.399 290.212 270.27 282.62 290.063 277.642Z" fill="#314F09"/>
<path opacity="0.28" d="M310.223 283.968C314.728 283.298 313.981 288.321 310.106 288.811C306.231 289.3 302.781 285.068 310.223 283.968Z" fill="#314F09"/>
<path opacity="0.28" d="M302.315 290.867C312.657 290.822 310.31 296.267 303.152 297.374C295.995 298.481 291.036 290.912 302.315 290.867Z" fill="#314F09"/>
<path opacity="0.28" d="M319.687 292.667C324.826 292.185 329.878 298.27 324.328 301.065C318.778 303.859 306.446 293.925 319.687 292.667Z" fill="#314F09"/>
<path d="M148.997 327.718C95.6672 328.576 29.9831 341.628 32.5882 324.901C32.5882 324.901 44.1818 289.466 98.1428 263.664C117.6 254.356 139.693 256.487 160.885 263.619C181.709 270.661 201.622 282.522 217.374 293.157C229.952 301.69 239.879 309.447 245.298 313.258C264.265 326.633 202.342 326.859 148.997 327.718Z" fill="url(#paint3_linear)"/>
<path opacity="0.28" d="M216.269 298.331C223.678 299.747 219.807 307.082 213.446 305.824C207.085 304.559 204.024 296.004 216.269 298.331Z" fill="#314F09"/>
<path opacity="0.28" d="M198.493 296.222C203.664 296.207 202.49 298.918 198.912 299.475C195.333 300.025 192.839 296.244 198.493 296.222Z" fill="#314F09"/>
<path opacity="0.28" d="M186.979 280.097C192.535 278.809 200.526 287.9 192.854 289.76C185.181 291.62 176.064 282.673 186.979 280.097Z" fill="#314F09"/>
<path d="M277.902 346.817L277.476 346.802C277.615 346.756 277.765 346.764 277.902 346.817Z" fill="#1A2B00"/>
<path d="M329.494 252.435C328.745 265.208 318.16 275.925 307.274 276.128C274.035 276.746 278.02 249.355 284.989 236.589C286.824 233.26 289.445 230.429 292.625 228.342C295.806 226.264 299.447 224.991 303.232 224.637C310.476 224.072 318.34 227.235 324.603 236.115C328.062 240.829 329.789 246.591 329.494 252.435Z" fill="url(#paint4_linear)"/>
<path d="M306.074 302.917C307.986 303.309 309.951 303.354 311.88 303.06C311.88 303.06 308.485 267.121 308.501 266.481C308.516 265.84 314.937 259.371 317.287 255.59L315.296 254.476C315.296 254.476 308.662 261.578 308.027 261.412C307.392 261.239 305.62 243.427 305.62 243.427C305.62 243.427 302.389 243.141 302.575 244.211C302.763 245.28 303.999 268.785 303.999 268.785L295.888 261.758L294.818 264.289L305.061 275.405L306.074 302.917Z" fill="#7C3421"/>
<path d="M94.3221 282.244C89.599 293.932 77.7938 305.967 65.4595 303.308C58.9156 301.9 47.882 300.785 39.2652 286.378C30.6492 271.971 39.7695 265.501 39.8997 260.079C40.0307 254.664 46.2125 232.236 66.0888 229.803C73.8482 228.847 78.2153 231.889 80.8452 236.069C84.9767 242.599 84.8902 251.892 87.0406 253.082C90.5376 255.041 95.062 257.857 96.4183 270.804C96.6351 274.727 95.9163 278.651 94.3221 282.244Z" fill="url(#paint5_linear)"/>
<path d="M68.319 336.831C68.3039 337.448 66.4117 338.164 64.5488 338.186C62.6866 338.209 60.9427 337.892 61.0194 336.446C61.0194 336.446 63.0103 296.809 62.707 292.208C62.4044 287.606 52.1648 271.903 52.8016 270.661C53.4376 269.418 54.2911 268.914 55.1184 269.516C55.9448 270.119 63.1796 281.784 63.7795 282.628C64.3802 283.471 64.1484 249.626 64.5909 249.016C64.8905 248.685 65.3037 248.481 65.7493 248.436C66.0436 248.361 66.356 248.383 66.6375 248.496C66.919 248.617 67.1538 248.82 67.3059 249.084C67.7078 250.146 67.3955 288.796 67.3217 291.861C67.2479 294.927 76.3494 281.22 77.2519 280.414C78.1536 279.608 79.0983 281.619 79.504 282.507C79.9097 283.404 70.425 295.288 68.8835 298.579C67.342 301.863 68.3491 335.573 68.319 336.831Z" fill="#7C3421"/>
<path opacity="0.44" d="M64.5489 338.186C62.7259 338.292 60.9428 337.892 61.0196 336.446C61.0196 336.446 63.0104 296.809 62.7078 292.208C62.4045 287.606 52.1649 271.903 52.8017 270.661C53.4385 269.418 54.2913 268.914 55.1185 269.516C55.9449 270.119 63.1798 281.785 63.7797 282.628C64.3803 283.472 64.1485 249.626 64.5911 249.016C64.8906 248.685 65.3039 248.481 65.7494 248.436L64.5489 338.186Z" fill="#381102"/>
<path d="M89.2513 263.214C92.0114 263.612 94.4177 271.41 91.0961 272.806C87.7745 274.204 84.8827 262.588 89.2513 263.214Z" fill="url(#paint6_linear)"/>
<path d="M415.084 260.951C394.239 269.484 378.931 262.239 368.205 261.109C363.354 259.814 358.192 260.364 353.722 262.653C346.045 266.487 319.326 264.137 318.479 236.829C317.632 209.52 336.857 205.74 342.027 202.832C347.196 199.933 342.4 187.348 363.287 177.11C368.938 174.265 375.31 173.172 381.587 173.97C394.784 175.711 405.374 185.389 408.465 193.253C412.923 204.535 427.529 206.719 432.018 217.91C433.433 221.615 434.223 225.524 434.352 229.478C434.897 241.061 430.305 254.723 415.084 260.951Z" fill="url(#paint7_linear)"/>
<path d="M393.671 239.457C391.833 243.832 385.949 256.327 379.919 256.621C373.889 256.914 375.369 268.603 376.049 279.267C376.729 289.931 378.778 303.909 378.726 306.063C378.705 306.96 377.123 307.72 375.298 308.014C372.76 308.421 369.76 307.969 369.669 305.845C368.614 260.65 365.615 260.138 361.305 257.449C356.996 254.76 350.058 245.565 347.537 242.906C345.016 240.24 347.237 237.679 349.832 237.273C352.427 236.866 364.422 255.438 364.557 249.85C364.692 244.269 364.401 238.666 364.972 232.649C365.214 230.269 366.474 229.259 367.715 229.049C369.74 228.717 371.948 230.216 371.448 231.511C370.544 233.65 372.304 249.601 376.657 247.56C381.011 245.519 386.854 237.062 388.578 234.516C390.301 231.971 395.496 235.096 393.671 239.457Z" fill="#7C3421"/>
<path opacity="0.44" d="M375.297 308.074C372.758 308.481 369.758 308.021 369.667 305.905C368.613 260.71 365.614 260.198 361.304 257.509C356.994 254.813 350.056 245.625 347.535 242.959C345.015 240.3 347.235 237.739 349.83 237.333C352.426 236.926 364.422 255.438 364.557 249.85C364.692 244.269 364.4 238.666 364.972 232.648C365.214 230.268 366.474 229.259 367.715 229.048C368.786 243.531 371.776 283.868 375.297 308.074Z" fill="#381102"/>
<path d="M422.597 214.525C428.225 215.314 429.63 224.106 424.089 224.298C418.547 224.492 416.018 213.591 422.597 214.525Z" fill="url(#paint8_linear)"/>
<path d="M428.501 232.479C432.823 238.458 425.208 247.673 419.973 242.657C414.733 237.643 423.458 225.481 428.501 232.479Z" fill="url(#paint9_linear)"/>
<path d="M90.9004 277.849C92.5006 279.355 90.5263 285.473 87.7534 284.87C84.9782 284.268 88.3661 275.467 90.9004 277.849Z" fill="url(#paint10_linear)"/>
<path d="M251.374 171.552C251.374 171.552 257.253 159.869 271.876 168.395C271.876 168.395 275.504 151.697 290.827 158.307C290.827 158.307 275.843 146.446 270.471 164.225C270.528 164.226 253.283 154.827 251.374 171.552Z" fill="#0F3863"/>
<path d="M67.9111 201.825C67.9111 201.825 77.681 196.048 84.3536 209.145C84.3536 209.145 94.834 198.669 102.91 210.674C102.91 210.674 97.6077 194.979 85.2817 205.432C85.2817 205.432 77.1474 190.507 67.9111 201.825Z" fill="#0F3863"/>
<path d="M182.681 174.325C182.101 176.923 180.514 179.186 178.268 180.614C171.623 185.214 162.599 182.467 158.301 174.546C157.759 175.608 157.101 176.608 156.34 177.526C155.296 178.916 153.977 180.076 152.466 180.935C150.954 181.794 149.283 182.331 147.555 182.516C145.319 182.558 143.113 181.995 141.17 180.888C139.226 179.781 137.618 178.169 136.513 176.223L136.391 176.021L136.381 176.433C136.297 177.544 135.887 178.606 135.204 179.487C134.521 180.367 133.594 181.028 132.54 181.385C131.446 181.492 130.35 181.199 129.454 180.561C128.558 179.924 127.924 178.983 127.666 177.914C127.873 180.096 127.416 182.291 126.356 184.21C125.295 186.129 123.682 187.684 121.725 188.671C118.25 190.208 114.46 189.533 110.858 188.664C107.808 188.113 105.021 186.578 102.924 184.294C100.585 181.751 100.66 182.178 97.7522 181.426C93.1495 180.263 89.7601 172.961 92.8213 167.35C93.2549 166.414 93.9579 165.629 94.8408 165.096C95.7229 164.564 96.7443 164.307 97.774 164.359C98.8037 164.411 99.7942 164.771 100.618 165.391C101.442 166.01 102.061 166.862 102.398 167.837C102.608 166.113 103.242 164.468 104.243 163.048C105.244 161.629 106.58 160.48 108.134 159.704C109.594 159.192 111.182 159.172 112.655 159.646C114.128 160.121 115.406 161.064 116.295 162.331C115.969 156.397 117.356 150.134 120.584 145.877C123.812 141.62 128.971 139.727 133.18 141.918C133.625 142.157 134.046 142.438 134.437 142.758C136.277 144.475 137.615 146.662 138.308 149.082C139 151.503 139.021 154.066 138.367 156.498C140.553 153.054 144.245 151.338 147.576 152.215C150.907 153.09 153.736 156.542 154.64 160.827C157.585 156.55 163.783 157.552 165.776 162.631C167.87 161.455 170.29 160.988 172.671 161.303C175.053 161.616 177.268 162.693 178.987 164.372C180.372 165.6 181.433 167.151 182.077 168.887C182.722 170.622 182.929 172.489 182.681 174.325Z" fill="url(#paint11_linear)"/>
<path d="M318.62 201.243C317.634 202.554 316.395 203.661 314.974 204.482C313.552 205.31 311.98 205.837 310.351 206.048C307.078 206.432 303.762 206.131 300.613 205.152C299.296 207.517 297.099 209.257 294.502 209.995C292.735 210.552 290.879 210.77 289.032 210.635C284.524 210.281 280.341 208.217 276.355 206.176C274.842 207.57 273.032 208.601 271.062 209.189C269.091 209.776 267.012 209.912 264.983 209.58C262.953 209.249 261.025 208.458 259.346 207.268C257.666 206.086 256.279 204.527 255.288 202.727C252.479 205.197 248.834 206.508 245.094 206.395C241.354 206.274 237.797 204.738 235.147 202.094C233.189 203.992 230.667 205.197 227.962 205.536C225.233 205.634 222.324 203.751 222.105 201.01C222.138 199.827 222.542 198.675 223.26 197.734C223.979 196.785 224.975 196.084 226.11 195.738C228.429 195.12 230.855 195.007 233.221 195.414C234.017 193.539 235.27 191.897 236.864 190.624C238.459 189.362 240.345 188.515 242.35 188.166C244.354 187.816 246.415 187.973 248.343 188.624C250.272 189.275 252.007 190.398 253.391 191.889C253.194 189.948 253.574 187.989 254.482 186.26C255.391 184.531 256.788 183.108 258.5 182.168C260.212 181.229 262.163 180.815 264.108 180.977C266.054 181.14 267.909 181.873 269.441 183.083C270.454 181.11 271.991 179.454 273.883 178.299C275.776 177.142 277.95 176.532 280.168 176.535C281.489 176.546 282.793 176.834 283.997 177.38C286.179 178.594 288.152 180.153 289.837 181.999C292.379 184.363 296.369 184.999 299.331 187.046C301.091 188.297 302.849 190.187 302.471 192.326C304.85 190.363 307.72 189.09 310.77 188.644C312.296 188.44 313.848 188.638 315.275 189.219C316.7 189.799 317.95 190.745 318.9 191.95C319.782 193.351 320.226 194.985 320.175 196.642C320.126 198.291 319.584 199.895 318.62 201.243Z" fill="url(#paint12_linear)"/>
<path d="M309.376 327.538C308.915 327.763 308.501 328.042 308.036 328.268C307.558 328.517 307.019 328.622 306.483 328.577C305.931 328.509 305.375 328.17 305.244 327.711C305.202 327.5 305.228 327.281 305.317 327.093C305.407 326.897 305.555 326.732 305.742 326.626C306.15 326.393 306.603 326.242 307.072 326.189C308.256 326.009 312.123 326.438 312.123 326.438C312.123 326.438 312.435 326.852 311.726 326.965C310.886 327.108 310.123 327.161 309.376 327.538Z" fill="#8DB329"/>
<path d="M310.303 324.02C309.968 323.636 309.717 323.222 309.386 322.845C309.047 322.431 308.602 322.115 308.099 321.942C307.569 321.768 306.926 321.836 306.618 322.175C306.34 322.484 306.391 322.943 306.626 323.305C306.904 323.689 307.256 324.005 307.662 324.239C308.662 324.886 312.354 326.106 312.354 326.106C312.354 326.106 312.808 325.873 312.211 325.489C311.501 325.007 310.838 324.645 310.303 324.02Z" fill="#8DB329"/>
<path d="M306.116 323.794C305.647 323.584 305.143 323.463 304.631 323.44C303.325 323.455 303.25 324.917 303.949 325.391C304.306 325.602 304.702 325.737 305.114 325.798C305.781 325.948 309.258 326.189 311.525 326.332C311.594 326.34 311.662 326.317 311.717 326.28C311.772 326.235 311.81 326.182 311.824 326.114C311.839 326.046 311.829 325.978 311.796 325.918C311.763 325.858 311.71 325.813 311.646 325.79C309.591 325.052 306.558 323.968 306.116 323.794Z" fill="#A4CF2F"/>
<path d="M312.562 329.593C311.961 329.164 311.504 328.562 311.254 327.861C311.003 327.168 310.971 326.408 311.16 325.692C311.571 324.306 312.934 323.245 314.451 323.109C315.809 322.996 317.139 323.553 318.393 324.096L320.677 325.082C320.726 325.301 320.693 325.534 320.585 325.73C320.76 325.451 321.036 325.429 321.311 325.353L327.058 327.846C327.616 328.087 328.855 328.697 330.148 329.345C330.15 329.495 330.271 329.623 330.25 329.714C330.38 329.699 330.503 329.654 330.61 329.578C331.883 330.218 333.126 330.851 333.755 331.175C333.776 331.182 333.794 331.198 333.804 331.22C333.814 331.243 333.817 331.265 333.813 331.288C333.807 331.31 333.795 331.333 333.776 331.348C333.758 331.363 333.735 331.371 333.712 331.371L326.727 331.017C326.662 330.776 326.842 330.61 326.612 330.475L326.136 331.039L316.912 330.633C316.605 330.618 316.294 330.603 315.99 330.58C315.926 330.475 315.874 330.354 315.835 330.234C315.754 330.331 315.68 330.444 315.61 330.55C314.509 330.444 313.434 330.218 312.562 329.593Z" fill="#F5811E"/>
<path d="M314.716 324.758L313.844 328.705" stroke="#C4792D" stroke-width="1.26" stroke-miterlimit="10" stroke-linecap="round"/>
<path d="M316.625 325.602L315.933 328.742" stroke="#C4792D" stroke-width="1.26" stroke-miterlimit="10" stroke-linecap="round"/>
<path d="M318.258 326.393L317.746 328.712" stroke="#C4792D" stroke-width="1.26" stroke-miterlimit="10" stroke-linecap="round"/>
<path d="M267.946 305.696C269.921 308.415 271.072 307.752 271.138 309.65C271.22 312.083 270.267 314.259 268.057 315.961C265.846 317.656 262.955 317.159 266.619 319.953C268.696 321.535 270.499 325.27 268.588 326.309C266.675 327.349 266.352 324.472 262.512 324.08C260.497 323.884 255.827 326.814 251.255 327.816C246.684 328.81 245.984 329.194 247.386 332.229C247.994 333.547 246.537 334.918 246.5 335.761C246.463 336.605 248.569 337.282 250.205 336.477C251.436 335.867 253.571 336.296 252.448 337.569C251.324 338.841 248.386 340.107 246.949 339.896C245.513 339.685 240.195 340.521 238.566 338.435C236.935 336.349 236.194 336.175 234.46 336.951C232.726 337.734 227.723 339.128 226.481 335.023C225.239 330.911 227.458 331.355 228.556 331.25C229.653 331.144 226.238 322.529 230.684 317.874C238.204 309.974 251.228 313.702 254.472 309.951C256.112 308.061 247.234 311.45 245.71 305.907C245.049 303.505 253.122 304.521 253.122 304.521C253.122 304.521 248.229 301.893 249.018 300.311C249.806 298.722 258.328 304.966 260.081 304.853C261.835 304.74 265.971 302.97 267.946 305.696Z" fill="white"/>
<path d="M263.436 310.094C262.64 309.484 262.494 308.34 263.109 307.541C263.724 306.743 264.869 306.6 265.665 307.217C266.46 307.827 266.606 308.972 265.991 309.77C265.376 310.569 264.232 310.712 263.436 310.094Z" fill="#FFF3E5"/>
<path d="M263.891 309.507C263.42 309.146 263.333 308.468 263.697 307.993C264.062 307.527 264.738 307.436 265.209 307.805C265.681 308.167 265.767 308.844 265.403 309.319C265.039 309.786 264.361 309.876 263.891 309.507Z" fill="#F18E9C"/>
<path d="M263.715 309.733C263.472 309.545 263.428 309.198 263.616 308.957C263.803 308.709 264.153 308.663 264.396 308.852C264.638 309.04 264.683 309.394 264.495 309.635C264.308 309.876 263.959 309.921 263.715 309.733Z" fill="white"/>
<path d="M264.637 308.023C264.466 307.888 264.434 307.639 264.567 307.473C264.699 307.3 264.945 307.27 265.116 307.398C265.287 307.534 265.319 307.775 265.186 307.948C265.054 308.121 264.808 308.151 264.637 308.023Z" fill="white"/>
<path d="M246.733 306.751C247.008 305.998 251.854 305.651 254.115 306.013C256.377 306.374 257.527 306.803 257.2 307.067C256.874 307.338 255.107 307.587 255.107 307.587C255.697 307.722 256.303 307.782 256.907 307.752C257.515 307.654 255.543 308.664 255.986 308.671C256.43 308.686 257.394 308.4 256.959 308.777C256.524 309.161 245.913 309.01 246.733 306.751Z" fill="#FFDCE9"/>
<path d="M266.161 311.397C262.996 312.256 256.659 315.653 255.818 316.263C254.977 316.865 260.687 313.559 266.133 311.593C267.033 311.262 266.781 311.224 266.161 311.397Z" fill="#FFDCE9"/>
<path d="M264.859 312.497C262.074 313.725 257.555 317.611 257.056 318.266C256.557 318.921 260.461 315.186 264.945 312.655C265.69 312.241 265.405 312.248 264.859 312.497Z" fill="#FFDCE9"/>
<path d="M267.923 311.39C265.303 312.716 261.428 316.692 261.043 317.347C260.658 318.003 263.944 314.222 268.048 311.556C268.728 311.111 268.447 311.134 267.923 311.39Z" fill="#FFDCE9"/>
<path d="M270.746 308.905C270.519 308.679 269.437 308.882 269.538 309.357C269.708 310.147 270.719 309.982 270.561 310.426C270.48 310.652 270.28 310.735 270.578 310.742C271.303 310.773 271.08 309.244 270.746 308.905Z" fill="#F18E9C"/>
<path d="M262.367 323.086C259.462 324.592 256.408 325.79 253.255 326.663C250.281 327.431 247.614 327.665 245.287 329.668C245.58 329.118 246.01 328.651 246.534 328.32L245.518 328.328C246.664 327.446 247.891 326.678 249.183 326.031L247.378 326.159C250.212 324.78 253.327 324.11 256.407 323.447L254.445 322.604L255.943 322.242L254.571 320.774L256.435 321.135L255.717 319.697C256.695 321.678 260.499 322.529 262.367 323.086Z" fill="#FFDCE9"/>
<path d="M234.538 335.121C234.804 335.181 235.156 335.354 235.061 335.595C235.029 335.671 234.978 335.731 234.915 335.776C234.416 336.198 233.835 336.499 233.21 336.68C232.584 336.861 231.927 336.906 231.284 336.808L232.478 336.115C231.703 336.04 230.946 335.836 230.241 335.505C230.55 335.234 230.954 335.091 231.367 335.106C230.557 334.669 229.867 334.036 229.361 333.268C229.96 333.306 230.549 333.441 231.104 333.675C230.2 332.959 229.564 331.958 229.301 330.843L229.829 331.815C229.842 331.182 229.84 330.549 229.877 329.924C230.362 331.046 230.522 332.139 231.326 333.11C232.148 334.119 233.277 334.82 234.538 335.121Z" fill="#FFDCE9"/>
<path d="M34.6881 349.682C32.4632 349.104 30.7772 346.889 30.8103 344.589C30.8442 342.288 32.5942 340.124 34.8349 339.61C37.0764 339.097 39.5927 340.284 40.6231 342.341C39.4135 339.609 40.1677 336.04 42.5906 334.293C45.0135 332.547 48.8981 333.138 50.4389 335.698C52.3756 330.215 58.6703 326.67 64.3591 327.859C70.0479 329.048 74.3992 334.817 73.98 340.617C73.356 339.356 74.5159 337.895 75.7894 337.297C78.74 335.915 82.666 337.238 84.1797 340.125C85.6926 343.011 84.5477 346.996 81.7334 348.638C79.8246 349.752 77.5011 349.805 75.2912 349.827C69.1876 349.891 63.0848 349.954 56.9813 350.016C49.3678 350.095 41.7326 350.173 34.1643 349.34" fill="url(#paint13_linear)"/>
<path d="M51.3241 350.383C49.0992 349.805 47.4132 347.59 47.4463 345.29C47.4802 342.99 49.2302 340.825 51.4709 340.312C53.7124 339.798 56.2287 340.986 57.2591 343.042C56.0495 340.31 56.8037 336.741 59.2266 334.994C61.6495 333.248 65.5341 333.839 67.0749 336.399C69.0116 330.916 75.3063 327.371 80.9951 328.56C86.6839 329.75 91.0352 335.519 90.616 341.318C89.992 340.057 91.1519 338.596 92.4254 337.999C95.376 336.616 99.302 337.939 100.816 340.826C102.329 343.713 101.184 347.697 98.3694 349.339C96.4606 350.453 94.137 350.506 91.9272 350.528C85.8236 350.592 79.7208 350.655 73.6173 350.717C66.0038 350.797 58.3685 350.874 50.8003 350.041" fill="url(#paint14_linear)"/>
<path d="M50.7069 315.229C51.5131 317.642 51.1781 319.928 51.1781 319.928C51.1781 319.928 49.5358 318.303 48.7296 315.89C47.9235 313.477 48.2584 311.19 48.2584 311.19C48.2584 311.19 49.9008 312.816 50.7069 315.229Z" fill="url(#paint15_linear)"/>
<path d="M48.5234 316.768C50.1687 318.708 50.7077 320.955 50.7077 320.955C50.7077 320.955 48.5791 320.058 46.9337 318.118C45.2883 316.178 44.7494 313.93 44.7494 313.93C44.7494 313.93 46.878 314.828 48.5234 316.768Z" fill="url(#paint16_linear)"/>
<path d="M48.0484 321.84C50.2636 323.09 51.5476 325.011 51.5476 325.011C51.5476 325.011 49.2399 324.907 47.0255 323.657C44.8103 322.408 43.5262 320.487 43.5262 320.487C43.5262 320.487 45.8332 320.591 48.0484 321.84Z" fill="url(#paint17_linear)"/>
<path d="M48.9306 325.747C51.4054 326.332 53.172 327.821 53.172 327.821C53.172 327.821 50.9267 328.362 48.4518 327.778C45.977 327.193 44.2104 325.705 44.2104 325.705C44.2104 325.705 46.4557 325.163 48.9306 325.747Z" fill="url(#paint18_linear)"/>
<path d="M49.3189 329.026C51.8216 329.473 53.6679 330.863 53.6679 330.863C53.6679 330.863 51.4557 331.527 48.9523 331.08C46.4496 330.632 44.6033 329.243 44.6033 329.243C44.6033 329.243 46.8154 328.579 49.3189 329.026Z" fill="url(#paint19_linear)"/>
<path d="M50.7061 332.456C53.1794 333.045 54.9437 334.536 54.9437 334.536C54.9437 334.536 52.6969 335.074 50.2236 334.485C47.7503 333.896 45.986 332.404 45.986 332.404C45.986 332.404 48.232 331.867 50.7061 332.456Z" fill="url(#paint20_linear)"/>
<path d="M51.3723 336.442C53.9133 336.526 55.9396 337.635 55.9396 337.635C55.9396 337.635 53.8456 338.61 51.3038 338.527C48.7627 338.443 46.7365 337.334 46.7365 337.334C46.7365 337.334 48.8312 336.358 51.3723 336.442Z" fill="url(#paint21_linear)"/>
<path d="M54.4086 317.291C53.8072 319.762 52.3071 321.52 52.3071 321.52C52.3071 321.52 51.7817 319.269 52.3831 316.797C52.9845 314.325 54.4846 312.568 54.4846 312.568C54.4846 312.568 55.01 314.819 54.4086 317.291Z" fill="url(#paint22_linear)"/>
<path d="M57.2922 320.698C55.9757 322.874 54.0165 324.098 54.0165 324.098C54.0165 324.098 54.1919 321.794 55.5091 319.617C56.8255 317.441 58.7848 316.217 58.7848 316.217C58.7848 316.217 58.6094 318.521 57.2922 320.698Z" fill="url(#paint23_linear)"/>
<path d="M57.9003 324.504C56.3385 326.511 54.249 327.497 54.249 327.497C54.249 327.497 54.6931 325.229 56.2549 323.222C57.8168 321.215 59.9062 320.228 59.9062 320.228C59.9062 320.228 59.4621 322.496 57.9003 324.504Z" fill="url(#paint24_linear)"/>
<path d="M59.4742 327.769C57.7505 329.639 55.5865 330.449 55.5865 330.449C55.5865 330.449 56.2173 328.225 57.9417 326.355C59.6654 324.485 61.8293 323.676 61.8293 323.676C61.8293 323.676 61.1978 325.899 59.4742 327.769Z" fill="url(#paint25_linear)"/>
<path d="M60.4723 331.601C58.5763 333.296 56.3446 333.892 56.3446 333.892C56.3446 333.892 57.1876 331.74 59.0836 330.046C60.9797 328.351 63.2114 327.755 63.2114 327.755C63.2114 327.755 62.3684 329.906 60.4723 331.601Z" fill="url(#paint26_linear)"/>
<path d="M61.2325 334.997C59.3365 336.691 57.1047 337.288 57.1047 337.288C57.1047 337.288 57.9477 335.136 59.8438 333.441C61.7398 331.747 63.9715 331.15 63.9715 331.15C63.9715 331.15 63.1293 333.302 61.2325 334.997Z" fill="url(#paint27_linear)"/>
<path d="M58.0945 342.06L57.9462 342.106L50.1785 316.902L50.3275 316.856L58.0945 342.06Z" fill="url(#paint28_linear)"/>
<path d="M52.0331 322.822L49.3264 319.653L49.4446 319.552L51.9623 322.499L52.7338 319.747L52.8836 319.789L52.0331 322.822Z" fill="url(#paint29_linear)"/>
<path d="M52.9799 325.621L48.8236 323.689L48.8891 323.548L52.9295 325.425L55.1334 322.387L55.2591 322.479L52.9799 325.621Z" fill="url(#paint30_linear)"/>
<path d="M53.7959 328.344L49.6395 326.411L49.705 326.27L53.7454 328.148L55.9493 325.11L56.0758 325.201L53.7959 328.344Z" fill="url(#paint31_linear)"/>
<path d="M54.9219 331.426L50.6858 329.809L50.7415 329.664L54.87 331.239L56.9926 328.504L57.1153 328.599L54.9219 331.426Z" fill="url(#paint32_linear)"/>
<path d="M55.8546 334.759L52.7776 334.078L52.8107 333.926L55.7959 334.586L58.0351 331.897L58.1548 331.997L55.8546 334.759Z" fill="url(#paint33_linear)"/>
<path d="M56.6711 337.759L53.5708 337.279L53.5949 337.124L56.6117 337.593L58.8253 335.095L58.942 335.198L56.6711 337.759Z" fill="url(#paint34_linear)"/>
<path d="M81.3887 331.736C82.9046 337.44 81.3059 342.246 80.6932 343.77L80.9476 343.454C81.7876 342.389 82.6713 341.365 83.5805 340.372C82.8888 334.635 85.5164 329.327 85.5164 329.327C86.2315 334.305 84.7615 338.28 84.0171 339.899C84.6681 339.202 85.332 338.521 86.0034 337.853C86.1622 337.695 86.3233 337.539 86.4836 337.383C86.4633 332.164 89.1444 327.732 89.1444 327.732C89.2475 332.295 87.6337 335.676 86.872 337.011C87.0263 336.864 87.1806 336.717 87.3364 336.572C87.3342 336.571 87.3311 336.57 87.3289 336.569C87.3289 336.569 87.3379 336.564 87.3515 336.559C88.0417 335.918 88.7439 335.298 89.456 334.699C89.4123 329.839 91.9173 325.699 91.9173 325.699C92.0189 330.209 90.3073 333.474 89.6818 334.511C90.3028 333.993 90.9297 333.489 91.5628 333C91.8977 332.743 92.2349 332.49 92.5729 332.242C93.3007 328.898 95.3699 326.548 95.3699 326.548C94.7594 329.519 93.3835 331.391 92.8077 332.069C93.9985 331.203 95.2103 330.395 96.4454 329.677C97.3193 328.812 99.3614 327.106 102.447 326.389C102.447 326.389 99.7708 329.269 96.048 330.176C95.2713 330.651 94.5013 331.163 93.7395 331.701C94.3831 331.462 96.4891 330.861 98.7487 332.153C98.7487 332.153 96.0044 333.148 93.5875 331.81C92.9394 332.272 92.2974 332.751 91.6636 333.244C91.2797 333.545 90.8981 333.852 90.5188 334.163C91.361 333.852 94.1023 333.072 97.0386 334.751C97.0386 334.751 93.4768 336.044 90.3344 334.314C89.5591 334.954 88.7944 335.617 88.0432 336.305C89.3935 335.884 92.4863 335.287 95.7733 337.167C95.7733 337.167 91.4687 338.729 87.6014 336.714C87.1189 337.165 86.6424 337.627 86.1735 338.099C85.6233 338.653 85.0791 339.217 84.5424 339.79C85.6045 339.264 89.6765 337.545 94.417 339.412C94.417 339.412 89.2874 341.83 84.3738 339.97C83.2689 341.157 82.2001 342.39 81.1952 343.68L81.126 343.766C82.4868 342.968 86.7132 340.881 91.979 342.098C91.979 342.098 86.5461 345.295 80.861 344.098L80.6089 344.415C80.5118 344.538 80.4117 344.658 80.3176 344.784L80.0406 345.165L78.9342 346.69C78.554 347.191 78.2251 347.726 77.8774 348.248L76.8439 349.822L76.515 349.641L77.5695 348.055C77.9248 347.529 78.2605 346.99 78.6474 346.486L79.7749 344.951L80.0564 344.568C80.152 344.441 80.2544 344.32 80.353 344.196L80.432 344.098C78.8905 337.952 81.3887 331.736 81.3887 331.736Z" fill="#260C4F"/>
<path d="M85.037 339.546C82.7752 343.402 79.3376 345.103 78.1913 345.584L78.4969 345.553C79.5183 345.438 80.5397 345.368 81.5588 345.329C84.2768 341.9 88.5332 340.486 88.5332 340.486C86.2353 343.524 83.3133 344.851 82.0458 345.312C82.7676 345.291 83.488 345.286 84.2053 345.292C84.3754 345.293 84.5447 345.297 84.7141 345.3C87.5111 342.508 91.3249 341.59 91.3249 341.59C88.9246 344.077 86.2451 345.01 85.1213 345.31C85.2824 345.315 85.4434 345.32 85.6045 345.327C85.6038 345.324 85.603 345.323 85.603 345.321C85.603 345.321 85.6098 345.324 85.6203 345.327C86.3331 345.358 87.0407 345.406 87.7429 345.47C90.3344 342.857 93.8969 342 93.8969 342C91.5237 344.458 88.8554 345.275 87.9642 345.492C88.5739 345.55 89.179 345.619 89.7797 345.699C90.0966 345.743 90.4112 345.791 90.7251 345.84C92.9124 344.45 95.2796 344.312 95.2796 344.312C93.355 345.567 91.6155 345.823 90.9433 345.874C92.0445 346.053 93.1239 346.276 94.1686 346.559C95.0997 346.569 97.1056 346.76 99.1348 348.04C99.1348 348.04 96.1595 348.134 93.6876 346.611C93.0185 346.445 92.3328 346.303 91.6373 346.18C92.1085 346.4 93.5544 347.213 94.0632 349.119C94.0632 349.119 92.0656 348.171 91.4973 346.157C90.9034 346.053 90.3036 345.963 89.7006 345.884C89.3341 345.837 88.966 345.796 88.5965 345.757C89.2129 346.044 91.0931 347.106 91.754 349.582C91.754 349.582 89.1602 348.352 88.4173 345.737C87.6594 345.66 86.8946 345.602 86.1254 345.564C87.0715 346.067 89.0405 347.415 89.7804 350.187C89.7804 350.187 86.6455 348.701 85.6692 345.544C85.1695 345.524 84.6674 345.513 84.1631 345.513C83.5723 345.511 82.9791 345.519 82.3845 345.534C83.2336 345.826 86.3279 347.104 87.849 350.653C87.849 350.653 83.8154 349.178 82.1978 345.54C80.9702 345.577 79.7381 345.658 78.5074 345.804L78.4239 345.813C79.5785 346.121 82.9535 347.286 85.1047 350.77C85.1047 350.77 80.4893 349.547 78.104 345.847L77.7991 345.88C77.681 345.894 77.5628 345.904 77.4454 345.92L77.0924 345.974L75.6818 346.19C75.2099 346.252 74.7462 346.361 74.2803 346.451L72.8826 346.733L72.8051 346.459L74.2209 346.182C74.6935 346.093 75.1625 345.987 75.6397 345.927L77.0668 345.717L77.4236 345.664C77.5425 345.648 77.6622 345.638 77.7811 345.626L77.8759 345.616C80.3613 341.513 85.037 339.546 85.037 339.546Z" fill="url(#paint35_linear)"/>
<path d="M63.3611 321.751C66.7271 326.852 66.7407 332.098 66.6406 333.795L66.7866 333.402C67.2608 332.078 67.7907 330.781 68.3567 329.507C65.7893 324.103 66.621 318.025 66.621 318.025C68.9619 322.677 68.8279 327.064 68.6292 328.899C69.0394 327.999 69.4669 327.112 69.9058 326.236C70.0096 326.028 70.1158 325.822 70.2226 325.616C68.4839 320.498 69.6566 315.263 69.6566 315.263C71.2598 319.709 70.7887 323.56 70.4808 325.122C70.5839 324.927 70.687 324.732 70.7917 324.538C70.7887 324.537 70.7856 324.537 70.7834 324.536C70.7834 324.536 70.7909 324.53 70.8022 324.519C71.2689 323.663 71.7544 322.822 72.2564 321.999C70.614 317.242 71.7092 312.352 71.7092 312.352C73.2944 316.747 72.6884 320.516 72.416 321.741C72.8548 321.028 73.3049 320.326 73.7648 319.637C74.0087 319.274 74.257 318.917 74.5069 318.56C74.1208 315.037 75.3785 312.048 75.3785 312.048C75.7579 315.168 75.0225 317.458 74.6816 318.314C75.5652 317.071 76.4888 315.879 77.465 314.766C78.0386 313.63 79.4815 311.281 82.2747 309.561C82.2747 309.561 80.5962 313.27 77.2392 315.387C76.6333 316.11 76.0454 316.866 75.4749 317.645C76.0281 317.199 77.8978 315.914 80.5412 316.438C80.5412 316.438 78.1748 318.319 75.3612 317.803C74.8773 318.469 74.4046 319.152 73.9447 319.845C73.6669 320.267 73.3937 320.694 73.1235 321.124C73.8483 320.541 76.2825 318.871 79.7178 319.552C79.7178 319.552 76.6468 321.996 72.9918 321.333C72.4416 322.217 71.9087 323.121 71.3983 324.042C72.5861 323.184 75.4252 321.578 79.2715 322.34C79.2715 322.34 75.5599 325.293 71.0988 324.589C70.7736 325.192 70.4575 325.801 70.1526 326.42C69.7944 327.145 69.4466 327.878 69.1079 328.617C69.9773 327.751 73.4095 324.721 78.6783 324.991C78.6783 324.991 74.4384 329.056 69.0018 328.849C68.3085 330.379 67.6642 331.94 67.102 333.539L67.0629 333.647C68.1362 332.415 71.5978 328.973 77.1684 328.432C77.1684 328.432 72.8871 333.362 66.9123 334.061L66.7685 334.454C66.7144 334.607 66.6549 334.759 66.6045 334.913L66.4584 335.378L65.8736 337.24C65.6651 337.857 65.5183 338.491 65.349 339.119L64.8522 341.004L64.4698 340.935L64.9832 339.03C65.1585 338.396 65.3106 337.756 65.5251 337.133L66.1265 335.254L66.277 334.784C66.329 334.628 66.3899 334.476 66.4456 334.322L66.4908 334.199C62.9547 328.678 63.3611 321.751 63.3611 321.751Z" fill="url(#paint36_linear)"/>
<path d="M41.1966 334.813C43.7686 339.878 48.1018 342.446 49.556 343.197L49.1586 343.116C47.8316 342.835 46.5001 342.608 45.1686 342.42C41.9546 337.819 36.5187 335.492 36.5187 335.492C39.2216 339.553 42.9165 341.59 44.531 342.332C43.5864 342.208 42.6433 342.103 41.7024 342.011C41.4796 341.99 41.2576 341.971 41.0348 341.952C37.6522 338.125 32.747 336.471 32.747 336.471C35.6403 339.866 39.0575 341.383 40.4996 341.908C40.2881 341.892 40.0759 341.876 39.8644 341.862C39.8651 341.86 39.8666 341.858 39.8674 341.855C39.8674 341.855 39.8576 341.857 39.844 341.861C38.907 341.801 37.9744 341.763 37.0478 341.746C33.9166 338.169 29.3343 336.623 29.3343 336.623C32.1945 339.979 35.6094 341.353 36.7558 341.742C35.9511 341.73 35.1503 341.733 34.3547 341.749C33.9347 341.759 33.5177 341.775 33.1007 341.793C30.3752 339.779 27.2862 339.285 27.2862 339.285C29.6812 341.096 31.9356 341.65 32.8109 341.806C31.3492 341.877 29.9116 342.002 28.5131 342.208C27.2922 342.093 24.6428 342.053 21.8525 343.353C21.8525 343.353 25.7432 343.876 29.1378 342.337C30.032 342.225 30.945 342.144 31.8693 342.087C31.2295 342.294 29.2507 343.099 28.3904 345.379C28.3904 345.379 31.1053 344.484 32.0552 342.078C32.844 342.032 33.6396 342.002 34.4382 341.988C34.923 341.981 35.41 341.98 35.8985 341.983C35.0615 342.253 32.4888 343.305 31.3703 346.267C31.3703 346.267 34.8951 345.107 36.1356 341.984C37.1366 341.994 38.1445 342.026 39.1576 342.085C37.866 342.576 35.148 343.968 33.8963 347.285C33.8963 347.285 38.1565 345.882 39.7575 342.122C40.4146 342.167 41.0739 342.222 41.7348 342.29C42.5101 342.369 43.2868 342.459 44.0636 342.561C42.9218 342.804 38.7353 343.956 36.3802 348.123C36.3802 348.123 41.8176 346.857 44.3082 342.593C45.9137 342.807 47.5207 343.076 49.1179 343.425L49.2263 343.448C47.6818 343.669 43.1393 344.642 39.9652 348.645C39.9652 348.645 46.1388 347.77 49.6418 343.534L50.0377 343.616C50.1913 343.649 50.3448 343.677 50.4976 343.714L50.9545 343.829L52.7813 344.29C53.3932 344.431 53.9901 344.628 54.5922 344.803L56.3949 345.342L56.5251 345.016L54.6976 344.479C54.0872 344.305 53.4835 344.11 52.8633 343.97L51.0147 343.515L50.5525 343.401C50.3982 343.365 50.2424 343.337 50.0874 343.304L49.9639 343.28C47.1248 337.879 41.1966 334.813 41.1966 334.813Z" fill="#260C4F"/>
<path d="M68.1338 339.076C67.7349 337.509 67.1824 335.959 67.1313 334.344C67.0808 332.728 67.6468 330.974 69.013 330.112C70.3791 329.25 72.5724 329.769 73.0075 331.326C73.1829 331.954 73.2152 332.83 73.8543 332.96C74.4579 333.082 74.8636 332.331 74.8967 331.715C74.9509 330.709 74.6017 329.733 74.3398 328.76C74.0778 327.788 73.9062 326.724 74.2969 325.796C74.6875 324.867 75.8361 324.201 76.7341 324.655C77.069 324.824 77.3392 325.128 77.7043 325.217C78.3177 325.366 78.9108 324.832 79.1359 324.241C79.3602 323.651 79.3444 322.997 79.4919 322.383C80.0098 320.221 82.8587 319.012 84.772 320.141C86.6854 321.27 87.0052 324.351 85.3651 325.849C84.8571 326.314 84.2128 326.633 83.7875 327.175C83.363 327.717 83.2712 328.632 83.847 329.01C84.4303 329.393 85.1965 328.968 85.8935 328.988C87.0527 329.022 87.8197 330.393 87.5878 331.53C87.356 332.667 86.4302 333.535 85.4464 334.15C84.4627 334.765 83.3705 335.213 82.468 335.942C82.1519 336.198 81.8358 336.578 81.9525 336.967C82.1391 337.591 83.0378 337.441 83.6897 337.438C85.247 337.43 86.3828 339.165 86.2225 340.715C86.0621 342.265 84.97 343.563 83.7582 344.543C81.8034 346.123 79.4731 347.115 77.1593 348.04C74.9186 348.936 72.7185 350.244 70.4664 351.035C67.2984 352.146 68.7766 348.395 68.87 346.563C68.9994 344.049 68.7548 341.516 68.1338 339.076Z" fill="url(#paint37_linear)"/>
<path d="M82.0653 340.558C82.1511 340.501 82.0502 340.377 81.9651 340.433C77.6906 343.252 73.8354 346.563 70.5634 350.494C73.4003 345.662 75.9655 340.669 78.2408 335.548C78.2439 335.546 78.2469 335.544 78.2491 335.542C79.8313 334.237 81.5467 333.111 83.3719 332.178C83.463 332.131 83.3983 331.985 83.3072 332.031C81.5587 332.925 79.9095 333.996 78.3823 335.228C78.8746 334.113 79.3548 332.993 79.8192 331.867C80.6796 329.78 81.4917 327.674 82.2564 325.55C82.2911 325.454 82.1413 325.398 82.1067 325.495C81.3073 327.713 80.4545 329.911 79.5513 332.089C79.2999 330.94 79.0477 329.792 78.7963 328.644C78.7745 328.544 78.6164 328.569 78.639 328.67C78.9055 329.887 79.1719 331.103 79.4384 332.319C79.4406 332.328 79.4436 332.335 79.4474 332.342C77.8434 336.189 76.0769 339.969 74.1552 343.669C73.9866 340.587 73.5268 337.527 72.7801 334.532C72.7552 334.432 72.5979 334.458 72.6228 334.557C73.389 337.634 73.8542 340.778 74.0115 343.944C73.4327 345.053 72.8411 346.156 72.2336 347.249C71.1498 349.203 70.0207 351.131 68.8511 353.034C68.7976 353.121 68.9271 353.215 68.9805 353.127C69.3448 352.535 69.7031 351.939 70.0591 351.342C70.0727 351.337 70.0855 351.33 70.0968 351.316C73.4861 347.074 77.5408 343.541 82.0653 340.558Z" fill="url(#paint38_linear)"/>
<path d="M54.1375 348.691C53.9516 348.845 48.2365 351.638 46.4007 349.747L50.332 348.294C50.332 348.294 45.6149 349.605 44.5475 348.539C43.4802 347.471 40.0254 343.83 40.0254 343.83C40.0254 343.83 43.9424 343.373 44.3684 343.116C44.3684 343.116 40.9083 343.393 39.4172 341.142C37.9261 338.891 37.5046 335.229 37.5046 335.229L40.5523 335.969C40.5523 335.969 38.1527 335.02 38.2453 333.498C38.3379 331.976 39.0552 325.841 38.6344 325.286C38.2137 324.731 42.6244 325.43 44.1704 326.58C45.7157 327.729 44.5724 330.294 44.5724 330.294C44.5724 330.294 46.5693 328.249 46.9569 327.377C47.3445 326.504 50.4546 329.472 50.636 329.625C50.8182 329.779 51.0154 334.834 50.6564 335.47C50.2973 336.107 52.8602 332.714 52.8158 331.876C52.7714 331.038 55.4254 334.387 55.3787 336.082C55.3321 337.777 54.4273 341.151 54.4273 341.151C54.4273 341.151 56.4701 339.852 56.7245 338.536C56.9805 337.221 60.1387 343.725 54.1375 348.691Z" fill="url(#paint39_linear)"/>
<path opacity="0.49" d="M56.8163 338.534C56.5619 339.849 54.5191 341.148 54.5191 341.148C54.5191 341.148 55.4238 337.774 55.4705 336.079C55.5172 334.384 52.8624 331.035 52.9076 331.874C52.952 332.712 50.3891 336.104 50.7481 335.468C51.1072 334.831 50.9092 329.776 50.7278 329.623C50.5457 329.469 47.4363 326.502 47.0487 327.374C46.661 328.247 44.6642 330.291 44.6642 330.291C44.6642 330.291 45.8075 327.726 44.2622 326.577C42.9164 325.576 39.3983 324.916 38.7894 325.129L38.7262 325.283C38.7262 325.283 54.1616 340.331 53.7536 348.936C54.0276 348.806 54.2 348.714 54.2293 348.69C60.229 343.723 57.0707 337.218 56.8163 338.534Z" fill="url(#paint40_linear)"/>
<path d="M50.2883 334.945C50.2898 334.865 50.1664 334.876 50.1649 334.955C50.0866 338.936 50.5089 342.865 51.5837 346.694C49.7389 342.747 47.6727 338.904 45.3966 335.19C45.3966 335.187 45.3966 335.184 45.3966 335.181C45.2589 333.593 45.2927 331.997 45.499 330.416C45.5095 330.337 45.3876 330.314 45.377 330.393C45.1791 331.907 45.1384 333.436 45.2544 334.958C44.7576 334.151 44.2518 333.35 43.7354 332.556C42.7788 331.085 41.7875 329.638 40.7653 328.212C40.7187 328.147 40.617 328.219 40.6637 328.284C41.7318 329.772 42.763 331.288 43.7595 332.825C42.9135 332.481 42.0675 332.136 41.2214 331.792C41.1477 331.762 41.0942 331.874 41.1688 331.904C42.0645 332.268 42.9609 332.634 43.8566 332.998C43.8626 333 43.8694 333.002 43.8754 333.003C45.6322 335.726 47.2746 338.522 48.7965 341.383C46.7492 340.134 44.5875 339.081 42.3414 338.24C42.2669 338.212 42.2135 338.324 42.2888 338.352C44.5958 339.216 46.8132 340.303 48.9094 341.597C49.3648 342.456 49.8096 343.321 50.2432 344.192C51.0162 345.747 51.7538 347.32 52.4568 348.908C52.4892 348.98 52.6059 348.939 52.5735 348.866C52.3545 348.372 52.1309 347.879 51.9051 347.388C51.9081 347.378 51.9096 347.366 51.9051 347.353C50.6812 343.314 50.2055 339.159 50.2883 334.945Z" fill="#0C4B4F"/>
<path d="M63.824 323.005C63.0924 324.798 65.4257 330.899 63.9873 331.009C62.5489 331.118 62.1086 324.45 62.1086 324.45C62.1086 324.45 58.7087 325.689 57.6956 326.99C56.6817 328.292 61.1926 335.229 60.6341 336.073C60.0756 336.918 55.8139 331.208 55.6656 328.681C55.6656 328.681 51.2985 335.047 55.1334 338.652C58.9684 342.257 57.3569 343.315 54.8233 340.724C52.2898 338.134 51.23 335.609 51.23 335.609C51.23 335.609 48.5474 342.182 51.5408 346.14C54.5343 350.097 57.2357 349.914 59.0218 348.821C60.8079 347.727 62.2049 345.617 62.2049 345.617C64.6015 349.331 66.4388 353.889 71.5917 352.295C73.8136 351.607 76.0077 350.668 72.9864 349.272C69.9651 347.876 68.809 348.477 67.7161 346.69C66.855 345.282 67.9216 345.004 69.3269 345.631C70.7321 346.259 73.2679 349.762 75.0872 347.931C76.9064 346.101 77.3505 341.992 74.6853 342.351C72.02 342.709 69.2147 343.279 69.8425 341.873C70.4702 340.467 75.9151 343.014 76.433 340.169C76.9508 337.324 74.9713 332.064 74.9713 332.064C74.9713 332.064 69.2079 336.407 68.2106 335.629C66.9092 334.615 74.5197 333.434 73.5969 329.786C72.6741 326.138 72.6741 326.138 72.6741 326.138C72.6741 326.138 68.724 330.959 68.2994 329.767C67.8749 328.575 71.8333 326.492 70.7382 323.792C69.643 321.092 69.2892 320.251 69.2892 320.251C69.2892 320.251 64.5548 321.213 63.824 323.005ZM66.3726 342.79C67.0846 343.301 67.2878 344.237 67.2878 344.237C67.2878 344.237 66.3372 344.342 65.6259 343.831C64.9139 343.319 64.5044 342.672 64.7106 342.384C64.9169 342.096 65.6613 342.278 66.3726 342.79ZM67.0477 337.538C67.9126 337.397 68.7164 337.916 68.7164 337.916C68.7164 337.916 68.1173 338.662 67.2525 338.802C66.3876 338.942 65.6402 338.773 65.5837 338.424C65.5273 338.074 66.1829 337.678 67.0477 337.538ZM60.0229 337.11C60.6408 337.52 60.7959 338.374 60.7959 338.374C60.7959 338.374 59.9491 338.565 59.3319 338.155C58.7147 337.745 58.3685 337.18 58.5589 336.891C58.7493 336.603 59.4049 336.702 60.0229 337.11ZM68.5388 331.277C69.1176 331.243 69.6144 331.677 69.6144 331.677C69.6144 331.677 69.1726 332.166 68.593 332.201C68.0142 332.235 67.5325 332.056 67.5174 331.801C67.5024 331.546 67.96 331.311 68.5388 331.277ZM62.8146 331.875C63.2978 332.196 63.4348 332.841 63.4348 332.841C63.4348 332.841 62.7875 332.967 62.3035 332.647C61.8203 332.326 61.5426 331.894 61.6833 331.68C61.8248 331.467 62.3314 331.555 62.8146 331.875Z" fill="url(#paint41_linear)"/>
<path d="M62.6625 348.813C62.3614 347.727 62.2364 346.598 62.2116 345.472C62.1875 344.345 62.2643 343.215 62.4366 342.1L62.5044 341.682L62.5902 341.268C62.6489 340.992 62.7016 340.714 62.7776 340.442C62.9169 339.895 63.0659 339.353 63.2157 338.811L64.1219 335.564L67.7439 322.571L67.7597 322.575L64.2461 335.599L63.3685 338.856C63.2194 339.398 63.0704 339.94 62.9327 340.482C62.8567 340.751 62.8047 341.027 62.7468 341.3L62.6617 341.712L62.5947 342.126C62.2214 344.329 62.1905 346.614 62.6783 348.808L62.6625 348.813Z" fill="#260C4F"/>
<path d="M62.3051 344.574C61.9047 344.869 61.4801 345.11 61.0368 345.32C60.5935 345.528 60.1313 345.694 59.6579 345.813C59.1852 345.939 58.6959 345.993 58.2097 345.999L57.8447 345.993L57.4819 345.952L57.3012 345.93L57.1236 345.89L56.7683 345.81L57.1258 345.88L57.3042 345.916L57.4856 345.932L57.8477 345.963L58.2105 345.959C58.6929 345.94 59.1754 345.873 59.6391 345.736C60.1035 345.605 60.5551 345.428 60.9856 345.212C61.4147 344.995 61.8316 344.742 62.2057 344.45L62.3051 344.574Z" fill="#260C4F"/>
<path d="M62.7958 340.762C63.6185 340.84 64.4502 340.866 65.2782 340.842C65.6921 340.829 66.1061 340.798 66.5163 340.745C66.9273 340.691 67.3323 340.611 67.7259 340.48C68.514 340.225 69.2772 339.888 70.0261 339.53C70.775 339.169 71.5127 338.784 72.2368 338.375C71.5195 338.796 70.7878 339.192 70.0442 339.566C69.2998 339.937 68.5418 340.287 67.7507 340.556C67.3563 340.694 66.9431 340.783 66.5306 340.843C66.1174 340.904 65.7004 340.942 65.2842 340.962C64.4502 340.999 63.6162 340.986 62.7815 340.921L62.7958 340.762Z" fill="#260C4F"/>
<path d="M62.3366 342.378C61.5561 342.17 60.823 341.85 60.126 341.462C59.9551 341.359 59.7797 341.264 59.6119 341.157L59.1144 340.825L58.6394 340.463C58.4791 340.344 58.3368 340.204 58.1855 340.075L57.962 339.877L57.7527 339.664C57.6158 339.519 57.4682 339.385 57.341 339.232L56.9587 338.775L56.8631 338.66L56.7773 338.538L56.6057 338.294L56.4348 338.05L56.3497 337.928L56.2752 337.799L55.9772 337.283C55.871 337.115 55.7965 336.93 55.7115 336.751L55.4608 336.211L55.7205 336.746C55.8093 336.923 55.8861 337.107 55.9952 337.274L56.3016 337.783L56.3783 337.91L56.4657 338.03L56.6403 338.271L56.8149 338.511L56.9022 338.631L56.9993 338.743L57.3877 339.192C57.5164 339.342 57.6662 339.473 57.8039 339.614L58.0147 339.821L58.2397 340.014C58.3925 340.139 58.5355 340.276 58.6966 340.391L59.1738 340.742L59.6721 341.062C59.84 341.166 60.0146 341.257 60.1854 341.356C60.8787 341.728 61.617 342.033 62.3727 342.221L62.3366 342.378Z" fill="#260C4F"/>
<path d="M63.5688 337.355C63.0878 336.924 62.6746 336.44 62.296 335.928C61.9196 335.415 61.5809 334.874 61.2987 334.305C61.0149 333.737 60.7665 333.149 60.5874 332.541C60.3902 331.937 60.2758 331.312 60.1802 330.687C60.2893 331.31 60.4165 331.931 60.6258 332.529C60.817 333.131 61.0766 333.71 61.3702 334.268C61.6622 334.826 62.0092 335.356 62.3923 335.855C62.7754 336.353 63.2 336.828 63.6711 337.231L63.5688 337.355Z" fill="#260C4F"/>
<path d="M64.2959 335.248C64.9274 335.086 65.5544 334.884 66.1693 334.658C66.7843 334.431 67.3887 334.172 67.9735 333.876C68.5569 333.577 69.1229 333.239 69.6362 332.83C70.1458 332.421 70.6117 331.935 70.8992 331.34C70.6237 331.941 70.1654 332.44 69.6611 332.861C69.153 333.283 68.5907 333.634 68.0097 333.947C67.4271 334.257 66.8249 334.529 66.2107 334.77C65.5958 335.01 64.9733 335.226 64.3343 335.404L64.2959 335.248Z" fill="#260C4F"/>
<path d="M65.1554 314.034C65.7723 314.034 66.2724 313.534 66.2724 312.916C66.2724 312.299 65.7723 311.799 65.1554 311.799C64.5385 311.799 64.0385 312.299 64.0385 312.916C64.0385 313.534 64.5385 314.034 65.1554 314.034Z" fill="url(#paint42_linear)"/>
<path d="M89.4899 318.234C89.7086 318.234 89.8858 318.057 89.8858 317.838C89.8858 317.619 89.7086 317.442 89.4899 317.442C89.2713 317.442 89.094 317.619 89.094 317.838C89.094 318.057 89.2713 318.234 89.4899 318.234Z" fill="#260C4F"/>
<path d="M38.7497 314.349C38.9683 314.349 39.1456 314.172 39.1456 313.953C39.1456 313.734 38.9683 313.557 38.7497 313.557C38.531 313.557 38.3538 313.734 38.3538 313.953C38.3538 314.172 38.531 314.349 38.7497 314.349Z" fill="#260C4F"/>
<path d="M13.8966 342.584C14.1153 342.584 14.2926 342.406 14.2926 342.188C14.2926 341.969 14.1153 341.792 13.8966 341.792C13.678 341.792 13.5007 341.969 13.5007 342.188C13.5007 342.406 13.678 342.584 13.8966 342.584Z" fill="#260C4F"/>
<path d="M110.977 345.951C111.196 345.951 111.373 345.774 111.373 345.555C111.373 345.336 111.196 345.159 110.977 345.159C110.758 345.159 110.581 345.336 110.581 345.555C110.581 345.774 110.758 345.951 110.977 345.951Z" fill="#260C4F"/>
<path d="M102.434 334.687C102.869 334.687 103.222 334.334 103.222 333.898C103.222 333.463 102.869 333.11 102.434 333.11C101.999 333.11 101.646 333.463 101.646 333.898C101.646 334.334 101.999 334.687 102.434 334.687Z" fill="url(#paint43_linear)"/>
<path d="M31.5005 328.47C31.9357 328.47 32.2885 328.117 32.2885 327.682C32.2885 327.246 31.9357 326.893 31.5005 326.893C31.0652 326.893 30.7124 327.246 30.7124 327.682C30.7124 328.117 31.0652 328.47 31.5005 328.47Z" fill="url(#paint44_linear)"/>
<path d="M348.892 329.261C346.369 328.605 344.457 326.094 344.495 323.486C344.534 320.878 346.518 318.424 349.059 317.842C351.6 317.26 354.454 318.606 355.622 320.938C354.251 317.84 355.105 313.793 357.853 311.813C360.6 309.833 365.005 310.503 366.751 313.405C368.947 307.189 376.084 303.169 382.533 304.517C388.983 305.866 393.916 312.406 393.441 318.982C392.734 317.552 394.049 315.895 395.492 315.218C398.837 313.65 403.289 315.15 405.005 318.423C406.72 321.696 405.423 326.213 402.231 328.075C400.066 329.338 397.432 329.398 394.926 329.424C388.007 329.496 381.087 329.567 374.167 329.639C365.535 329.728 356.879 329.816 348.297 328.872" fill="url(#paint45_linear)"/>
<path d="M367.054 290.198C367.969 292.934 367.589 295.527 367.589 295.527C367.589 295.527 365.727 293.684 364.813 290.948C363.898 288.213 364.279 285.62 364.279 285.62C364.279 285.62 366.14 287.463 367.054 290.198Z" fill="url(#paint46_linear)"/>
<path d="M364.578 291.943C366.443 294.143 367.054 296.691 367.054 296.691C367.054 296.691 364.641 295.674 362.776 293.474C360.911 291.275 360.3 288.726 360.3 288.726C360.3 288.726 362.713 289.744 364.578 291.943Z" fill="url(#paint47_linear)"/>
<path d="M364.04 297.694C366.552 299.111 368.007 301.289 368.007 301.289C368.007 301.289 365.39 301.171 362.879 299.755C360.368 298.338 358.913 296.16 358.913 296.16C358.913 296.16 361.529 296.278 364.04 297.694Z" fill="url(#paint48_linear)"/>
<path d="M365.04 302.124C367.846 302.787 369.849 304.475 369.849 304.475C369.849 304.475 367.302 305.089 364.497 304.426C361.691 303.763 359.688 302.075 359.688 302.075C359.688 302.075 362.234 301.461 365.04 302.124Z" fill="url(#paint49_linear)"/>
<path d="M365.481 305.842C368.318 306.349 370.411 307.924 370.411 307.924C370.411 307.924 367.903 308.677 365.065 308.17C362.228 307.663 360.134 306.087 360.134 306.087C360.134 306.087 362.642 305.334 365.481 305.842Z" fill="url(#paint50_linear)"/>
<path d="M367.053 309.73C369.857 310.397 371.857 312.089 371.857 312.089C371.857 312.089 369.31 312.698 366.506 312.031C363.701 311.363 361.701 309.672 361.701 309.672C361.701 309.672 364.248 309.063 367.053 309.73Z" fill="url(#paint51_linear)"/>
<path d="M367.809 314.249C370.69 314.343 372.987 315.602 372.987 315.602C372.987 315.602 370.612 316.708 367.731 316.613C364.85 316.519 362.552 315.26 362.552 315.26C362.552 315.26 364.927 314.155 367.809 314.249Z" fill="url(#paint52_linear)"/>
<path d="M371.251 292.537C370.569 295.339 368.868 297.332 368.868 297.332C368.868 297.332 368.272 294.78 368.954 291.978C369.636 289.175 371.337 287.183 371.337 287.183C371.337 287.183 371.933 289.733 371.251 292.537Z" fill="url(#paint53_linear)"/>
<path d="M374.52 296.399C373.028 298.866 370.807 300.254 370.807 300.254C370.807 300.254 371.006 297.642 372.499 295.174C373.991 292.706 376.213 291.318 376.213 291.318C376.213 291.318 376.014 293.932 374.52 296.399Z" fill="url(#paint54_linear)"/>
<path d="M375.21 300.714C373.439 302.99 371.07 304.109 371.07 304.109C371.07 304.109 371.574 301.537 373.345 299.262C375.116 296.986 377.484 295.867 377.484 295.867C377.484 295.867 376.981 298.438 375.21 300.714Z" fill="url(#paint55_linear)"/>
<path d="M376.994 304.417C375.04 306.537 372.587 307.454 372.587 307.454C372.587 307.454 373.302 304.933 375.256 302.813C377.211 300.692 379.664 299.776 379.664 299.776C379.664 299.776 378.948 302.296 376.994 304.417Z" fill="url(#paint56_linear)"/>
<path d="M378.126 308.761C375.975 310.682 373.446 311.358 373.446 311.358C373.446 311.358 374.401 308.919 376.551 306.997C378.702 305.076 381.231 304.399 381.231 304.399C381.231 304.399 380.275 306.84 378.126 308.761Z" fill="url(#paint57_linear)"/>
<path d="M378.988 312.611C376.838 314.533 374.308 315.209 374.308 315.209C374.308 315.209 375.264 312.77 377.414 310.848C379.564 308.926 382.094 308.25 382.094 308.25C382.094 308.25 381.138 310.69 378.988 312.611Z" fill="url(#paint58_linear)"/>
<path d="M375.43 320.619L375.262 320.671L366.455 292.095L366.624 292.043L375.43 320.619Z" fill="url(#paint59_linear)"/>
<path d="M368.558 298.807L365.489 295.215L365.623 295.101L368.478 298.441L369.352 295.321L369.522 295.369L368.558 298.807Z" fill="url(#paint60_linear)"/>
<path d="M369.631 301.981L364.919 299.79L364.993 299.63L369.574 301.76L372.073 298.315L372.216 298.418L369.631 301.981Z" fill="url(#paint61_linear)"/>
<path d="M370.557 305.067L365.844 302.876L365.919 302.717L370.499 304.846L372.998 301.401L373.141 301.505L370.557 305.067Z" fill="url(#paint62_linear)"/>
<path d="M371.833 308.563L367.03 306.729L367.094 306.564L371.774 308.351L374.18 305.25L374.32 305.357L371.833 308.563Z" fill="url(#paint63_linear)"/>
<path d="M372.89 312.341L369.401 311.569L369.44 311.396L372.824 312.146L375.363 309.097L375.499 309.21L372.89 312.341Z" fill="url(#paint64_linear)"/>
<path d="M373.817 315.744L370.301 315.198L370.328 315.024L373.749 315.554L376.259 312.723L376.391 312.841L373.817 315.744Z" fill="url(#paint65_linear)"/>
<path d="M387.323 305.976C389.818 312.185 388.684 317.815 388.205 319.614L388.447 319.224C389.245 317.908 390.097 316.633 390.984 315.391C389.412 309.031 391.635 302.693 391.635 302.693C393.128 308.196 392.024 312.873 391.41 314.797C392.047 313.923 392.699 313.064 393.362 312.22C393.519 312.02 393.678 311.822 393.837 311.625C393.092 305.755 395.495 300.396 395.495 300.396C396.242 305.516 394.894 309.545 394.222 311.152C394.375 310.965 394.528 310.779 394.683 310.594C394.68 310.593 394.677 310.592 394.674 310.59C394.674 310.59 394.684 310.584 394.698 310.576C395.386 309.759 396.091 308.965 396.81 308.191C396.089 302.728 398.335 297.722 398.335 297.722C399.073 302.784 397.598 306.694 397.038 307.949C397.665 307.28 398.301 306.626 398.945 305.988C399.286 305.652 399.631 305.322 399.976 304.995C400.333 301.132 402.336 298.2 402.336 298.2C402.06 301.629 400.77 303.925 400.217 304.769C401.437 303.628 402.689 302.552 403.979 301.572C404.843 300.479 406.905 298.275 410.277 297.042C410.277 297.042 407.665 300.653 403.601 302.188C402.793 302.83 401.997 303.513 401.214 304.224C401.906 303.866 404.192 302.898 406.914 304.039C406.914 304.039 403.963 305.538 401.059 304.368C400.393 304.977 399.737 305.605 399.092 306.248C398.701 306.64 398.315 307.039 397.931 307.441C398.836 306.974 401.813 305.717 405.349 307.2C405.349 307.2 401.52 309.148 397.744 307.636C396.96 308.465 396.192 309.317 395.442 310.194C396.904 309.534 400.301 308.433 404.26 310.093C404.26 310.093 399.632 312.448 395.001 310.715C394.521 311.29 394.048 311.875 393.586 312.472C393.043 313.171 392.509 313.881 391.984 314.6C393.106 313.861 397.451 311.363 403.043 312.807C403.043 312.807 397.606 316.239 391.819 314.826C390.741 316.316 389.708 317.85 388.755 319.441L388.69 319.548C390.111 318.461 394.577 315.528 400.672 316.167C400.672 316.167 395 320.517 388.437 319.958L388.197 320.349C388.106 320.501 388.009 320.651 387.921 320.805L387.662 321.273L386.628 323.142C386.27 323.758 385.973 324.406 385.654 325.042L384.709 326.956L384.313 326.798L385.281 324.867C385.607 324.225 385.911 323.572 386.276 322.951L387.333 321.067L387.597 320.596C387.687 320.44 387.786 320.291 387.88 320.137L387.955 320.016C385.372 313.317 387.323 305.976 387.323 305.976Z" fill="#260C4F"/>
<path d="M398.627 315.453C396.062 319.825 392.165 321.753 390.865 322.298L391.211 322.263C392.369 322.133 393.527 322.053 394.683 322.009C397.764 318.121 402.59 316.519 402.59 316.519C399.985 319.963 396.673 321.467 395.235 321.99C396.054 321.966 396.87 321.96 397.684 321.967C397.876 321.968 398.068 321.972 398.26 321.976C401.432 318.811 405.755 317.77 405.755 317.77C403.034 320.589 399.997 321.646 398.722 321.987C398.905 321.993 399.088 321.998 399.27 322.006C399.269 322.004 399.269 322.002 399.268 321.999C399.268 321.999 399.276 322.002 399.287 322.007C400.095 322.041 400.897 322.096 401.694 322.169C404.632 319.207 408.671 318.234 408.671 318.234C405.981 321.022 402.955 321.948 401.944 322.193C402.635 322.259 403.322 322.337 404.003 322.429C404.362 322.478 404.72 322.532 405.075 322.587C407.554 321.012 410.238 320.856 410.238 320.856C408.056 322.279 406.083 322.569 405.322 322.627C406.57 322.831 407.794 323.083 408.979 323.404C410.034 323.416 412.309 323.631 414.61 325.083C414.61 325.083 411.236 325.189 408.434 323.463C407.675 323.275 406.898 323.114 406.109 322.974C406.643 323.223 408.283 324.146 408.859 326.306C408.859 326.306 406.595 325.232 405.95 322.947C405.277 322.83 404.597 322.727 403.913 322.638C403.497 322.585 403.08 322.538 402.661 322.494C403.36 322.82 405.492 324.024 406.241 326.831C406.241 326.831 403.3 325.437 402.457 322.472C401.597 322.386 400.731 322.319 399.858 322.276C400.931 322.847 403.163 324.374 404.002 327.517C404.002 327.517 400.448 325.833 399.342 322.252C398.775 322.231 398.206 322.218 397.634 322.217C396.964 322.215 396.291 322.224 395.617 322.242C396.579 322.572 400.088 324.021 401.813 328.045C401.813 328.045 397.239 326.373 395.405 322.248C394.013 322.291 392.616 322.382 391.222 322.548L391.127 322.558C392.436 322.908 396.262 324.227 398.701 328.179C398.701 328.179 393.468 326.792 390.764 322.597L390.419 322.634C390.285 322.649 390.151 322.661 390.017 322.679L389.618 322.74L388.019 322.986C387.484 323.056 386.958 323.179 386.43 323.282L384.846 323.601L384.758 323.291L386.362 322.977C386.898 322.876 387.43 322.755 387.971 322.687L389.588 322.448L389.993 322.389C390.127 322.371 390.263 322.36 390.398 322.345L390.506 322.334C393.325 317.683 398.627 315.453 398.627 315.453Z" fill="url(#paint66_linear)"/>
<path d="M356.271 312.403C359.187 318.145 364.101 321.057 365.748 321.908L365.298 321.817C363.794 321.497 362.284 321.24 360.774 321.028C357.13 315.811 350.967 313.173 350.967 313.173C354.031 317.777 358.221 320.086 360.052 320.928C358.982 320.787 357.912 320.668 356.846 320.564C356.593 320.54 356.341 320.519 356.089 320.497C352.254 316.159 346.693 314.283 346.693 314.283C349.973 318.133 353.847 319.853 355.483 320.448C355.242 320.43 355.002 320.411 354.762 320.395C354.763 320.392 354.765 320.39 354.765 320.387C354.765 320.387 354.755 320.39 354.739 320.394C353.677 320.325 352.619 320.283 351.569 320.263C348.019 316.208 342.823 314.455 342.823 314.455C346.066 318.261 349.938 319.818 351.237 320.259C350.325 320.246 349.417 320.248 348.516 320.267C348.04 320.278 347.567 320.296 347.094 320.316C344.004 318.033 340.502 317.472 340.502 317.472C343.217 319.526 345.774 320.153 346.766 320.33C345.109 320.41 343.479 320.553 341.894 320.786C340.509 320.656 337.505 320.61 334.342 322.084C334.342 322.084 338.753 322.677 342.602 320.933C343.616 320.805 344.651 320.714 345.699 320.649C344.974 320.883 342.731 321.796 341.755 324.381C341.755 324.381 344.833 323.365 345.91 320.637C346.804 320.585 347.706 320.552 348.612 320.536C349.161 320.528 349.714 320.527 350.268 320.53C349.319 320.836 346.402 322.028 345.135 325.387C345.135 325.387 349.131 324.072 350.537 320.531C351.672 320.542 352.815 320.58 353.964 320.646C352.5 321.202 349.417 322.78 347.998 326.541C347.998 326.541 352.828 324.951 354.643 320.688C355.388 320.738 356.135 320.801 356.885 320.879C357.763 320.968 358.644 321.071 359.525 321.186C358.231 321.461 353.484 322.767 350.814 327.492C350.814 327.492 356.979 326.057 359.802 321.221C361.622 321.465 363.444 321.769 365.255 322.165L365.378 322.19C363.627 322.441 358.478 323.545 354.878 328.083C354.878 328.083 361.878 327.091 365.849 322.288L366.299 322.382C366.473 322.419 366.647 322.451 366.82 322.492L367.337 322.623L369.408 323.145C370.102 323.305 370.778 323.528 371.461 323.728L373.505 324.339L373.652 323.969L371.581 323.361C370.889 323.163 370.204 322.941 369.501 322.782L367.405 322.267L366.881 322.138C366.707 322.097 366.53 322.065 366.354 322.029L366.214 322C362.993 315.879 356.271 312.403 356.271 312.403Z" fill="#260C4F"/>
<path d="M370.944 328.138C370.733 328.311 364.253 331.478 362.171 329.335L366.629 327.687C366.629 327.687 361.28 329.174 360.071 327.964C358.861 326.755 354.943 322.626 354.943 322.626C354.943 322.626 359.384 322.108 359.867 321.817C359.867 321.817 355.944 322.131 354.254 319.579C352.563 317.027 352.085 312.875 352.085 312.875L355.541 313.714C355.541 313.714 352.82 312.638 352.925 310.913C353.031 309.187 353.844 302.231 353.367 301.602C352.891 300.972 357.892 301.766 359.644 303.069C361.396 304.372 360.099 307.28 360.099 307.28C360.099 307.28 362.363 304.962 362.803 303.973C363.243 302.984 366.768 306.347 366.974 306.522C367.181 306.696 367.405 312.428 366.998 313.149C366.59 313.87 369.497 310.024 369.446 309.074C369.396 308.124 372.405 311.92 372.352 313.842C372.3 315.764 371.274 319.589 371.274 319.589C371.274 319.589 373.59 318.116 373.878 316.624C374.166 315.131 377.748 322.506 370.944 328.138Z" fill="url(#paint67_linear)"/>
<path opacity="0.49" d="M373.98 316.621C373.691 318.113 371.376 319.585 371.376 319.585C371.376 319.585 372.402 315.76 372.455 313.838C372.507 311.916 369.498 308.12 369.549 309.07C369.599 310.02 366.693 313.866 367.1 313.145C367.507 312.424 367.283 306.692 367.077 306.519C366.871 306.345 363.345 302.98 362.905 303.97C362.466 304.96 360.202 307.277 360.202 307.277C360.202 307.277 361.499 304.368 359.746 303.065C358.221 301.93 354.231 301.183 353.542 301.424L353.47 301.598C353.47 301.598 370.971 318.66 370.508 328.415C370.819 328.268 371.014 328.163 371.048 328.136C377.851 322.504 374.269 315.129 373.98 316.621Z" fill="url(#paint68_linear)"/>
<path d="M366.579 312.552C366.581 312.462 366.441 312.473 366.439 312.562C366.35 317.076 366.829 321.531 368.048 325.872C365.956 321.397 363.614 317.041 361.033 312.83C361.033 312.827 361.033 312.824 361.033 312.821C360.877 311.02 360.915 309.21 361.149 307.418C361.161 307.328 361.023 307.303 361.011 307.392C360.787 309.109 360.74 310.842 360.872 312.568C360.309 311.653 359.735 310.745 359.149 309.845C358.065 308.178 356.941 306.536 355.782 304.92C355.729 304.846 355.614 304.927 355.667 305.001C356.878 306.69 358.048 308.407 359.177 310.15C358.218 309.759 357.258 309.369 356.299 308.978C356.216 308.944 356.155 309.072 356.24 309.106C357.256 309.519 358.271 309.933 359.287 310.347C359.295 310.35 359.302 310.351 359.308 310.352C361.3 313.439 363.162 316.611 364.887 319.854C362.566 318.438 360.115 317.244 357.569 316.29C357.485 316.259 357.424 316.386 357.509 316.418C360.124 317.397 362.638 318.629 365.015 320.096C365.531 321.071 366.036 322.051 366.527 323.038C367.404 324.802 368.24 326.585 369.037 328.386C369.073 328.468 369.206 328.421 369.169 328.338C368.921 327.778 368.668 327.22 368.412 326.662C368.416 326.65 368.417 326.638 368.412 326.623C367.025 322.041 366.485 317.33 366.579 312.552Z" fill="#0C4B4F"/>
<path d="M377.321 298.389C376.491 300.421 379.137 307.339 377.506 307.462C375.876 307.587 375.376 300.026 375.376 300.026C375.376 300.026 371.521 301.431 370.372 302.906C369.223 304.382 374.337 312.248 373.703 313.205C373.07 314.162 368.238 307.688 368.07 304.824C368.07 304.824 363.119 312.041 367.467 316.129C371.814 320.215 369.988 321.415 367.115 318.478C364.243 315.541 363.041 312.679 363.041 312.679C363.041 312.679 359.999 320.13 363.394 324.618C366.788 329.106 369.85 328.898 371.875 327.658C373.9 326.419 375.484 324.026 375.484 324.026C378.201 328.237 380.285 333.405 386.127 331.597C388.646 330.818 391.133 329.752 387.708 328.17C384.282 326.587 382.972 327.268 381.733 325.242C380.757 323.646 381.966 323.33 383.559 324.043C385.153 324.754 388.028 328.726 390.09 326.651C392.153 324.575 392.656 319.917 389.634 320.324C386.612 320.73 383.432 321.376 384.143 319.782C384.854 318.188 391.028 321.075 391.616 317.85C392.203 314.625 389.958 308.661 389.958 308.661C389.958 308.661 383.424 313.585 382.293 312.703C380.818 311.553 389.446 310.215 388.4 306.079C387.353 301.943 387.353 301.943 387.353 301.943C387.353 301.943 382.874 307.408 382.393 306.056C381.912 304.705 386.4 302.343 385.158 299.282C383.916 296.221 383.515 295.267 383.515 295.267C383.515 295.267 378.15 296.356 377.321 298.389ZM380.211 320.82C381.018 321.4 381.249 322.459 381.249 322.459C381.249 322.459 380.171 322.579 379.364 321.999C378.558 321.419 378.092 320.685 378.326 320.36C378.561 320.034 379.404 320.239 380.211 320.82ZM380.977 314.864C381.957 314.705 382.869 315.293 382.869 315.293C382.869 315.293 382.19 316.138 381.209 316.297C380.228 316.456 379.381 316.265 379.317 315.869C379.252 315.473 379.996 315.024 380.977 314.864ZM373.012 314.381C373.712 314.845 373.888 315.813 373.888 315.813C373.888 315.813 372.928 316.029 372.227 315.565C371.527 315.101 371.134 314.459 371.351 314.132C371.568 313.805 372.311 313.917 373.012 314.381ZM382.667 307.767C383.324 307.728 383.887 308.22 383.887 308.22C383.887 308.22 383.385 308.775 382.729 308.814C382.073 308.853 381.526 308.65 381.51 308.361C381.492 308.072 382.011 307.806 382.667 307.767ZM376.177 308.445C376.725 308.808 376.88 309.54 376.88 309.54C376.88 309.54 376.146 309.683 375.597 309.32C375.049 308.956 374.734 308.466 374.894 308.224C375.054 307.983 375.629 308.082 376.177 308.445Z" fill="url(#paint69_linear)"/>
<path d="M376.005 327.648C375.664 326.417 375.522 325.137 375.494 323.86C375.466 322.582 375.553 321.302 375.749 320.037L375.826 319.563L375.923 319.094C375.99 318.781 376.049 318.466 376.136 318.158C376.294 317.537 376.463 316.923 376.632 316.309L377.661 312.627L381.767 297.896L381.785 297.901L377.801 312.666L376.806 316.358C376.636 316.973 376.468 317.587 376.312 318.202C376.226 318.508 376.167 318.819 376.101 319.13L376.005 319.597L375.929 320.067C375.506 322.565 375.47 325.155 376.023 327.643L376.005 327.648Z" fill="#260C4F"/>
<path d="M375.599 322.842C375.145 323.176 374.663 323.449 374.161 323.687C373.659 323.922 373.135 324.11 372.598 324.245C372.062 324.388 371.507 324.45 370.956 324.456L370.542 324.449L370.131 324.402L369.926 324.377L369.724 324.331L369.322 324.24L369.726 324.32L369.929 324.36L370.134 324.379L370.545 324.414L370.956 324.41C371.504 324.388 372.05 324.311 372.575 324.156C373.102 324.007 373.613 323.807 374.102 323.562C374.588 323.316 375.061 323.029 375.485 322.698L375.599 322.842Z" fill="#260C4F"/>
<path d="M376.156 318.52C377.089 318.608 378.032 318.638 378.97 318.61C379.44 318.595 379.909 318.56 380.374 318.5C380.84 318.44 381.299 318.349 381.745 318.201C382.64 317.912 383.504 317.53 384.353 317.123C385.203 316.714 386.039 316.278 386.86 315.813C386.047 316.29 385.217 316.741 384.374 317.164C383.529 317.585 382.67 317.981 381.774 318.287C381.327 318.444 380.859 318.545 380.391 318.612C379.922 318.681 379.45 318.724 378.977 318.746C378.031 318.789 377.086 318.775 376.139 318.7L376.156 318.52Z" fill="#260C4F"/>
<path d="M375.635 320.352C374.75 320.116 373.919 319.753 373.128 319.313C372.934 319.197 372.736 319.089 372.546 318.966L371.982 318.59L371.443 318.18C371.262 318.045 371.101 317.886 370.928 317.74L370.675 317.516L370.438 317.274C370.283 317.11 370.115 316.958 369.971 316.784L369.537 316.265L369.429 316.136L369.332 315.997L369.138 315.721L368.944 315.445L368.847 315.306L368.763 315.16L368.425 314.575C368.305 314.385 368.22 314.175 368.123 313.972L367.839 313.36L368.134 313.967C368.234 314.168 368.321 314.376 368.445 314.564L368.792 315.142L368.879 315.286L368.977 315.423L369.175 315.695L369.373 315.967L369.472 316.104L369.582 316.231L370.022 316.74C370.168 316.91 370.338 317.058 370.494 317.218L370.733 317.454L370.989 317.672C371.162 317.814 371.324 317.969 371.506 318.099L372.048 318.497L372.612 318.859C372.802 318.977 373.001 319.081 373.195 319.192C373.981 319.614 374.818 319.961 375.675 320.173L375.635 320.352Z" fill="#260C4F"/>
<path d="M377.032 314.658C376.486 314.169 376.018 313.62 375.589 313.039C375.162 312.458 374.778 311.844 374.458 311.198C374.136 310.555 373.856 309.889 373.652 309.199C373.429 308.514 373.299 307.806 373.19 307.096C373.314 307.803 373.458 308.508 373.695 309.185C373.912 309.868 374.206 310.524 374.539 311.156C374.87 311.79 375.263 312.391 375.698 312.956C376.132 313.52 376.614 314.058 377.148 314.517L377.032 314.658Z" fill="#260C4F"/>
<path d="M377.856 312.269C378.573 312.085 379.283 311.855 379.98 311.599C380.678 311.341 381.363 311.048 382.026 310.713C382.688 310.374 383.329 309.99 383.912 309.527C384.49 309.064 385.017 308.513 385.344 307.838C385.032 308.519 384.512 309.084 383.94 309.563C383.364 310.04 382.727 310.439 382.068 310.794C381.408 311.146 380.725 311.454 380.029 311.727C379.332 312 378.626 312.244 377.901 312.446L377.856 312.269Z" fill="#260C4F"/>
<path d="M383.435 288.844C384.134 288.844 384.701 288.277 384.701 287.577C384.701 286.878 384.134 286.311 383.435 286.311C382.736 286.311 382.169 286.878 382.169 287.577C382.169 288.277 382.736 288.844 383.435 288.844Z" fill="url(#paint70_linear)"/>
<path d="M401.633 290.963C401.88 290.963 402.081 290.762 402.081 290.514C402.081 290.266 401.88 290.065 401.633 290.065C401.385 290.065 401.184 290.266 401.184 290.514C401.184 290.762 401.385 290.963 401.633 290.963Z" fill="#260C4F"/>
<path d="M353.497 289.2C353.745 289.2 353.946 288.999 353.946 288.752C353.946 288.504 353.745 288.303 353.497 288.303C353.249 288.303 353.048 288.504 353.048 288.752C353.048 288.999 353.249 289.2 353.497 289.2Z" fill="#260C4F"/>
<path d="M325.319 321.213C325.567 321.213 325.768 321.012 325.768 320.764C325.768 320.516 325.567 320.315 325.319 320.315C325.071 320.315 324.871 320.516 324.871 320.764C324.871 321.012 325.071 321.213 325.319 321.213Z" fill="#260C4F"/>
<path d="M428.049 321.213C428.297 321.213 428.498 321.012 428.498 320.764C428.498 320.516 428.297 320.315 428.049 320.315C427.801 320.315 427.601 320.516 427.601 320.764C427.601 321.012 427.801 321.213 428.049 321.213Z" fill="#260C4F"/>
<path d="M411.906 314.609C412.4 314.609 412.8 314.209 412.8 313.715C412.8 313.222 412.4 312.821 411.906 312.821C411.413 312.821 411.013 313.222 411.013 313.715C411.013 314.209 411.413 314.609 411.906 314.609Z" fill="url(#paint71_linear)"/>
<path d="M345.278 305.211C345.772 305.211 346.172 304.811 346.172 304.317C346.172 303.824 345.772 303.423 345.278 303.423C344.785 303.423 344.385 303.824 344.385 304.317C344.385 304.811 344.785 305.211 345.278 305.211Z" fill="url(#paint72_linear)"/>
</g>
<defs>
<linearGradient id="paint0_linear" x1="406.796" y1="178.642" x2="7.84998" y2="178.642" gradientUnits="userSpaceOnUse">
<stop stop-color="#02CCFC"/>
<stop offset="1" stop-color="#9CECFF"/>
</linearGradient>
<linearGradient id="paint1_linear" x1="450.998" y1="349.575" x2="0.997803" y2="349.575" gradientUnits="userSpaceOnUse">
<stop stop-color="#6BD55E"/>
<stop offset="0.1877" stop-color="#5FBE48"/>
<stop offset="0.5369" stop-color="#4B9A23"/>
<stop offset="0.8201" stop-color="#3E830D"/>
<stop offset="1" stop-color="#3A7B05"/>
</linearGradient>
<linearGradient id="paint2_linear" x1="182.996" y1="291.486" x2="340.49" y2="291.486" gradientUnits="userSpaceOnUse">
<stop stop-color="#2F2F06"/>
<stop offset="0.6259" stop-color="#528932"/>
<stop offset="0.9895" stop-color="#65B94A"/>
</linearGradient>
<linearGradient id="paint3_linear" x1="32.513" y1="295.413" x2="248.794" y2="295.413" gradientUnits="userSpaceOnUse">
<stop stop-color="#2F2F06"/>
<stop offset="0.6259" stop-color="#528932"/>
<stop offset="0.9895" stop-color="#65B94A"/>
</linearGradient>
<linearGradient id="paint4_linear" x1="280.213" y1="250.356" x2="329.526" y2="250.356" gradientUnits="userSpaceOnUse">
<stop stop-color="#2F2F06"/>
<stop offset="0.6259" stop-color="#528932"/>
<stop offset="0.9895" stop-color="#65B94A"/>
</linearGradient>
<linearGradient id="paint5_linear" x1="35.5666" y1="266.654" x2="96.4561" y2="266.654" gradientUnits="userSpaceOnUse">
<stop stop-color="#3A7B05"/>
<stop offset="1" stop-color="#6BD55E"/>
</linearGradient>
<linearGradient id="paint6_linear" x1="87.0371" y1="268.056" x2="92.7093" y2="268.056" gradientUnits="userSpaceOnUse">
<stop stop-color="#65B94A"/>
<stop offset="0.9895" stop-color="#65B94A"/>
</linearGradient>
<linearGradient id="paint7_linear" x1="318.452" y1="219.385" x2="434.395" y2="219.385" gradientUnits="userSpaceOnUse">
<stop stop-color="#2F2F06"/>
<stop offset="0.6259" stop-color="#528932"/>
<stop offset="0.9895" stop-color="#65B94A"/>
</linearGradient>
<linearGradient id="paint8_linear" x1="418.676" y1="219.384" x2="427.601" y2="219.384" gradientUnits="userSpaceOnUse">
<stop stop-color="#65B94A"/>
<stop offset="0.9895" stop-color="#65B94A"/>
</linearGradient>
<linearGradient id="paint9_linear" x1="420.024" y1="233.18" x2="427.755" y2="241.884" gradientUnits="userSpaceOnUse">
<stop stop-color="#65B94A"/>
<stop offset="0.9895" stop-color="#65B94A"/>
</linearGradient>
<linearGradient id="paint10_linear" x1="87.2794" y1="279.963" x2="90.9388" y2="282.529" gradientUnits="userSpaceOnUse">
<stop stop-color="#65B94A"/>
<stop offset="0.9895" stop-color="#65B94A"/>
</linearGradient>
<linearGradient id="paint11_linear" x1="137.216" y1="141" x2="137.216" y2="189.587" gradientUnits="userSpaceOnUse">
<stop stop-color="white"/>
<stop offset="0.8526" stop-color="white" stop-opacity="0.1"/>
</linearGradient>
<linearGradient id="paint12_linear" x1="271.143" y1="176.535" x2="271.143" y2="210.674" gradientUnits="userSpaceOnUse">
<stop stop-color="white"/>
<stop offset="0.8526" stop-color="white" stop-opacity="0.1"/>
</linearGradient>
<linearGradient id="paint13_linear" x1="30.8096" y1="338.845" x2="84.8501" y2="338.845" gradientUnits="userSpaceOnUse">
<stop stop-color="#255B51"/>
<stop offset="1" stop-color="#112B27"/>
</linearGradient>
<linearGradient id="paint14_linear" x1="47.4461" y1="339.546" x2="101.487" y2="339.546" gradientUnits="userSpaceOnUse">
<stop stop-color="#255B51"/>
<stop offset="1" stop-color="#112B27"/>
</linearGradient>
<linearGradient id="paint15_linear" x1="48.7261" y1="315.893" x2="50.7036" y2="315.232" gradientUnits="userSpaceOnUse">
<stop stop-color="#2F2F06"/>
<stop offset="0.9895" stop-color="#2F5B06"/>
</linearGradient>
<linearGradient id="paint16_linear" x1="46.0837" y1="317.994" x2="49.3654" y2="316.897" gradientUnits="userSpaceOnUse">
<stop stop-color="#2F2F06"/>
<stop offset="0.9895" stop-color="#2F5B06"/>
</linearGradient>
<linearGradient id="paint17_linear" x1="44.6052" y1="323.731" x2="50.461" y2="321.774" gradientUnits="userSpaceOnUse">
<stop stop-color="#2F2F06"/>
<stop offset="0.9895" stop-color="#2F5B06"/>
</linearGradient>
<linearGradient id="paint18_linear" x1="44.9745" y1="328.007" x2="52.4" y2="325.526" gradientUnits="userSpaceOnUse">
<stop stop-color="#2F2F06"/>
<stop offset="0.9895" stop-color="#2F5B06"/>
</linearGradient>
<linearGradient id="paint19_linear" x1="45.2983" y1="331.338" x2="52.9653" y2="328.776" gradientUnits="userSpaceOnUse">
<stop stop-color="#2F2F06"/>
<stop offset="0.9895" stop-color="#2F5B06"/>
</linearGradient>
<linearGradient id="paint20_linear" x1="46.7524" y1="334.714" x2="54.1696" y2="332.235" gradientUnits="userSpaceOnUse">
<stop stop-color="#2F2F06"/>
<stop offset="0.9895" stop-color="#2F5B06"/>
</linearGradient>
<linearGradient id="paint21_linear" x1="47.2406" y1="338.857" x2="55.4286" y2="336.121" gradientUnits="userSpaceOnUse">
<stop stop-color="#2F2F06"/>
<stop offset="0.9895" stop-color="#2F5B06"/>
</linearGradient>
<linearGradient id="paint22_linear" x1="51.0669" y1="317.825" x2="55.7171" y2="316.271" gradientUnits="userSpaceOnUse">
<stop stop-color="#2F2F06"/>
<stop offset="0.9895" stop-color="#2F5B06"/>
</linearGradient>
<linearGradient id="paint23_linear" x1="53.0679" y1="321.274" x2="59.7265" y2="319.049" gradientUnits="userSpaceOnUse">
<stop stop-color="#2F2F06"/>
<stop offset="0.9895" stop-color="#2F5B06"/>
</linearGradient>
<linearGradient id="paint24_linear" x1="53.437" y1="325.083" x2="60.711" y2="322.652" gradientUnits="userSpaceOnUse">
<stop stop-color="#2F2F06"/>
<stop offset="0.9895" stop-color="#2F5B06"/>
</linearGradient>
<linearGradient id="paint25_linear" x1="54.8787" y1="328.345" x2="62.53" y2="325.788" gradientUnits="userSpaceOnUse">
<stop stop-color="#2F2F06"/>
<stop offset="0.9895" stop-color="#2F5B06"/>
</linearGradient>
<linearGradient id="paint26_linear" x1="55.7629" y1="332.168" x2="63.7854" y2="329.487" gradientUnits="userSpaceOnUse">
<stop stop-color="#2F2F06"/>
<stop offset="0.9895" stop-color="#2F5B06"/>
</linearGradient>
<linearGradient id="paint27_linear" x1="56.5234" y1="335.564" x2="64.546" y2="332.883" gradientUnits="userSpaceOnUse">
<stop stop-color="#2F2F06"/>
<stop offset="0.9895" stop-color="#2F5B06"/>
</linearGradient>
<linearGradient id="paint28_linear" x1="53.7642" y1="329.607" x2="54.501" y2="329.361" gradientUnits="userSpaceOnUse">
<stop stop-color="#2F2F06"/>
<stop offset="0.9895" stop-color="#2F5B06"/>
</linearGradient>
<linearGradient id="paint29_linear" x1="49.9255" y1="321.461" x2="53.0847" y2="320.405" gradientUnits="userSpaceOnUse">
<stop stop-color="#2F2F06"/>
<stop offset="0.9895" stop-color="#2F5B06"/>
</linearGradient>
<linearGradient id="paint30_linear" x1="49.3008" y1="325.132" x2="55.4539" y2="323.076" gradientUnits="userSpaceOnUse">
<stop stop-color="#2F2F06"/>
<stop offset="0.9895" stop-color="#2F5B06"/>
</linearGradient>
<linearGradient id="paint31_linear" x1="50.117" y1="327.855" x2="56.2702" y2="325.799" gradientUnits="userSpaceOnUse">
<stop stop-color="#2F2F06"/>
<stop offset="0.9895" stop-color="#2F5B06"/>
</linearGradient>
<linearGradient id="paint32_linear" x1="51.1189" y1="331.119" x2="57.266" y2="329.065" gradientUnits="userSpaceOnUse">
<stop stop-color="#2F2F06"/>
<stop offset="0.9895" stop-color="#2F5B06"/>
</linearGradient>
<linearGradient id="paint33_linear" x1="52.967" y1="334.66" x2="58.4299" y2="332.835" gradientUnits="userSpaceOnUse">
<stop stop-color="#2F2F06"/>
<stop offset="0.9895" stop-color="#2F5B06"/>
</linearGradient>
<linearGradient id="paint34_linear" x1="53.7308" y1="337.773" x2="59.1878" y2="335.949" gradientUnits="userSpaceOnUse">
<stop stop-color="#2F2F06"/>
<stop offset="0.9895" stop-color="#2F5B06"/>
</linearGradient>
<linearGradient id="paint35_linear" x1="72.8049" y1="345.159" x2="99.1341" y2="345.159" gradientUnits="userSpaceOnUse">
<stop stop-color="#2F2F06"/>
<stop offset="0.9895" stop-color="#2F5B06"/>
</linearGradient>
<linearGradient id="paint36_linear" x1="62.8699" y1="340.152" x2="78.7516" y2="307.832" gradientUnits="userSpaceOnUse">
<stop stop-color="#2F2F06"/>
<stop offset="0.9895" stop-color="#2F5B06"/>
</linearGradient>
<linearGradient id="paint37_linear" x1="66.5399" y1="335.47" x2="95.6132" y2="335.471" gradientUnits="userSpaceOnUse">
<stop stop-color="#2F2F06"/>
<stop offset="0.6259" stop-color="#528932"/>
<stop offset="0.9895" stop-color="#65B94A"/>
</linearGradient>
<linearGradient id="paint38_linear" x1="71.6396" y1="335.006" x2="79.4594" y2="343.579" gradientUnits="userSpaceOnUse">
<stop stop-color="#2F2F06"/>
<stop offset="0.9895" stop-color="#2F5B06"/>
</linearGradient>
<linearGradient id="paint39_linear" x1="57.7587" y1="343.514" x2="35.0557" y2="332.624" gradientUnits="userSpaceOnUse">
<stop stop-color="#255B51"/>
<stop offset="0.801" stop-color="#3A7B05"/>
</linearGradient>
<linearGradient id="paint40_linear" x1="58.6876" y1="341.764" x2="36.0309" y2="330.896" gradientUnits="userSpaceOnUse">
<stop stop-color="#255B51"/>
<stop offset="0.801" stop-color="#3A7B05"/>
</linearGradient>
<linearGradient id="paint41_linear" x1="57.7154" y1="324.276" x2="68.359" y2="353.502" gradientUnits="userSpaceOnUse">
<stop stop-color="#6BD55E"/>
<stop offset="0.1877" stop-color="#5FBE48"/>
<stop offset="0.5369" stop-color="#4B9A23"/>
<stop offset="0.8201" stop-color="#3E830D"/>
<stop offset="1" stop-color="#3A7B05"/>
</linearGradient>
<linearGradient id="paint42_linear" x1="64.7726" y1="313.951" x2="65.6052" y2="311.878" gradientUnits="userSpaceOnUse">
<stop stop-color="#2F2F06"/>
<stop offset="0.9895" stop-color="#2F5B06"/>
</linearGradient>
<linearGradient id="paint43_linear" x1="102.176" y1="334.626" x2="102.764" y2="333.162" gradientUnits="userSpaceOnUse">
<stop stop-color="#2F2F06"/>
<stop offset="0.9895" stop-color="#2F5B06"/>
</linearGradient>
<linearGradient id="paint44_linear" x1="31.2406" y1="328.413" x2="31.828" y2="326.95" gradientUnits="userSpaceOnUse">
<stop stop-color="#2F2F06"/>
<stop offset="0.9895" stop-color="#2F5B06"/>
</linearGradient>
<linearGradient id="paint45_linear" x1="344.495" y1="316.974" x2="405.765" y2="316.974" gradientUnits="userSpaceOnUse">
<stop stop-color="#255B51"/>
<stop offset="1" stop-color="#112B27"/>
</linearGradient>
<linearGradient id="paint46_linear" x1="364.812" y1="290.957" x2="367.054" y2="290.207" gradientUnits="userSpaceOnUse">
<stop stop-color="#2F2F06"/>
<stop offset="0.9895" stop-color="#2F5B06"/>
</linearGradient>
<linearGradient id="paint47_linear" x1="361.816" y1="293.339" x2="365.536" y2="292.095" gradientUnits="userSpaceOnUse">
<stop stop-color="#2F2F06"/>
<stop offset="0.9895" stop-color="#2F5B06"/>
</linearGradient>
<linearGradient id="paint48_linear" x1="360.139" y1="299.843" x2="366.779" y2="297.624" gradientUnits="userSpaceOnUse">
<stop stop-color="#2F2F06"/>
<stop offset="0.9895" stop-color="#2F5B06"/>
</linearGradient>
<linearGradient id="paint49_linear" x1="360.558" y1="304.691" x2="368.977" y2="301.878" gradientUnits="userSpaceOnUse">
<stop stop-color="#2F2F06"/>
<stop offset="0.9895" stop-color="#2F5B06"/>
</linearGradient>
<linearGradient id="paint50_linear" x1="360.925" y1="308.468" x2="369.618" y2="305.563" gradientUnits="userSpaceOnUse">
<stop stop-color="#2F2F06"/>
<stop offset="0.9895" stop-color="#2F5B06"/>
</linearGradient>
<linearGradient id="paint51_linear" x1="362.574" y1="312.295" x2="370.983" y2="309.485" gradientUnits="userSpaceOnUse">
<stop stop-color="#2F2F06"/>
<stop offset="0.9895" stop-color="#2F5B06"/>
</linearGradient>
<linearGradient id="paint52_linear" x1="363.127" y1="316.992" x2="372.411" y2="313.89" gradientUnits="userSpaceOnUse">
<stop stop-color="#2F2F06"/>
<stop offset="0.9895" stop-color="#2F5B06"/>
</linearGradient>
<linearGradient id="paint53_linear" x1="367.466" y1="293.146" x2="372.738" y2="291.385" gradientUnits="userSpaceOnUse">
<stop stop-color="#2F2F06"/>
<stop offset="0.9895" stop-color="#2F5B06"/>
</linearGradient>
<linearGradient id="paint54_linear" x1="369.734" y1="297.058" x2="377.284" y2="294.535" gradientUnits="userSpaceOnUse">
<stop stop-color="#2F2F06"/>
<stop offset="0.9895" stop-color="#2F5B06"/>
</linearGradient>
<linearGradient id="paint55_linear" x1="370.153" y1="301.375" x2="378.4" y2="298.619" gradientUnits="userSpaceOnUse">
<stop stop-color="#2F2F06"/>
<stop offset="0.9895" stop-color="#2F5B06"/>
</linearGradient>
<linearGradient id="paint56_linear" x1="371.787" y1="305.074" x2="380.462" y2="302.175" gradientUnits="userSpaceOnUse">
<stop stop-color="#2F2F06"/>
<stop offset="0.9895" stop-color="#2F5B06"/>
</linearGradient>
<linearGradient id="paint57_linear" x1="372.79" y1="309.408" x2="381.885" y2="306.369" gradientUnits="userSpaceOnUse">
<stop stop-color="#2F2F06"/>
<stop offset="0.9895" stop-color="#2F5B06"/>
</linearGradient>
<linearGradient id="paint58_linear" x1="373.652" y1="313.259" x2="382.748" y2="310.219" gradientUnits="userSpaceOnUse">
<stop stop-color="#2F2F06"/>
<stop offset="0.9895" stop-color="#2F5B06"/>
</linearGradient>
<linearGradient id="paint59_linear" x1="370.524" y1="306.505" x2="371.359" y2="306.225" gradientUnits="userSpaceOnUse">
<stop stop-color="#2F2F06"/>
<stop offset="0.9895" stop-color="#2F5B06"/>
</linearGradient>
<linearGradient id="paint60_linear" x1="366.171" y1="297.269" x2="369.753" y2="296.072" gradientUnits="userSpaceOnUse">
<stop stop-color="#2F2F06"/>
<stop offset="0.9895" stop-color="#2F5B06"/>
</linearGradient>
<linearGradient id="paint61_linear" x1="365.463" y1="301.431" x2="372.439" y2="299.1" gradientUnits="userSpaceOnUse">
<stop stop-color="#2F2F06"/>
<stop offset="0.9895" stop-color="#2F5B06"/>
</linearGradient>
<linearGradient id="paint62_linear" x1="366.389" y1="304.518" x2="373.365" y2="302.187" gradientUnits="userSpaceOnUse">
<stop stop-color="#2F2F06"/>
<stop offset="0.9895" stop-color="#2F5B06"/>
</linearGradient>
<linearGradient id="paint63_linear" x1="367.524" y1="308.22" x2="374.494" y2="305.891" gradientUnits="userSpaceOnUse">
<stop stop-color="#2F2F06"/>
<stop offset="0.9895" stop-color="#2F5B06"/>
</linearGradient>
<linearGradient id="paint64_linear" x1="369.62" y1="312.235" x2="375.814" y2="310.165" gradientUnits="userSpaceOnUse">
<stop stop-color="#2F2F06"/>
<stop offset="0.9895" stop-color="#2F5B06"/>
</linearGradient>
<linearGradient id="paint65_linear" x1="370.486" y1="315.764" x2="376.673" y2="313.696" gradientUnits="userSpaceOnUse">
<stop stop-color="#2F2F06"/>
<stop offset="0.9895" stop-color="#2F5B06"/>
</linearGradient>
<linearGradient id="paint66_linear" x1="384.758" y1="321.816" x2="414.61" y2="321.816" gradientUnits="userSpaceOnUse">
<stop stop-color="#2F2F06"/>
<stop offset="0.9895" stop-color="#2F5B06"/>
</linearGradient>
<linearGradient id="paint67_linear" x1="375.046" y1="322.265" x2="349.306" y2="309.918" gradientUnits="userSpaceOnUse">
<stop stop-color="#255B51"/>
<stop offset="0.801" stop-color="#3A7B05"/>
</linearGradient>
<linearGradient id="paint68_linear" x1="376.099" y1="320.281" x2="350.412" y2="307.96" gradientUnits="userSpaceOnUse">
<stop stop-color="#255B51"/>
<stop offset="0.801" stop-color="#3A7B05"/>
</linearGradient>
<linearGradient id="paint69_linear" x1="370.395" y1="299.829" x2="382.463" y2="332.965" gradientUnits="userSpaceOnUse">
<stop stop-color="#6BD55E"/>
<stop offset="0.1877" stop-color="#5FBE48"/>
<stop offset="0.5369" stop-color="#4B9A23"/>
<stop offset="0.8201" stop-color="#3E830D"/>
<stop offset="1" stop-color="#3A7B05"/>
</linearGradient>
<linearGradient id="paint70_linear" x1="383.004" y1="288.73" x2="383.948" y2="286.378" gradientUnits="userSpaceOnUse">
<stop stop-color="#2F2F06"/>
<stop offset="0.9895" stop-color="#2F5B06"/>
</linearGradient>
<linearGradient id="paint71_linear" x1="411.616" y1="314.52" x2="412.282" y2="312.861" gradientUnits="userSpaceOnUse">
<stop stop-color="#2F2F06"/>
<stop offset="0.9895" stop-color="#2F5B06"/>
</linearGradient>
<linearGradient id="paint72_linear" x1="344.986" y1="305.126" x2="345.652" y2="303.468" gradientUnits="userSpaceOnUse">
<stop stop-color="#2F2F06"/>
<stop offset="0.9895" stop-color="#2F5B06"/>
</linearGradient>
<clipPath id="clip0">
<rect width="450" height="271" fill="white" transform="translate(0.997803 141)"/>
</clipPath>
</defs>
</svg>
