<svg width="51" height="61" viewBox="0 0 51 61" fill="none" xmlns="http://www.w3.org/2000/svg">
<path d="M35.3146 11.3798C33.7823 10.7412 32.027 11.4648 31.3884 12.9907C30.7531 14.5197 31.4735 16.2782 33.0025 16.9152C40.2885 19.9573 44.9992 27.0218 44.9992 34.9175C44.9992 45.6691 36.25 54.4167 25.4984 54.4167C14.7484 54.4167 5.99915 45.6691 5.99915 34.9175C5.99915 27.0876 10.6537 20.044 17.8611 16.9714C19.3869 16.3216 20.0961 14.5598 19.4447 13.0356C18.7949 11.5097 17.0332 10.8022 15.5073 11.452C6.08258 15.468 0 24.6793 0 34.9175C0 48.9791 11.4367 60.4175 25.4968 60.4175C39.5585 60.4175 51 48.9791 51 34.9175C50.9984 24.5943 44.8404 15.3557 35.3146 11.3798Z" fill="url(#paint0_linear)"/>
<path d="M25.7472 32.3696C27.403 32.3696 28.7476 31.0266 28.7476 29.3692V3.62049C28.7476 1.96307 27.403 0.620117 25.7472 0.620117C24.0914 0.620117 22.7468 1.96307 22.7468 3.62049V29.3692C22.7468 31.0266 24.0914 32.3696 25.7472 32.3696Z" fill="url(#paint1_linear)"/>
<defs>
<linearGradient id="paint0_linear" x1="25.5" y1="11.1475" x2="25.5" y2="60.4175" gradientUnits="userSpaceOnUse">
<stop stop-color="white"/>
<stop offset="1" stop-color="white"/>
</linearGradient>
<linearGradient id="paint1_linear" x1="25.7472" y1="0.620117" x2="25.7472" y2="32.3696" gradientUnits="userSpaceOnUse">
<stop stop-color="white"/>
<stop offset="1" stop-color="white"/>
</linearGradient>
</defs>
</svg>
