<svg width="278" height="686" viewBox="0 0 278 686" fill="none" xmlns="http://www.w3.org/2000/svg">
<path d="M-10.1564 158.788C-5.83342 142.11 10.7188 129.474 27.9099 129.726C45.1009 129.978 61.2776 143.094 65.1146 159.89C68.9516 176.686 60.0773 195.549 44.706 203.269C65.1262 194.206 91.8034 199.854 104.855 218.015C117.907 236.175 113.492 265.289 94.3607 276.836C135.339 291.348 161.83 338.524 152.946 381.16C144.062 423.796 100.943 456.403 57.5954 453.265C67.0215 448.591 77.944 457.28 82.4063 466.825C92.7423 488.936 82.8535 518.363 61.2776 529.703C39.7016 541.044 9.92505 532.464 -2.34683 511.37C-10.6713 497.061 -11.0643 479.648 -11.2366 463.087C-11.709 417.346 -12.1794 371.604 -12.6518 325.864C-13.2403 268.805 -13.8211 211.581 -7.60095 154.861" fill="url(#paint0_linear)"/>
<path d="M247.332 278.845C229.299 284.889 212.209 282.378 212.209 282.378C212.209 282.378 224.355 270.07 242.388 264.028C260.421 257.986 277.512 260.495 277.512 260.495C277.512 260.495 265.366 272.802 247.332 278.845Z" fill="url(#paint1_linear)"/>
<path d="M235.833 262.476C221.335 274.806 204.539 278.845 204.539 278.845C204.539 278.845 211.247 262.893 225.745 250.563C240.243 238.233 257.039 234.193 257.039 234.193C257.039 234.193 250.329 250.146 235.833 262.476Z" fill="url(#paint2_linear)"/>
<path d="M197.922 258.92C188.585 275.52 174.226 285.141 174.226 285.141C174.226 285.141 175.004 267.848 184.339 251.248C193.676 234.648 208.035 225.026 208.035 225.026C208.035 225.026 207.259 242.319 197.922 258.92Z" fill="url(#paint3_linear)"/>
<path d="M168.722 265.527C164.354 284.074 153.229 297.316 153.229 297.316C153.229 297.316 149.183 280.486 153.55 261.94C157.917 243.394 169.043 230.152 169.043 230.152C169.043 230.152 173.089 246.981 168.722 265.527Z" fill="url(#paint4_linear)"/>
<path d="M144.219 268.44C140.876 287.2 130.493 301.034 130.493 301.034C130.493 301.034 125.529 284.453 128.873 265.693C132.216 246.933 142.599 233.1 142.599 233.1C142.599 233.1 147.56 249.681 144.219 268.44Z" fill="url(#paint5_linear)"/>
<path d="M118.583 278.836C114.183 297.375 103.034 310.595 103.034 310.595C103.034 310.595 99.0168 293.758 103.417 275.22C107.818 256.681 118.967 243.46 118.967 243.46C118.967 243.46 122.984 260.297 118.583 278.836Z" fill="url(#paint6_linear)"/>
<path d="M88.793 283.832C88.1715 302.877 79.8761 318.063 79.8761 318.063C79.8761 318.063 72.5892 302.367 73.2106 283.322C73.8321 264.277 82.1275 249.091 82.1275 249.091C82.1275 249.091 89.4144 264.785 88.793 283.832Z" fill="url(#paint7_linear)"/>
<path d="M231.923 306.585C213.448 302.078 200.315 290.832 200.315 290.832C200.315 290.832 217.136 286.896 235.611 291.403C254.085 295.91 267.219 307.155 267.219 307.155C267.219 307.155 250.397 311.092 231.923 306.585Z" fill="url(#paint8_linear)"/>
<path d="M206.459 328.199C190.193 318.331 181.044 303.647 181.044 303.647C181.044 303.647 198.266 304.965 214.534 314.833C230.8 324.701 239.949 339.384 239.949 339.384C239.949 339.384 222.727 338.067 206.459 328.199Z" fill="url(#paint9_linear)"/>
<path d="M178.016 332.752C163.015 321.045 155.641 305.389 155.641 305.389C155.641 305.389 172.592 308.717 187.595 320.424C202.597 332.131 209.971 347.786 209.971 347.786C209.971 347.786 193.018 344.459 178.016 332.752Z" fill="url(#paint10_linear)"/>
<path d="M153.612 344.55C139.635 331.63 133.589 315.416 133.589 315.416C133.589 315.416 150.205 320.146 164.182 333.064C178.16 345.982 184.206 362.198 184.206 362.198C184.206 362.198 167.589 357.468 153.612 344.55Z" fill="url(#paint11_linear)"/>
<path d="M124.974 352.027C112.307 337.815 107.852 321.089 107.852 321.089C107.852 321.089 123.934 327.406 136.601 341.618C149.268 355.83 153.722 372.557 153.722 372.557C153.722 372.557 137.64 366.239 124.974 352.027Z" fill="url(#paint12_linear)"/>
<path d="M99.5917 357.73C86.9249 343.518 82.4704 326.792 82.4704 326.792C82.4704 326.792 98.5521 333.109 111.219 347.321C123.886 361.533 128.34 378.26 128.34 378.26C128.34 378.26 112.259 371.942 99.5917 357.73Z" fill="url(#paint13_linear)"/>
<path d="M46.8105 334.213L46.4678 333.097L234.83 274.884L235.173 275.999L46.8105 334.213Z" fill="url(#paint14_linear)"/>
<path d="M190.584 288.785L214.266 268.499L215.021 269.385L192.998 288.254L213.566 294.035L213.252 295.159L190.584 288.785Z" fill="url(#paint15_linear)"/>
<path d="M169.667 295.878L184.109 264.729L185.164 265.219L171.126 295.498L193.835 312.017L193.15 312.962L169.667 295.878Z" fill="url(#paint16_linear)"/>
<path d="M149.32 301.997L163.76 270.845L164.817 271.338L150.78 301.616L173.488 318.135L172.803 319.08L149.32 301.997Z" fill="url(#paint17_linear)"/>
<path d="M126.28 310.434L138.364 278.687L139.452 279.104L127.674 310.044L148.122 325.95L147.407 326.871L126.28 310.434Z" fill="url(#paint18_linear)"/>
<path d="M101.371 317.422L106.462 294.359L107.599 294.612L102.66 316.98L122.757 333.767L122.012 334.663L101.371 317.422Z" fill="url(#paint19_linear)"/>
<path d="M78.9468 323.545L82.5418 300.306L83.6918 300.486L80.1935 323.095L98.856 339.688L98.0835 340.561L78.9468 323.545Z" fill="url(#paint20_linear)"/>
<path d="M143.332 412.825C102.403 429.317 65.2888 421.824 53.4293 418.655L56.0022 420.258C64.6732 425.533 73.079 431.166 81.2719 437.025C123.193 426.635 164.972 441.326 164.972 441.326C128.696 451.196 97.8686 443.899 85.1805 439.838C90.9438 444.047 96.6025 448.362 102.168 452.744C103.489 453.782 104.79 454.834 106.092 455.886C144.788 450.961 180.115 466.85 180.115 466.85C146.364 471.787 119.807 462.876 109.213 458.431C110.443 459.444 111.676 460.457 112.89 461.481C112.897 461.462 112.905 461.442 112.913 461.423C112.913 461.423 112.951 461.487 113.008 461.58C118.391 466.126 123.628 470.786 128.727 475.534C164.732 470.769 197.736 485.611 197.736 485.611C164.37 490.493 138.591 480.743 130.325 477.04C134.733 481.184 139.048 485.388 143.253 489.647C145.465 491.903 147.64 494.179 149.794 496.465C175.263 498.82 194.588 512.064 194.588 512.064C171.984 510.242 156.849 501.715 151.289 498.056C158.808 506.121 165.901 514.394 172.357 522.925C179.567 528.637 194.09 542.265 202.221 564.558C202.221 564.558 178.417 547.288 168.292 520.424C164.062 515.081 159.561 509.821 154.872 504.647C157.228 509.218 163.617 524.33 156.094 542.319C156.094 542.319 146.207 522.819 153.924 503.614C149.906 499.216 145.767 494.878 141.528 490.613C138.947 488.033 136.322 485.478 133.67 482.938C136.748 488.919 145.034 508.597 135.259 531.97C135.259 531.97 122.414 506.661 132.382 481.702C126.923 476.518 121.305 471.436 115.52 466.481C119.874 476.143 127.13 498.601 116.186 524.768C116.186 524.768 100.662 494.179 112.084 463.565C108.294 460.389 104.439 457.265 100.505 454.209C95.8959 450.622 91.2168 447.091 86.4776 443.624C91.3484 451.039 107.814 479.76 98.2907 516.728C98.2907 516.728 75.6751 480.784 84.9869 442.533C75.1679 435.401 65.0546 428.579 54.5637 422.279L53.8571 421.845C61.0201 431.239 80.3601 460.765 76.1417 501.05C76.1417 501.05 47.4647 463.561 51.1526 420.18L48.574 418.593C47.5712 417.986 46.5877 417.347 45.5694 416.765L42.4874 415.056L30.1652 408.219C26.1055 405.85 21.8329 403.892 17.6416 401.781L5.02518 395.532L6.0667 392.922L18.7974 399.317C23.0255 401.477 27.331 403.483 31.4255 405.9L43.8406 412.885L46.9439 414.631C47.97 415.225 48.9612 415.875 49.9717 416.496L50.7713 416.994C94.9396 399.926 143.332 412.825 143.332 412.825Z" fill="#260C4F"/>
<path d="M80.8594 487.544C52.0411 470.595 39.3336 444.829 35.7347 436.238L35.9671 438.525C36.8285 446.178 37.3512 453.835 37.6416 461.47C63.2695 481.84 73.8339 513.743 73.8339 513.743C51.1312 496.522 41.2173 474.625 37.7694 465.122C37.9223 470.533 37.963 475.93 37.9185 481.305C37.9088 482.578 37.8817 483.846 37.8565 485.117C58.722 506.081 65.581 534.662 65.581 534.662C46.9961 516.675 40.0267 496.594 37.7791 488.171C37.7423 489.38 37.7074 490.589 37.6571 491.793C37.6726 491.79 37.6881 491.784 37.7036 491.78C37.7036 491.78 37.6842 491.834 37.6532 491.91C37.4287 497.249 37.0667 502.554 36.5885 507.816C56.1143 527.237 62.5203 553.938 62.5203 553.938C44.1483 536.154 38.0404 516.155 36.4259 509.473C35.9883 514.04 35.4734 518.578 34.8732 523.077C34.5499 525.452 34.1957 527.811 33.824 530.165C44.2102 546.556 45.2402 564.297 45.2402 564.297C35.8625 549.875 33.9517 536.833 33.5646 531.798C32.223 540.05 30.56 548.143 28.4479 555.971C28.3704 562.946 26.9456 577.985 17.3782 593.194C17.3782 593.194 16.6832 570.895 28.0607 552.372C29.2978 547.357 30.3586 542.217 31.2821 537.004C29.6404 540.537 23.5597 551.373 9.31508 555.186C9.31508 555.186 16.4006 540.215 31.4602 535.956C32.2307 531.507 32.9083 527.012 33.4949 522.489C33.8433 519.744 34.155 516.983 34.4454 514.214C32.2926 518.834 24.3611 532.926 5.85557 537.877C5.85557 537.877 15.0435 518.438 34.5887 512.868C35.1598 507.189 35.5973 501.46 35.8838 495.689C32.1223 502.779 22.0516 517.54 1.33129 523.085C1.33129 523.085 12.4377 499.593 36.0367 492.277C36.1819 488.528 36.2652 484.766 36.2691 480.989C36.2787 476.559 36.2245 472.112 36.1026 467.659C33.9227 474.019 24.3708 497.212 -2.1495 508.613C-2.1495 508.613 8.87368 478.381 36.0638 466.259C35.7812 457.056 35.1791 447.823 34.0873 438.603L34.0195 437.978C31.7177 446.632 23.0157 471.924 -3.03035 488.047C-3.03035 488.047 6.10917 453.459 33.764 435.582L33.5181 433.298C33.4174 432.414 33.3439 431.529 33.22 430.646L32.8153 428.004L31.1988 417.435C30.7342 413.9 29.9269 410.426 29.2494 406.931L27.1431 396.458L29.1874 395.874L31.2589 406.483C31.9248 410.024 32.7186 413.54 33.1696 417.117L34.7435 427.81L35.1365 430.483C35.2566 431.376 35.3263 432.27 35.423 433.165L35.4947 433.877C66.1618 452.501 80.8594 487.544 80.8594 487.544Z" fill="url(#paint21_linear)"/>
<path d="M100.966 207.566C63.1111 226.842 43.9183 259.319 38.3079 270.213L38.9081 267.237C41.0163 257.293 42.7083 247.311 44.1119 237.332C78.4979 213.247 95.8864 172.508 95.8864 172.508C65.5368 192.764 50.3184 220.456 44.7662 232.559C45.6954 225.482 46.4814 218.411 47.1629 211.363C47.3255 209.692 47.4649 208.028 47.6081 206.359C76.2057 181.008 88.5725 144.246 88.5725 144.246C63.1963 165.927 51.8556 191.538 47.9314 202.349C48.0515 200.762 48.1734 199.174 48.276 197.589C48.2935 197.597 48.3128 197.605 48.3302 197.611C48.3302 197.611 48.3128 197.539 48.2857 197.434C48.7387 190.413 49.0175 183.424 49.1472 176.476C75.8805 153.011 87.4322 118.668 87.4322 118.668C62.3445 140.103 52.0782 165.694 49.1743 174.289C49.2595 168.257 49.244 162.256 49.1201 156.298C49.0446 153.153 48.9304 150.023 48.7968 146.902C63.8448 126.477 67.5405 103.327 67.5405 103.327C54.0045 121.274 49.8654 138.173 48.7 144.733C48.1734 133.78 47.2306 123.002 45.6974 112.523C46.5569 103.371 46.8551 83.5154 37.1367 62.604C37.1367 62.604 33.23 91.7613 44.7275 117.203C45.5657 123.905 46.1717 130.75 46.5976 137.676C45.0546 132.878 39.0397 118.053 21.9958 111.604C21.9958 111.604 28.6863 131.951 46.6731 139.069C47.0138 144.979 47.2364 150.941 47.341 156.929C47.3952 160.563 47.4029 164.212 47.3816 167.873C45.3586 161.601 37.5064 142.319 15.3632 133.939C15.3632 133.939 24.0362 160.357 47.3739 169.652C47.3023 177.155 47.0583 184.71 46.6208 192.3C42.9503 182.623 32.5504 162.249 7.75697 152.866C7.75697 152.866 18.24 184.792 46.3401 196.79C46.0071 201.718 45.5948 206.658 45.0837 211.609C44.4913 217.418 43.8156 223.239 43.0568 229.065C41.2389 220.505 32.6318 189.13 1.48648 171.48C1.48648 171.48 10.9454 212.232 42.8186 230.895C41.2118 242.928 39.2062 254.971 36.6004 266.944L36.432 267.757C34.7768 256.177 27.5054 222.139 -2.41055 198.348C-2.41055 198.348 4.13097 244.618 35.7873 270.872L35.1717 273.841C34.9258 274.99 34.7129 276.144 34.4399 277.287L33.5804 280.709L30.1422 294.397C29.0871 298.984 27.6158 303.454 26.3013 307.967L22.2726 321.481L24.7119 322.455L28.7173 308.761C30.0221 304.188 31.4838 299.661 32.5272 295.016L35.9286 281.161L36.7785 277.698C37.0476 276.542 37.2567 275.374 37.4987 274.213L37.6845 273.288C78.0507 251.998 100.966 207.566 100.966 207.566Z" fill="#260C4F"/>
<path d="M-2.75504 304.557C-3.90305 303.165 -24.7782 260.332 -10.6479 246.57L0.212719 276.036C0.212719 276.036 -9.58696 240.681 -1.61479 232.684C6.35931 224.686 33.5747 198.791 33.5747 198.791C33.5747 198.791 36.9897 228.146 38.912 231.339C38.912 231.339 36.8387 205.409 53.6638 194.235C70.489 183.061 97.8554 179.901 97.8554 179.901L92.3264 202.741C92.3264 202.741 99.4196 184.755 110.795 185.45C122.171 186.144 168.021 191.521 172.172 188.37C176.323 185.219 171.092 218.276 162.502 229.859C153.912 241.442 134.743 232.87 134.743 232.87C134.743 232.87 150.021 247.833 156.543 250.741C163.065 253.648 140.893 276.953 139.745 278.317C138.597 279.681 100.815 281.162 96.0608 278.473C91.3061 275.783 116.661 294.991 122.922 294.658C129.185 294.324 104.163 314.217 91.49 313.866C78.8194 313.516 53.6038 306.735 53.6038 306.735C53.6038 306.735 63.3125 322.044 73.1451 323.953C82.9797 325.86 34.3684 349.532 -2.75504 304.557Z" fill="url(#paint22_linear)"/>
<path opacity="0.49" d="M73.1604 324.63C63.3278 322.721 53.6191 307.412 53.6191 307.412C53.6191 307.412 78.8327 314.193 91.5053 314.543C104.176 314.892 129.2 294.999 122.937 295.335C116.674 295.67 91.3214 276.46 96.0741 279.15C100.829 281.839 138.61 280.358 139.758 278.994C140.906 277.63 163.079 254.325 156.557 251.418C150.034 248.512 134.756 233.547 134.756 233.547C134.756 233.547 153.928 242.119 162.517 230.536C169.998 220.449 174.929 194.082 173.335 189.522L172.187 189.047C172.187 189.047 59.7192 304.729 -4.58469 301.669C-3.61672 303.722 -2.9256 305.012 -2.74169 305.236C34.3798 350.209 82.993 326.539 73.1604 324.63Z" fill="url(#paint23_linear)"/>
<path d="M99.9826 275.708C100.581 275.719 100.503 274.792 99.911 274.78C70.1576 274.192 40.7914 277.357 12.1745 285.414C41.6723 271.59 70.3919 256.106 98.1512 239.046C98.1705 239.046 98.1899 239.048 98.2112 239.046C110.082 238.011 122.012 238.266 133.827 239.814C134.417 239.892 134.587 238.976 133.995 238.898C122.679 237.416 111.256 237.107 99.88 237.978C105.907 234.255 111.894 230.466 117.828 226.593C128.818 219.422 139.64 211.995 150.296 204.334C150.78 203.984 150.247 203.224 149.759 203.573C138.63 211.576 127.308 219.308 115.817 226.774C118.391 220.433 120.966 214.093 123.541 207.752C123.766 207.199 122.927 206.801 122.701 207.356C119.973 214.071 117.247 220.786 114.519 227.503C114.5 227.552 114.49 227.596 114.487 227.643C94.1361 240.809 73.2338 253.116 51.8495 264.522C61.1865 249.177 69.0561 232.979 75.3401 216.144C75.5492 215.587 74.709 215.187 74.4999 215.748C68.0455 233.037 59.9243 249.657 50.2543 265.368C43.8289 268.779 37.3668 272.116 30.8563 275.362C19.2329 281.158 7.47793 286.683 -4.39127 291.953C-4.93526 292.193 -4.62358 293.07 -4.07572 292.828C-0.380024 291.188 3.29826 289.512 6.97073 287.82C7.05011 287.843 7.13722 287.851 7.23402 287.822C37.4346 278.651 68.4888 275.085 99.9826 275.708Z" fill="#0C4B4F"/>
<path d="M193.347 346.709C179.95 341.226 134.351 358.713 133.532 347.935C132.713 337.158 182.552 333.857 182.552 333.857C182.552 333.857 173.296 308.379 163.566 300.783C153.836 293.187 101.988 326.993 95.679 322.804C89.3698 318.615 132.042 286.676 150.929 285.57C150.929 285.57 103.347 252.84 76.4068 281.579C49.4664 310.317 41.562 298.245 60.9213 279.258C80.2807 260.269 99.1482 252.328 99.1482 252.328C99.1482 252.328 50.0298 232.224 20.4468 254.66C-9.13426 277.097 -7.76361 297.339 0.407956 310.724C8.57953 324.11 24.3516 334.581 24.3516 334.581C-3.40584 352.541 -37.4725 366.313 -25.5549 404.931C-20.4169 421.581 -13.3914 438.025 -2.96253 415.382C7.46633 392.74 2.9808 384.075 16.3368 375.886C26.8567 369.435 28.9339 377.426 24.2431 387.958C19.5504 398.489 -6.62917 417.497 7.05205 431.129C20.7333 444.763 51.4391 448.09 48.7579 428.116C46.0766 408.14 41.8175 387.118 52.3258 391.821C62.834 396.524 43.7999 437.334 65.0623 441.216C86.3246 445.098 125.636 430.26 125.636 430.26C125.636 430.26 93.1778 387.069 98.9914 379.59C106.573 369.838 115.395 426.87 142.66 419.955C169.926 413.041 169.926 413.041 169.926 413.041C169.926 413.041 133.896 383.433 142.807 380.253C151.718 377.071 167.283 406.739 187.462 398.53C207.64 390.321 213.928 387.673 213.928 387.673C213.928 387.673 206.743 352.192 193.347 346.709ZM45.4842 365.816C41.6607 371.152 34.6739 372.677 34.6739 372.677C34.6739 372.677 33.886 365.554 37.7095 360.219C41.533 354.883 46.3728 351.812 48.5197 353.358C50.6667 354.903 49.3077 360.481 45.4842 365.816ZM84.7391 370.874C85.7884 377.358 81.9146 383.383 81.9146 383.383C81.9146 383.383 76.3391 378.895 75.2898 372.411C74.2405 365.927 75.5047 360.327 78.1143 359.902C80.724 359.478 83.6898 364.39 84.7391 370.874ZM87.9276 318.225C84.8669 322.854 78.4822 324.017 78.4822 324.017C78.4822 324.017 77.0592 317.672 80.12 313.043C83.1807 308.414 87.4087 305.819 89.5654 307.251C91.722 308.681 90.9883 313.596 87.9276 318.225ZM131.527 382.05C131.782 386.39 128.538 390.113 128.538 390.113C128.538 390.113 124.877 386.799 124.621 382.459C124.366 378.119 125.703 374.51 127.61 374.396C129.517 374.283 131.271 377.71 131.527 382.05ZM127.059 339.148C124.662 342.772 119.838 343.797 119.838 343.797C119.838 343.797 118.897 338.944 121.291 335.32C123.686 331.696 126.921 329.614 128.512 330.671C130.106 331.729 129.453 335.524 127.059 339.148Z" fill="url(#paint24_linear)"/>
<path d="M0.472214 338.012C8.58765 335.755 17.0283 334.82 25.4419 334.63C33.8651 334.448 42.3077 335.024 50.6419 336.316L53.7646 336.824L56.8621 337.469C58.9238 337.907 60.9972 338.301 63.028 338.875C67.1225 339.917 71.1705 341.037 75.2166 342.156L99.4893 348.951L196.598 376.094L196.567 376.21L99.2299 349.876L74.8914 343.301C70.8395 342.181 66.7876 341.066 62.7376 340.035C60.7223 339.467 58.6644 339.079 56.6181 338.644L53.5458 338.006L50.4483 337.504C33.9793 334.706 16.9005 334.475 0.505127 338.128L0.472214 338.012Z" fill="#260C4F"/>
<path d="M32.1519 335.326C29.9488 332.327 28.1503 329.143 26.5821 325.823C25.0314 322.503 23.7905 319.04 22.8961 315.491C21.9572 311.951 21.5506 308.284 21.5042 304.64L21.5506 301.902L21.8604 299.184L22.023 297.828L22.3231 296.495L22.9252 293.831L22.3966 296.509L22.1334 297.845L22.0094 299.203L21.7771 301.916L21.8042 304.638C21.9494 308.254 22.4528 311.869 23.4769 315.342C24.4565 318.823 25.7729 322.204 27.3914 325.433C29.0156 328.646 30.9071 331.774 33.0889 334.577L32.1519 335.326Z" fill="#260C4F"/>
<path d="M60.6428 339.007C60.062 345.171 59.8646 351.407 60.0466 357.612C60.1434 360.716 60.3737 363.814 60.7745 366.888C61.1733 369.967 61.7734 373.001 62.7472 375.95C64.6521 381.858 67.1689 387.574 69.8501 393.189C72.5488 398.8 75.4256 404.33 78.4863 409.754C75.3366 404.378 72.3726 398.895 69.581 393.321C66.8068 387.741 64.1953 382.062 62.178 376.135C61.1481 373.178 60.4821 370.083 60.033 366.99C59.58 363.892 59.2974 360.77 59.1502 357.646C58.8676 351.393 58.9644 345.144 59.4522 338.887L60.6428 339.007Z" fill="#260C4F"/>
<path d="M48.5645 335.565C50.1191 329.713 52.5138 324.22 55.4158 318.995C56.1786 317.713 56.891 316.399 57.6963 315.142L60.1724 311.413L62.8788 307.851C63.7655 306.652 64.8167 305.585 65.7769 304.448L67.254 302.773L68.8473 301.206C69.9275 300.181 70.9265 299.072 72.0726 298.121L75.4934 295.253L76.349 294.539L77.2609 293.897L79.0845 292.613L80.9062 291.33L81.8181 290.692L82.7822 290.133L86.6366 287.898C87.893 287.101 89.2772 286.546 90.6149 285.904L94.6494 284.027L90.6478 285.971C89.3237 286.635 87.9511 287.211 86.7102 288.028L82.9041 290.323L81.9536 290.896L81.0553 291.549L79.2607 292.859L77.4661 294.169L76.5697 294.823L75.7295 295.548L72.3765 298.457C71.2537 299.421 70.278 300.542 69.2229 301.576L67.6683 303.158L66.2299 304.846C65.2968 305.992 64.2727 307.065 63.4131 308.27L60.79 311.846L58.401 315.581C57.6247 316.836 56.9413 318.15 56.2076 319.43C53.4276 324.624 51.1413 330.159 49.7377 335.823L48.5645 335.565Z" fill="#260C4F"/>
<path d="M86.1005 344.799C89.3238 341.194 92.9401 338.097 96.7713 335.261C100.603 332.438 104.649 329.904 108.904 327.785C113.147 325.657 117.536 323.798 122.084 322.453C126.594 320.977 131.27 320.117 135.943 319.399C131.283 320.218 126.639 321.173 122.175 322.74C117.672 324.174 113.347 326.116 109.179 328.319C105.001 330.509 101.042 333.107 97.3114 335.98C93.5925 338.85 90.0478 342.034 87.0258 345.563L86.1005 344.799Z" fill="#260C4F"/>
<path d="M101.851 350.248C103.063 354.982 104.575 359.679 106.267 364.287C107.963 368.899 109.895 373.426 112.11 377.81C114.344 382.182 116.872 386.421 119.925 390.272C122.98 394.093 126.61 397.583 131.061 399.741C126.567 397.676 122.843 394.24 119.693 390.462C116.543 386.652 113.914 382.44 111.577 378.088C109.26 373.722 107.225 369.21 105.427 364.607C103.63 359.999 102.022 355.333 100.69 350.543L101.851 350.248Z" fill="#260C4F"/>
<path d="M256.261 387.125C256.261 391.748 260 395.495 264.612 395.495C269.225 395.495 272.964 391.748 272.964 387.125C272.964 382.503 269.225 378.755 264.612 378.755C260 378.755 256.261 382.503 256.261 387.125Z" fill="url(#paint25_linear)"/>
<path d="M242.293 507.418C242.293 509.056 243.618 510.384 245.253 510.384C246.888 510.384 248.213 509.056 248.213 507.418C248.213 505.779 246.888 504.451 245.253 504.451C243.618 504.451 242.293 505.779 242.293 507.418Z" fill="#260C4F"/>
<path d="M253.909 189.225C253.909 190.864 255.234 192.192 256.869 192.192C258.503 192.192 259.829 190.864 259.829 189.225C259.829 187.587 258.503 186.259 256.869 186.259C255.234 186.259 253.909 187.587 253.909 189.225Z" fill="#260C4F"/>
<path d="M42.8919 2.96656C42.8919 4.60495 44.2172 5.93312 45.852 5.93312C47.4868 5.93312 48.812 4.60495 48.812 2.96656C48.812 1.32817 47.4868 -5.79286e-08 45.852 -1.29387e-07C44.2172 -2.00846e-07 42.8919 1.32817 42.8919 2.96656Z" fill="#260C4F"/>
<path d="M42.892 682.035C42.892 683.674 44.2172 685.002 45.852 685.002C47.4868 685.002 48.812 683.674 48.812 682.035C48.812 680.397 47.4868 679.069 45.852 679.069C44.2172 679.069 42.892 680.397 42.892 682.035Z" fill="#260C4F"/>
<path d="M86.4216 575.325C86.4216 578.587 89.0599 581.231 92.3145 581.231C95.5691 581.231 98.2075 578.587 98.2075 575.325C98.2075 572.064 95.5691 569.419 92.3145 569.419C89.0599 569.419 86.4216 572.064 86.4216 575.325Z" fill="url(#paint26_linear)"/>
<path d="M148.371 134.9C148.371 138.162 151.01 140.806 154.264 140.806C157.519 140.806 160.157 138.162 160.157 134.9C160.157 131.638 157.519 128.994 154.264 128.994C151.01 128.994 148.371 131.638 148.371 134.9Z" fill="url(#paint27_linear)"/>
<defs>
<linearGradient id="paint0_linear" x1="70.8343" y1="129.722" x2="70.8343" y2="534.732" gradientUnits="userSpaceOnUse">
<stop stop-color="#255B51"/>
<stop offset="1" stop-color="#112B27"/>
</linearGradient>
<linearGradient id="paint1_linear" x1="242.386" y1="264.031" x2="247.349" y2="278.843" gradientUnits="userSpaceOnUse">
<stop stop-color="#2F2F06"/>
<stop offset="0.9895" stop-color="#2F5B06"/>
</linearGradient>
<linearGradient id="paint2_linear" x1="226.683" y1="244.226" x2="234.92" y2="268.808" gradientUnits="userSpaceOnUse">
<stop stop-color="#2F2F06"/>
<stop offset="0.9895" stop-color="#2F5B06"/>
</linearGradient>
<linearGradient id="paint3_linear" x1="183.808" y1="233.147" x2="198.506" y2="277.009" gradientUnits="userSpaceOnUse">
<stop stop-color="#2F2F06"/>
<stop offset="0.9895" stop-color="#2F5B06"/>
</linearGradient>
<linearGradient id="paint4_linear" x1="151.85" y1="235.914" x2="170.487" y2="291.533" gradientUnits="userSpaceOnUse">
<stop stop-color="#2F2F06"/>
<stop offset="0.9895" stop-color="#2F5B06"/>
</linearGradient>
<linearGradient id="paint5_linear" x1="126.957" y1="238.342" x2="146.2" y2="295.77" gradientUnits="userSpaceOnUse">
<stop stop-color="#2F2F06"/>
<stop offset="0.9895" stop-color="#2F5B06"/>
</linearGradient>
<linearGradient id="paint6_linear" x1="101.725" y1="249.24" x2="120.341" y2="304.798" gradientUnits="userSpaceOnUse">
<stop stop-color="#2F2F06"/>
<stop offset="0.9895" stop-color="#2F5B06"/>
</linearGradient>
<linearGradient id="paint7_linear" x1="70.7625" y1="252.899" x2="91.3136" y2="314.229" gradientUnits="userSpaceOnUse">
<stop stop-color="#2F2F06"/>
<stop offset="0.9895" stop-color="#2F5B06"/>
</linearGradient>
<linearGradient id="paint8_linear" x1="227.95" y1="281.575" x2="239.621" y2="316.406" gradientUnits="userSpaceOnUse">
<stop stop-color="#2F2F06"/>
<stop offset="0.9895" stop-color="#2F5B06"/>
</linearGradient>
<linearGradient id="paint9_linear" x1="202.169" y1="296.571" x2="218.882" y2="346.447" gradientUnits="userSpaceOnUse">
<stop stop-color="#2F2F06"/>
<stop offset="0.9895" stop-color="#2F5B06"/>
</linearGradient>
<linearGradient id="paint10_linear" x1="173.708" y1="299.337" x2="191.965" y2="353.822" gradientUnits="userSpaceOnUse">
<stop stop-color="#2F2F06"/>
<stop offset="0.9895" stop-color="#2F5B06"/>
</linearGradient>
<linearGradient id="paint11_linear" x1="149.328" y1="310.142" x2="168.532" y2="367.453" gradientUnits="userSpaceOnUse">
<stop stop-color="#2F2F06"/>
<stop offset="0.9895" stop-color="#2F5B06"/>
</linearGradient>
<linearGradient id="paint12_linear" x1="120.755" y1="316.767" x2="140.891" y2="376.859" gradientUnits="userSpaceOnUse">
<stop stop-color="#2F2F06"/>
<stop offset="0.9895" stop-color="#2F5B06"/>
</linearGradient>
<linearGradient id="paint13_linear" x1="95.3719" y1="322.469" x2="115.508" y2="382.56" gradientUnits="userSpaceOnUse">
<stop stop-color="#2F2F06"/>
<stop offset="0.9895" stop-color="#2F5B06"/>
</linearGradient>
<linearGradient id="paint14_linear" x1="139.895" y1="301.79" x2="141.744" y2="307.309" gradientUnits="userSpaceOnUse">
<stop stop-color="#2F2F06"/>
<stop offset="0.9895" stop-color="#2F5B06"/>
</linearGradient>
<linearGradient id="paint15_linear" x1="200.775" y1="273.021" x2="208.705" y2="296.684" gradientUnits="userSpaceOnUse">
<stop stop-color="#2F2F06"/>
<stop offset="0.9895" stop-color="#2F5B06"/>
</linearGradient>
<linearGradient id="paint16_linear" x1="173.337" y1="268.339" x2="188.781" y2="314.427" gradientUnits="userSpaceOnUse">
<stop stop-color="#2F2F06"/>
<stop offset="0.9895" stop-color="#2F5B06"/>
</linearGradient>
<linearGradient id="paint17_linear" x1="152.99" y1="274.456" x2="168.434" y2="320.545" gradientUnits="userSpaceOnUse">
<stop stop-color="#2F2F06"/>
<stop offset="0.9895" stop-color="#2F5B06"/>
</linearGradient>
<linearGradient id="paint18_linear" x1="128.589" y1="281.964" x2="144.018" y2="328.009" gradientUnits="userSpaceOnUse">
<stop stop-color="#2F2F06"/>
<stop offset="0.9895" stop-color="#2F5B06"/>
</linearGradient>
<linearGradient id="paint19_linear" x1="102.123" y1="295.814" x2="115.835" y2="336.734" gradientUnits="userSpaceOnUse">
<stop stop-color="#2F2F06"/>
<stop offset="0.9895" stop-color="#2F5B06"/>
</linearGradient>
<linearGradient id="paint20_linear" x1="78.8609" y1="301.539" x2="92.5573" y2="342.413" gradientUnits="userSpaceOnUse">
<stop stop-color="#2F2F06"/>
<stop offset="0.9895" stop-color="#2F5B06"/>
</linearGradient>
<linearGradient id="paint21_linear" x1="38.9155" y1="395.87" x2="38.9155" y2="593.195" gradientUnits="userSpaceOnUse">
<stop stop-color="#2F2F06"/>
<stop offset="0.9895" stop-color="#2F5B06"/>
</linearGradient>
<linearGradient id="paint22_linear" x1="35.9934" y1="331.67" x2="117.751" y2="161.699" gradientUnits="userSpaceOnUse">
<stop stop-color="#255B51"/>
<stop offset="0.801" stop-color="#3A7B05"/>
</linearGradient>
<linearGradient id="paint23_linear" x1="49.0691" y1="338.632" x2="130.66" y2="169.008" gradientUnits="userSpaceOnUse">
<stop stop-color="#255B51"/>
<stop offset="0.801" stop-color="#3A7B05"/>
</linearGradient>
<linearGradient id="paint24_linear" x1="183.853" y1="300.932" x2="-34.718" y2="380.31" gradientUnits="userSpaceOnUse">
<stop stop-color="#6BD55E"/>
<stop offset="0.1877" stop-color="#5FBE48"/>
<stop offset="0.5369" stop-color="#4B9A23"/>
<stop offset="0.8201" stop-color="#3E830D"/>
<stop offset="1" stop-color="#3A7B05"/>
</linearGradient>
<linearGradient id="paint25_linear" x1="256.88" y1="383.99" x2="272.393" y2="390.201" gradientUnits="userSpaceOnUse">
<stop stop-color="#2F2F06"/>
<stop offset="0.9895" stop-color="#2F5B06"/>
</linearGradient>
<linearGradient id="paint26_linear" x1="86.8733" y1="573.124" x2="97.8171" y2="577.506" gradientUnits="userSpaceOnUse">
<stop stop-color="#2F2F06"/>
<stop offset="0.9895" stop-color="#2F5B06"/>
</linearGradient>
<linearGradient id="paint27_linear" x1="148.797" y1="132.683" x2="159.74" y2="137.065" gradientUnits="userSpaceOnUse">
<stop stop-color="#2F2F06"/>
<stop offset="0.9895" stop-color="#2F5B06"/>
</linearGradient>
</defs>
</svg>
