<svg width="491" height="205" viewBox="0 0 491 205" fill="none" xmlns="http://www.w3.org/2000/svg">
<path d="M113.816 206.196C101.862 203.097 92.8043 191.233 92.9851 178.911C93.1659 166.589 102.567 154.993 114.606 152.243C126.646 149.493 140.166 155.854 145.7 166.872C139.204 152.235 143.252 133.113 156.269 123.757C169.286 114.402 190.155 117.567 198.431 131.28C208.833 101.908 242.648 82.9191 273.209 89.287C303.77 95.6549 327.142 126.562 324.893 157.633C321.543 150.876 327.77 143.047 334.613 139.849C350.461 132.44 371.554 139.528 379.682 154.993C387.811 170.459 381.661 191.802 366.542 200.598C356.285 206.565 343.804 206.847 331.933 206.97C299.147 207.309 266.36 207.646 233.574 207.985C192.675 208.407 151.657 208.823 111.002 204.364" fill="url(#paint0_linear)"/>
<path d="M199.874 21.632C204.206 34.5579 202.406 46.808 202.406 46.808C202.406 46.808 193.584 38.1019 189.253 25.176C184.923 12.2501 186.721 0 186.721 0C186.721 0 195.542 8.70608 199.874 21.632Z" fill="url(#paint1_linear)"/>
<path d="M188.137 29.8747C196.975 40.2668 199.871 52.306 199.871 52.306C199.871 52.306 188.436 47.4978 179.599 37.1057C170.761 26.7136 167.865 14.6744 167.865 14.6744C167.865 14.6744 179.3 19.484 188.137 29.8747Z" fill="url(#paint2_linear)"/>
<path d="M185.589 57.0485C197.488 63.7411 204.384 74.0333 204.384 74.0333C204.384 74.0333 191.989 73.4754 180.09 66.7842C168.191 60.0916 161.295 49.7994 161.295 49.7994C161.295 49.7994 173.69 50.3559 185.589 57.0485Z" fill="url(#paint3_linear)"/>
<path d="M190.326 77.9786C203.62 81.1091 213.112 89.0839 213.112 89.0839C213.112 89.0839 201.049 91.9841 187.755 88.8536C174.461 85.723 164.97 77.7482 164.97 77.7482C164.97 77.7482 177.033 74.8481 190.326 77.9786Z" fill="url(#paint4_linear)"/>
<path d="M192.413 95.5421C205.859 97.9386 215.775 105.381 215.775 105.381C215.775 105.381 203.89 108.938 190.443 106.542C176.997 104.146 167.081 96.7036 167.081 96.7036C167.081 96.7036 178.966 93.147 192.413 95.5421Z" fill="url(#paint5_linear)"/>
<path d="M199.865 113.917C213.154 117.071 222.63 125.063 222.63 125.063C222.63 125.063 210.561 127.942 197.273 124.788C183.985 121.634 174.509 113.642 174.509 113.642C174.509 113.642 186.577 110.763 199.865 113.917Z" fill="url(#paint6_linear)"/>
<path d="M203.445 135.271C217.096 135.716 227.981 141.662 227.981 141.662C227.981 141.662 216.73 146.885 203.079 146.44C189.428 145.994 178.543 140.048 178.543 140.048C178.543 140.048 189.792 134.825 203.445 135.271Z" fill="url(#paint7_linear)"/>
<path d="M219.756 32.677C216.525 45.9193 208.464 55.3331 208.464 55.3331C208.464 55.3331 205.643 43.2758 208.873 30.0335C212.104 16.7912 220.164 7.37744 220.164 7.37744C220.164 7.37744 222.986 19.4347 219.756 32.677Z" fill="url(#paint8_linear)"/>
<path d="M235.247 50.9298C228.174 62.5888 217.649 69.1468 217.649 69.1468C217.649 69.1468 218.594 56.8023 225.667 45.1419C232.74 33.4829 243.265 26.9249 243.265 26.9249C243.265 26.9249 242.32 39.2694 235.247 50.9298Z" fill="url(#paint9_linear)"/>
<path d="M238.511 71.3166C230.119 82.0694 218.897 87.355 218.897 87.355C218.897 87.355 221.283 75.2048 229.674 64.4505C238.065 53.6976 249.287 48.4121 249.287 48.4121C249.287 48.4121 246.902 60.5637 238.511 71.3166Z" fill="url(#paint10_linear)"/>
<path d="M246.967 88.8094C237.706 98.8282 226.084 103.162 226.084 103.162C226.084 103.162 229.475 91.2517 238.734 81.2329C247.993 71.2141 259.617 66.8805 259.617 66.8805C259.617 66.8805 256.226 78.7907 246.967 88.8094Z" fill="url(#paint11_linear)"/>
<path d="M252.328 109.337C242.142 118.416 230.152 121.609 230.152 121.609C230.152 121.609 234.68 110.082 244.867 101.003C255.054 91.9234 267.044 88.7305 267.044 88.7305C267.044 88.7305 262.515 100.258 252.328 109.337Z" fill="url(#paint12_linear)"/>
<path d="M256.415 127.53C246.228 136.609 234.239 139.802 234.239 139.802C234.239 139.802 238.767 128.275 248.954 119.196C259.141 110.116 271.13 106.923 271.13 106.923C271.13 106.923 266.602 118.451 256.415 127.53Z" fill="url(#paint13_linear)"/>
<path d="M239.558 165.362L238.759 165.608L197.032 30.593L197.832 30.3474L239.558 165.362Z" fill="url(#paint14_linear)"/>
<path d="M206.997 62.3081L192.456 45.3331L193.092 44.7919L206.616 60.5777L210.76 45.8354L211.566 46.0602L206.997 62.3081Z" fill="url(#paint15_linear)"/>
<path d="M212.079 77.3013L189.751 66.9494L190.103 66.1932L211.806 76.255L223.647 59.9779L224.324 60.4691L212.079 77.3013Z" fill="url(#paint16_linear)"/>
<path d="M216.466 91.886L194.137 81.5355L194.49 80.7779L216.193 90.8397L228.034 74.5626L228.711 75.0538L216.466 91.886Z" fill="url(#paint17_linear)"/>
<path d="M222.516 108.401L199.76 99.739L200.059 98.9591L222.236 107.402L233.637 92.7452L234.298 93.2573L222.516 108.401Z" fill="url(#paint18_linear)"/>
<path d="M227.525 126.255L210.994 122.605L211.175 121.791L227.208 125.331L239.241 110.926L239.883 111.46L227.525 126.255Z" fill="url(#paint19_linear)"/>
<path d="M231.911 142.328L215.253 139.751L215.382 138.927L231.588 141.435L243.481 128.058L244.107 128.611L231.911 142.328Z" fill="url(#paint20_linear)"/>
<path d="M295.906 96.1779C307.727 125.516 302.357 152.118 300.085 160.619L301.234 158.775C305.016 152.559 309.053 146.534 313.253 140.662C305.805 110.614 316.336 80.6668 316.336 80.6668C323.41 106.669 318.18 128.765 315.269 137.86C318.286 133.729 321.379 129.673 324.52 125.683C325.264 124.737 326.018 123.805 326.772 122.871C323.242 95.1344 334.631 69.8127 334.631 69.8127C338.17 94.0049 331.782 113.041 328.596 120.634C329.322 119.753 330.048 118.869 330.782 117.999C330.769 117.993 330.755 117.988 330.741 117.982C330.741 117.982 330.787 117.954 330.853 117.914C334.112 114.055 337.452 110.301 340.855 106.646C337.44 80.8389 348.079 57.1823 348.079 57.1823C351.578 81.0984 344.589 99.5763 341.934 105.502C344.905 102.342 347.919 99.2488 350.971 96.2348C352.589 94.6487 354.22 93.0904 355.858 91.546C357.547 73.2901 367.039 59.4386 367.039 59.4386C365.734 75.6408 359.621 86.4894 356.999 90.4747C362.78 85.0851 368.71 80.0008 374.825 75.373C378.919 70.2054 388.687 59.7953 404.666 53.9672C404.666 53.9672 392.288 71.0296 373.032 78.287C369.202 81.319 365.432 84.5453 361.723 87.9062C364.999 86.2174 375.831 81.6382 388.726 87.0306C388.726 87.0306 374.748 94.1173 360.983 88.5861C357.83 91.4655 354.721 94.4323 351.664 97.4712C349.814 99.3209 347.983 101.203 346.162 103.104C350.45 100.897 364.554 94.9582 381.308 101.964C381.308 101.964 363.166 111.171 345.276 104.026C341.56 107.94 337.918 111.967 334.366 116.113C341.292 112.992 357.389 107.791 376.146 115.635C376.146 115.635 354.22 126.763 332.276 118.576C329.999 121.293 327.76 124.056 325.57 126.875C322.999 130.179 320.468 133.533 317.982 136.93C323.298 133.439 343.884 121.637 370.383 128.463C370.383 128.463 344.619 144.673 317.201 137.999C312.089 145.037 307.199 152.286 302.683 159.806L302.372 160.312C309.106 155.178 330.269 141.315 359.144 144.339C359.144 144.339 332.273 164.894 301.179 162.251L300.041 164.099C299.606 164.818 299.148 165.523 298.731 166.253L297.506 168.462L292.605 177.294C290.907 180.204 289.504 183.267 287.991 186.271L283.511 195.314L281.641 194.568L286.224 185.442C287.772 182.412 289.21 179.326 290.943 176.391L295.95 167.492L297.201 165.267C297.627 164.532 298.093 163.821 298.538 163.097L298.895 162.524C286.661 130.865 295.906 96.1779 295.906 96.1779Z" fill="#260C4F"/>
<path d="M349.467 140.957C337.317 161.614 318.849 170.722 312.691 173.302L314.331 173.135C319.816 172.518 325.305 172.143 330.777 171.935C345.378 153.566 368.245 145.993 368.245 145.993C355.901 162.266 340.206 169.372 333.394 171.844C337.273 171.734 341.142 171.705 344.994 171.737C345.906 171.744 346.816 171.763 347.727 171.781C362.753 156.825 383.24 151.909 383.24 151.909C370.347 165.23 355.953 170.226 349.916 171.837C350.782 171.863 351.649 171.888 352.512 171.924C352.51 171.913 352.505 171.902 352.503 171.891C352.503 171.891 352.541 171.905 352.596 171.927C356.423 172.088 360.225 172.347 363.997 172.69C377.918 158.694 397.056 154.103 397.056 154.103C384.309 167.271 369.974 171.649 365.184 172.807C368.458 173.12 371.711 173.489 374.936 173.919C376.638 174.151 378.329 174.405 380.016 174.672C391.765 167.227 404.481 166.489 404.481 166.489C394.144 173.21 384.796 174.58 381.187 174.858C387.102 175.819 392.902 177.011 398.514 178.525C403.513 178.581 414.293 179.602 425.195 186.46C425.195 186.46 409.211 186.958 395.934 178.803C392.339 177.916 388.655 177.155 384.918 176.494C387.451 177.67 395.218 182.029 397.951 192.239C397.951 192.239 387.22 187.16 384.167 176.366C380.979 175.814 377.756 175.328 374.515 174.907C372.547 174.658 370.568 174.434 368.583 174.226C371.895 175.769 381.995 181.454 385.544 194.719C385.544 194.719 371.611 188.133 367.618 174.123C363.548 173.714 359.441 173.401 355.305 173.195C360.386 175.891 370.967 183.11 374.942 197.962C374.942 197.962 358.103 190.001 352.859 173.086C350.172 172.981 347.475 172.922 344.767 172.919C341.593 172.912 338.405 172.951 335.213 173.038C339.772 174.601 356.397 181.447 364.568 200.457C364.568 200.457 342.898 192.556 334.209 173.066C327.613 173.269 320.995 173.7 314.386 174.483L313.938 174.531C320.141 176.181 338.27 182.419 349.827 201.088C349.827 201.088 325.035 194.537 312.221 174.715L310.584 174.891C309.95 174.963 309.316 175.016 308.683 175.105L306.789 175.395L299.214 176.553C296.68 176.886 294.189 177.465 291.684 177.951L284.177 179.46L283.759 177.995L291.363 176.51C293.901 176.033 296.421 175.464 298.986 175.141L306.65 174.012L308.566 173.731C309.206 173.645 309.847 173.595 310.488 173.525L310.998 173.474C324.348 151.492 349.467 140.957 349.467 140.957Z" fill="url(#paint21_linear)"/>
<path d="M148.781 126.545C162.598 153.679 185.877 167.436 193.686 171.458L191.552 171.028C184.425 169.516 177.27 168.304 170.117 167.298C152.853 142.65 123.653 130.186 123.653 130.186C138.172 151.94 158.021 162.849 166.696 166.828C161.623 166.162 156.555 165.599 151.503 165.111C150.305 164.994 149.112 164.894 147.916 164.791C129.745 144.293 103.394 135.429 103.394 135.429C118.935 153.618 137.293 161.747 145.042 164.56C143.904 164.474 142.766 164.386 141.63 164.313C141.636 164.3 141.641 164.286 141.646 164.274C141.646 164.274 141.594 164.286 141.519 164.306C136.486 163.981 131.477 163.781 126.497 163.688C109.678 144.526 85.0607 136.246 85.0607 136.246C100.425 154.229 118.769 161.587 124.929 163.669C120.606 163.608 116.304 163.619 112.033 163.708C109.779 163.762 107.536 163.844 105.298 163.939C90.6583 153.153 74.0644 150.504 74.0644 150.504C86.9284 160.207 99.0414 163.173 103.743 164.009C95.8929 164.386 88.1675 165.062 80.6564 166.161C74.0964 165.545 59.864 165.331 44.875 172.297C44.875 172.297 65.7745 175.097 84.0107 166.856C88.8142 166.255 93.7206 165.821 98.6854 165.516C95.2462 166.622 84.6199 170.933 79.9972 183.15C79.9972 183.15 94.5815 178.354 99.6839 165.462C103.92 165.217 108.194 165.058 112.485 164.983C115.09 164.944 117.706 164.939 120.33 164.954C115.834 166.404 102.013 172.032 96.0069 187.904C96.0069 187.904 114.943 181.687 121.606 164.959C126.983 165.011 132.399 165.186 137.839 165.499C130.902 168.13 116.299 175.585 109.573 193.356C109.573 193.356 132.457 185.842 141.057 165.7C144.59 165.939 148.13 166.235 151.679 166.601C155.843 167.026 160.015 167.51 164.192 168.054C158.056 169.357 135.567 175.526 122.916 197.851C122.916 197.851 152.126 191.071 165.503 168.224C174.128 169.376 182.76 170.814 191.342 172.682L191.925 172.802C183.625 173.989 159.227 179.201 142.174 200.644C142.174 200.644 175.339 195.955 194.158 173.264L196.286 173.706C197.11 173.882 197.937 174.035 198.756 174.23L201.209 174.846L211.021 177.311C214.308 178.067 217.512 179.122 220.747 180.064L230.434 182.952L231.132 181.203L221.316 178.332C218.038 177.397 214.794 176.349 211.464 175.601L201.533 173.163L199.051 172.554C198.222 172.361 197.385 172.211 196.553 172.038L195.89 171.904C180.63 142.971 148.781 126.545 148.781 126.545Z" fill="#260C4F"/>
<path d="M218.3 200.89C217.303 201.713 186.601 216.676 176.736 206.548L197.857 198.763C197.857 198.763 172.516 205.787 166.783 200.073C161.051 194.357 142.489 174.85 142.489 174.85C142.489 174.85 163.53 172.402 165.819 171.024C165.819 171.024 147.233 172.51 139.224 160.45C131.215 148.39 128.949 128.774 128.949 128.774L145.321 132.738C145.321 132.738 132.429 127.653 132.927 119.499C133.424 111.346 137.278 78.4807 135.02 75.5056C132.761 72.5305 156.456 76.2799 164.758 82.4369C173.061 88.5939 166.917 102.334 166.917 102.334C166.917 102.334 177.642 91.383 179.727 86.708C181.81 82.0331 198.515 97.9258 199.493 98.7486C200.47 99.5715 201.531 126.653 199.604 130.061C197.676 133.469 211.444 115.295 211.205 110.807C210.966 106.318 225.225 124.254 224.973 133.337C224.723 142.419 219.862 160.493 219.862 160.493C219.862 160.493 230.835 153.534 232.203 146.486C233.57 139.437 250.538 174.281 218.3 200.89Z" fill="url(#paint22_linear)"/>
<path opacity="0.49" d="M232.689 146.476C231.321 153.523 220.348 160.482 220.348 160.482C220.348 160.482 225.209 142.41 225.459 133.326C225.71 124.244 211.451 106.307 211.691 110.796C211.932 115.285 198.163 133.458 200.09 130.051C202.018 126.643 200.956 99.562 199.979 98.7391C199.001 97.9163 182.296 82.0236 180.213 86.6985C178.129 91.3735 167.403 102.325 167.403 102.325C167.403 102.325 173.547 88.583 165.245 82.426C158.014 77.0641 139.115 73.5298 135.847 74.6718L135.506 75.4947C135.506 75.4947 218.425 156.11 216.232 202.202C217.703 201.508 218.628 201.013 218.788 200.881C251.024 174.273 234.058 139.428 232.689 146.476Z" fill="url(#paint23_linear)"/>
<path d="M197.624 127.25C197.632 126.821 196.967 126.877 196.959 127.301C196.537 148.628 198.806 169.677 204.581 190.189C194.673 169.046 183.573 148.46 171.345 128.563C171.345 128.549 171.346 128.535 171.345 128.52C170.604 120.011 170.786 111.46 171.896 102.991C171.951 102.568 171.295 102.446 171.239 102.871C170.177 110.981 169.956 119.17 170.58 127.324C167.911 123.004 165.195 118.712 162.419 114.459C157.279 106.581 151.956 98.8242 146.464 91.1866C146.214 90.8396 145.668 91.2213 145.919 91.5709C151.655 99.5485 157.197 107.663 162.549 115.901C158.004 114.055 153.459 112.209 148.914 110.364C148.518 110.203 148.233 110.804 148.631 110.966C153.444 112.921 158.257 114.875 163.072 116.83C163.106 116.844 163.138 116.851 163.172 116.854C172.609 131.441 181.43 146.423 189.606 161.751C178.607 155.058 166.996 149.418 154.929 144.913C154.53 144.764 154.243 145.366 154.645 145.516C167.038 150.142 178.951 155.963 190.213 162.894C192.657 167.5 195.049 172.132 197.376 176.799C201.53 185.13 205.491 193.556 209.268 202.064C209.44 202.453 210.069 202.23 209.895 201.837C208.72 199.188 207.518 196.552 206.306 193.919C206.322 193.863 206.328 193.8 206.307 193.731C199.733 172.083 197.177 149.824 197.624 127.25Z" fill="#0C4B4F"/>
<path d="M248.517 60.3282C244.587 69.9307 257.121 102.615 249.396 103.202C241.671 103.789 239.305 68.0657 239.305 68.0657C239.305 68.0657 221.042 74.7001 215.598 81.6744C210.153 88.6487 234.385 125.813 231.382 130.335C228.38 134.857 205.486 104.271 204.693 90.7329C204.693 90.7329 181.233 124.838 201.833 144.149C222.432 163.459 213.779 169.125 200.169 155.249C186.558 141.372 180.866 127.848 180.866 127.848C180.866 127.848 166.456 163.056 182.538 184.26C198.62 205.463 213.129 204.481 222.724 198.624C232.318 192.766 239.824 181.461 239.824 181.461C252.697 201.357 262.569 225.776 290.249 217.233C302.184 213.551 313.97 208.515 297.741 201.04C281.511 193.564 275.301 196.779 269.43 187.206C264.806 179.666 270.535 178.177 278.083 181.539C285.632 184.903 299.257 203.668 309.028 193.861C318.8 184.055 321.185 162.045 306.868 163.967C292.549 165.889 277.481 168.942 280.852 161.41C284.223 153.878 313.475 167.521 316.258 152.28C319.041 137.04 308.405 108.862 308.405 108.862C308.405 108.862 277.446 132.128 272.085 127.961C265.096 122.527 305.975 116.203 301.019 96.6595C296.062 77.1159 296.062 77.1159 296.062 77.1159C296.062 77.1159 274.84 102.941 272.561 96.5541C270.28 90.1667 291.545 79.0101 285.661 64.5467C279.777 50.0832 277.879 45.5762 277.879 45.5762C277.879 45.5762 252.447 50.7257 248.517 60.3282ZM262.213 166.314C266.037 169.054 267.13 174.062 267.13 174.062C267.13 174.062 262.025 174.627 258.2 171.887C254.376 169.146 252.175 165.677 253.283 164.138C254.39 162.599 258.388 163.573 262.213 166.314ZM265.838 138.176C270.486 137.424 274.804 140.201 274.804 140.201C274.804 140.201 271.587 144.197 266.94 144.95C262.292 145.702 258.278 144.796 257.974 142.925C257.669 141.054 261.19 138.929 265.838 138.176ZM228.1 135.891C231.418 138.085 232.251 142.661 232.251 142.661C232.251 142.661 227.704 143.681 224.386 141.487C221.067 139.294 219.208 136.263 220.234 134.717C221.259 133.171 224.782 133.697 228.1 135.891ZM273.849 104.64C276.96 104.457 279.628 106.782 279.628 106.782C279.628 106.782 277.253 109.406 274.142 109.59C271.031 109.773 268.444 108.814 268.362 107.447C268.282 106.08 270.738 104.823 273.849 104.64ZM243.097 107.843C245.695 109.56 246.43 113.018 246.43 113.018C246.43 113.018 242.951 113.693 240.354 111.976C237.756 110.26 236.264 107.941 237.021 106.8C237.779 105.658 240.5 106.126 243.097 107.843Z" fill="url(#paint24_linear)"/>
<path d="M242.284 198.577C240.666 192.76 239.996 186.71 239.86 180.679C239.729 174.641 240.142 168.59 241.068 162.616L241.432 160.378L241.894 158.157C242.208 156.68 242.491 155.193 242.902 153.738C243.649 150.803 244.452 147.901 245.254 145.001L250.124 127.603L269.58 57.9973L269.664 58.0195L250.788 127.789L246.075 145.234C245.272 148.139 244.473 151.043 243.734 153.946C243.327 155.391 243.048 156.866 242.737 158.332L242.279 160.535L241.919 162.755C239.914 174.559 239.748 186.801 242.367 198.553L242.284 198.577Z" fill="#260C4F"/>
<path d="M240.356 175.869C238.206 177.448 235.924 178.737 233.545 179.861C231.165 180.973 228.683 181.862 226.139 182.503C223.601 183.176 220.973 183.468 218.361 183.501L216.399 183.468L214.45 183.246L213.478 183.129L212.523 182.914L210.613 182.483L212.532 182.861L213.491 183.05L214.464 183.139L216.408 183.305L218.359 183.286C220.952 183.182 223.543 182.821 226.032 182.087C228.527 181.385 230.951 180.441 233.265 179.281C235.568 178.117 237.81 176.761 239.819 175.198L240.356 175.869Z" fill="#260C4F"/>
<path d="M242.996 155.447C247.415 155.864 251.884 156.005 256.332 155.875C258.557 155.805 260.778 155.64 262.981 155.353C265.188 155.067 267.363 154.637 269.477 153.939C273.711 152.573 277.808 150.77 281.833 148.848C285.855 146.913 289.819 144.851 293.707 142.657C289.853 144.915 285.923 147.04 281.928 149.041C277.928 151.029 273.857 152.901 269.609 154.347C267.489 155.085 265.271 155.562 263.054 155.884C260.834 156.209 258.596 156.412 256.357 156.517C251.875 156.72 247.395 156.65 242.91 156.301L242.996 155.447Z" fill="#260C4F"/>
<path d="M240.529 164.105C236.335 162.991 232.398 161.274 228.652 159.194C227.733 158.647 226.792 158.137 225.891 157.559L223.218 155.785L220.664 153.845C219.805 153.209 219.04 152.456 218.225 151.767L217.025 150.709L215.901 149.567C215.167 148.792 214.371 148.076 213.69 147.255L211.634 144.803L211.123 144.189L210.662 143.536L209.742 142.229L208.822 140.923L208.365 140.269L207.964 139.578L206.362 136.815C205.791 135.915 205.393 134.923 204.933 133.964L203.588 131.072L204.981 133.94C205.457 134.889 205.87 135.873 206.456 136.763L208.101 139.491L208.511 140.172L208.98 140.816L209.918 142.102L210.857 143.389L211.326 144.031L211.846 144.633L213.931 147.037C214.622 147.842 215.426 148.541 216.167 149.297L217.3 150.412L218.51 151.443C219.332 152.111 220.101 152.846 220.965 153.462L223.528 155.342L226.205 157.054C227.105 157.611 228.046 158.101 228.964 158.626C232.687 160.619 236.655 162.258 240.714 163.264L240.529 164.105Z" fill="#260C4F"/>
<path d="M247.148 137.2C244.564 134.89 242.345 132.298 240.311 129.551C238.288 126.805 236.472 123.905 234.953 120.855C233.427 117.813 232.095 114.667 231.131 111.408C230.073 108.175 229.457 104.824 228.942 101.474C229.529 104.814 230.213 108.143 231.337 111.343C232.365 114.57 233.757 117.67 235.335 120.658C236.906 123.652 238.768 126.49 240.827 129.164C242.884 131.83 245.166 134.371 247.696 136.537L247.148 137.2Z" fill="#260C4F"/>
<path d="M251.054 125.91C254.447 125.041 257.814 123.958 261.117 122.745C264.423 121.529 267.667 120.144 270.81 118.557C273.943 116.956 276.982 115.143 279.742 112.955C282.481 110.765 284.983 108.163 286.529 104.973C285.049 108.194 282.586 110.864 279.879 113.122C277.147 115.379 274.128 117.264 271.009 118.939C267.88 120.6 264.645 122.058 261.346 123.347C258.043 124.635 254.699 125.788 251.265 126.743L251.054 125.91Z" fill="#260C4F"/>
<path d="M277.487 15.232C280.8 15.232 283.486 12.5518 283.486 9.2457C283.486 5.93956 280.8 3.2594 277.487 3.2594C274.173 3.2594 271.487 5.93956 271.487 9.2457C271.487 12.5518 274.173 15.232 277.487 15.232Z" fill="url(#paint25_linear)"/>
<path d="M363.709 25.2444C364.884 25.2444 365.836 24.2945 365.836 23.1227C365.836 21.9509 364.884 21.001 363.709 21.001C362.535 21.001 361.583 21.9509 361.583 23.1227C361.583 24.2945 362.535 25.2444 363.709 25.2444Z" fill="#260C4F"/>
<path d="M135.634 16.919C136.809 16.919 137.761 15.969 137.761 14.7972C137.761 13.6255 136.809 12.6755 135.634 12.6755C134.46 12.6755 133.508 13.6255 133.508 14.7972C133.508 15.969 134.46 16.919 135.634 16.919Z" fill="#260C4F"/>
<path d="M2.12736 168.172C3.30173 168.172 4.25374 167.222 4.25374 166.05C4.25374 164.878 3.30173 163.928 2.12736 163.928C0.95299 163.928 0.000976563 164.878 0.000976563 166.05C0.000976563 167.222 0.95299 168.172 2.12736 168.172Z" fill="#260C4F"/>
<path d="M488.872 168.171C490.047 168.171 490.999 167.221 490.999 166.05C490.999 164.878 490.047 163.928 488.872 163.928C487.698 163.928 486.746 164.878 486.746 166.05C486.746 167.221 487.698 168.171 488.872 168.171Z" fill="#260C4F"/>
<path d="M412.386 136.97C414.724 136.97 416.619 135.079 416.619 132.746C416.619 130.413 414.724 128.522 412.386 128.522C410.048 128.522 408.152 130.413 408.152 132.746C408.152 135.079 410.048 136.97 412.386 136.97Z" fill="url(#paint26_linear)"/>
<path d="M96.6962 92.5659C99.0342 92.5659 100.929 90.6748 100.929 88.3419C100.929 86.0091 99.0342 84.1179 96.6962 84.1179C94.3582 84.1179 92.4629 86.0091 92.4629 88.3419C92.4629 90.6748 94.3582 92.5659 96.6962 92.5659Z" fill="url(#paint27_linear)"/>
<defs>
<linearGradient id="paint0_linear" x1="92.9826" y1="148.143" x2="383.287" y2="148.143" gradientUnits="userSpaceOnUse">
<stop stop-color="#255B51"/>
<stop offset="1" stop-color="#112B27"/>
</linearGradient>
<linearGradient id="paint1_linear" x1="189.255" y1="25.1779" x2="199.872" y2="21.6203" gradientUnits="userSpaceOnUse">
<stop stop-color="#2F2F06"/>
<stop offset="0.9895" stop-color="#2F5B06"/>
</linearGradient>
<linearGradient id="paint2_linear" x1="175.057" y1="36.4329" x2="192.676" y2="30.5288" gradientUnits="userSpaceOnUse">
<stop stop-color="#2F2F06"/>
<stop offset="0.9895" stop-color="#2F5B06"/>
</linearGradient>
<linearGradient id="paint3_linear" x1="167.115" y1="67.1648" x2="198.555" y2="56.6297" gradientUnits="userSpaceOnUse">
<stop stop-color="#2F2F06"/>
<stop offset="0.9895" stop-color="#2F5B06"/>
</linearGradient>
<linearGradient id="paint4_linear" x1="169.1" y1="90.0724" x2="208.967" y2="76.7136" gradientUnits="userSpaceOnUse">
<stop stop-color="#2F2F06"/>
<stop offset="0.9895" stop-color="#2F5B06"/>
</linearGradient>
<linearGradient id="paint5_linear" x1="170.839" y1="107.915" x2="212.002" y2="94.1218" gradientUnits="userSpaceOnUse">
<stop stop-color="#2F2F06"/>
<stop offset="0.9895" stop-color="#2F5B06"/>
</linearGradient>
<linearGradient id="paint6_linear" x1="178.651" y1="126.001" x2="218.474" y2="112.657" gradientUnits="userSpaceOnUse">
<stop stop-color="#2F2F06"/>
<stop offset="0.9895" stop-color="#2F5B06"/>
</linearGradient>
<linearGradient id="paint7_linear" x1="181.272" y1="148.195" x2="225.233" y2="133.464" gradientUnits="userSpaceOnUse">
<stop stop-color="#2F2F06"/>
<stop offset="0.9895" stop-color="#2F5B06"/>
</linearGradient>
<linearGradient id="paint8_linear" x1="201.829" y1="35.5249" x2="226.795" y2="27.1589" gradientUnits="userSpaceOnUse">
<stop stop-color="#2F2F06"/>
<stop offset="0.9895" stop-color="#2F5B06"/>
</linearGradient>
<linearGradient id="paint9_linear" x1="212.577" y1="54.0047" x2="248.327" y2="42.0254" gradientUnits="userSpaceOnUse">
<stop stop-color="#2F2F06"/>
<stop offset="0.9895" stop-color="#2F5B06"/>
</linearGradient>
<linearGradient id="paint10_linear" x1="214.559" y1="74.4048" x2="253.613" y2="61.3182" gradientUnits="userSpaceOnUse">
<stop stop-color="#2F2F06"/>
<stop offset="0.9895" stop-color="#2F5B06"/>
</linearGradient>
<linearGradient id="paint11_linear" x1="222.304" y1="91.8802" x2="263.383" y2="78.1149" gradientUnits="userSpaceOnUse">
<stop stop-color="#2F2F06"/>
<stop offset="0.9895" stop-color="#2F5B06"/>
</linearGradient>
<linearGradient id="paint12_linear" x1="227.055" y1="112.361" x2="270.127" y2="97.9277" gradientUnits="userSpaceOnUse">
<stop stop-color="#2F2F06"/>
<stop offset="0.9895" stop-color="#2F5B06"/>
</linearGradient>
<linearGradient id="paint13_linear" x1="231.141" y1="130.555" x2="274.213" y2="116.122" gradientUnits="userSpaceOnUse">
<stop stop-color="#2F2F06"/>
<stop offset="0.9895" stop-color="#2F5B06"/>
</linearGradient>
<linearGradient id="paint14_linear" x1="216.318" y1="98.6409" x2="220.274" y2="97.3155" gradientUnits="userSpaceOnUse">
<stop stop-color="#2F2F06"/>
<stop offset="0.9895" stop-color="#2F5B06"/>
</linearGradient>
<linearGradient id="paint15_linear" x1="195.698" y1="55.0032" x2="212.659" y2="49.3197" gradientUnits="userSpaceOnUse">
<stop stop-color="#2F2F06"/>
<stop offset="0.9895" stop-color="#2F5B06"/>
</linearGradient>
<linearGradient id="paint16_linear" x1="192.339" y1="74.6704" x2="225.374" y2="63.6006" gradientUnits="userSpaceOnUse">
<stop stop-color="#2F2F06"/>
<stop offset="0.9895" stop-color="#2F5B06"/>
</linearGradient>
<linearGradient id="paint17_linear" x1="196.725" y1="89.2555" x2="229.761" y2="78.1855" gradientUnits="userSpaceOnUse">
<stop stop-color="#2F2F06"/>
<stop offset="0.9895" stop-color="#2F5B06"/>
</linearGradient>
<linearGradient id="paint18_linear" x1="202.109" y1="106.746" x2="235.113" y2="95.6863" gradientUnits="userSpaceOnUse">
<stop stop-color="#2F2F06"/>
<stop offset="0.9895" stop-color="#2F5B06"/>
</linearGradient>
<linearGradient id="paint19_linear" x1="212.037" y1="125.715" x2="241.367" y2="115.887" gradientUnits="userSpaceOnUse">
<stop stop-color="#2F2F06"/>
<stop offset="0.9895" stop-color="#2F5B06"/>
</linearGradient>
<linearGradient id="paint20_linear" x1="216.137" y1="142.39" x2="245.435" y2="132.572" gradientUnits="userSpaceOnUse">
<stop stop-color="#2F2F06"/>
<stop offset="0.9895" stop-color="#2F5B06"/>
</linearGradient>
<linearGradient id="paint21_linear" x1="283.756" y1="171.022" x2="425.195" y2="171.022" gradientUnits="userSpaceOnUse">
<stop stop-color="#2F2F06"/>
<stop offset="0.9895" stop-color="#2F5B06"/>
</linearGradient>
<linearGradient id="paint22_linear" x1="237.735" y1="173.116" x2="115.903" y2="114.513" gradientUnits="userSpaceOnUse">
<stop stop-color="#255B51"/>
<stop offset="0.801" stop-color="#3A7B05"/>
</linearGradient>
<linearGradient id="paint23_linear" x1="242.726" y1="163.744" x2="121.142" y2="105.261" gradientUnits="userSpaceOnUse">
<stop stop-color="#255B51"/>
<stop offset="0.801" stop-color="#3A7B05"/>
</linearGradient>
<linearGradient id="paint24_linear" x1="215.704" y1="67.1332" x2="272.602" y2="223.801" gradientUnits="userSpaceOnUse">
<stop stop-color="#6BD55E"/>
<stop offset="0.1877" stop-color="#5FBE48"/>
<stop offset="0.5369" stop-color="#4B9A23"/>
<stop offset="0.8201" stop-color="#3E830D"/>
<stop offset="1" stop-color="#3A7B05"/>
</linearGradient>
<linearGradient id="paint25_linear" x1="275.239" y1="14.7878" x2="279.691" y2="3.6687" gradientUnits="userSpaceOnUse">
<stop stop-color="#2F2F06"/>
<stop offset="0.9895" stop-color="#2F5B06"/>
</linearGradient>
<linearGradient id="paint26_linear" x1="410.808" y1="136.647" x2="413.948" y2="128.802" gradientUnits="userSpaceOnUse">
<stop stop-color="#2F2F06"/>
<stop offset="0.9895" stop-color="#2F5B06"/>
</linearGradient>
<linearGradient id="paint27_linear" x1="95.1073" y1="92.2611" x2="98.2479" y2="84.4169" gradientUnits="userSpaceOnUse">
<stop stop-color="#2F2F06"/>
<stop offset="0.9895" stop-color="#2F5B06"/>
</linearGradient>
</defs>
</svg>

