<svg width="328" height="292" viewBox="0 0 328 292" fill="none" xmlns="http://www.w3.org/2000/svg">
<path d="M113.821 18.3134C113.821 18.3134 161.575 22.1208 195.311 59.126C197.92 59.6283 199.356 60.0173 199.356 60.0173C199.356 60.0173 206.725 61.3337 217.969 65.5275C186.179 16.1624 136.669 1.04087 136.669 1.04087C230.793 -9.25309 278.588 60.1976 278.588 60.1976C278.588 60.1976 303.071 91.4376 305.26 138.046C305.311 138.121 305.365 138.198 305.419 138.283C346.954 205.516 318.483 267.798 318.483 267.798C322.556 224.721 315.475 191.531 303.747 166.19C301.63 179.941 297.357 194.552 289.987 209.751C249.543 293.159 164.98 291.322 164.98 291.322C238.147 252.004 244.03 164.922 244.03 164.922C244.579 137.083 239.975 113.692 232.435 94.0703C229.267 92.6406 227.38 91.9863 227.38 91.9863C222.833 90.0362 218.377 88.3489 213.964 86.7981C216.384 91.7982 218.629 97.0637 220.498 102.821C245.867 181.087 192.925 227.753 192.925 227.753C192.925 227.753 221.97 155.368 151.009 89.2221C145.704 84.6857 140.397 80.7469 135.11 77.2434C71.9465 84.8557 35.0084 127.812 35.0084 127.812C60.1021 93.7019 88.6885 75.4917 114.919 66.0607C53.6966 38.5793 0.263916 69.7548 0.263916 69.7548C49.531 7.65105 113.821 18.3134 113.821 18.3134Z" fill="#5DE2F4"/>
</svg>


