<svg width="969" height="344" viewBox="0 0 969 344" fill="none" xmlns="http://www.w3.org/2000/svg">
<g clip-path="url(#clip0)">
<path d="M801.956 275.961H761.644L651.562 142.972H691.874L725.984 184.287L760.092 142.972H800.407L746.139 208.566L801.956 275.961Z" fill="#666699"/>
<path d="M754.821 18.3134C754.821 18.3134 802.575 22.1208 836.311 59.126C838.92 59.6283 840.356 60.0173 840.356 60.0173C840.356 60.0173 847.725 61.3337 858.969 65.5275C827.179 16.1624 777.669 1.04087 777.669 1.04087C871.793 -9.25309 919.588 60.1976 919.588 60.1976C919.588 60.1976 944.071 91.4376 946.26 138.046C946.311 138.121 946.365 138.198 946.419 138.283C987.954 205.516 959.483 267.798 959.483 267.798C963.556 224.721 956.475 191.531 944.747 166.19C942.63 179.941 938.357 194.552 930.987 209.751C890.543 293.159 805.98 291.322 805.98 291.322C879.147 252.004 885.03 164.922 885.03 164.922C885.579 137.083 880.975 113.692 873.435 94.0703C870.267 92.6406 868.38 91.9863 868.38 91.9863C863.833 90.0362 859.377 88.3489 854.964 86.7981C857.384 91.7982 859.629 97.0637 861.498 102.821C886.867 181.087 833.925 227.753 833.925 227.753C833.925 227.753 862.97 155.368 792.009 89.2221C786.704 84.6857 781.397 80.7469 776.11 77.2434C712.946 84.8557 676.008 127.812 676.008 127.812C701.102 93.7019 729.689 75.4917 755.919 66.0607C694.697 38.5793 641.264 69.7548 641.264 69.7548C690.531 7.65105 754.821 18.3134 754.821 18.3134Z" fill="#5DE2F4"/>
<path d="M499.36 174.212C499.36 153.389 509.436 142.972 529.594 142.972H640.968C639.586 150.198 636.4 156.656 631.404 162.336C626.406 168.189 620.292 171.986 613.059 173.699L612.799 173.954H610.992C608.924 174.304 601.856 174.304 589.803 173.954H530.367V193.841H630.373C628.992 201.075 625.806 207.533 620.81 213.216C613.917 221.302 604.96 225.091 593.935 224.571L538.121 224.836H530.367V244.979L589.285 244.724L640.452 244.458C639.07 251.692 635.887 258.15 630.889 263.833C623.996 271.919 615.039 275.964 604.014 275.964H530.367C509.694 275.964 499.36 265.641 499.36 244.979V174.212Z" fill="url(#paint0_linear)"/>
<path d="M347.935 174.212C347.935 153.389 358.011 142.972 378.168 142.972H489.542C488.16 150.198 484.974 156.656 479.979 162.336C474.981 168.189 468.866 171.986 461.633 173.699L459.566 173.954C457.499 174.304 450.431 174.304 438.378 173.954H378.942V193.841H478.945C477.566 201.075 474.377 207.533 469.382 213.216C462.492 221.302 453.532 225.091 442.51 224.571L378.942 224.836V250.404C378.942 267.439 368.605 275.961 347.932 275.961V174.212H347.935Z" fill="url(#paint1_linear)"/>
<path d="M10.9732 155.102C18.0334 147.016 27.0785 142.972 38.1058 142.972H152.836C152.836 163.624 143.102 173.957 123.638 173.957H38.1058C33.7959 173.957 31.6435 177.318 31.6435 184.032C31.6435 190.575 33.7959 193.841 38.1058 193.841H121.571C132.593 193.841 141.723 197.971 148.961 206.237C155.681 214.164 159.04 223.718 159.04 234.901C159.04 246.094 155.681 255.649 148.961 263.565C141.723 271.832 132.593 275.961 121.571 275.961H6.83856C6.83856 255.309 17.8607 244.976 39.9153 244.976H121.574C125.876 244.976 128.033 241.614 128.033 234.901C128.033 228.188 125.876 224.834 121.574 224.834H38.1084C27.0811 224.834 17.9509 220.697 10.7154 212.438C3.82268 204.692 0.378906 195.222 0.378906 184.029C0.378906 172.836 3.90775 163.199 10.9732 155.102Z" fill="url(#paint2_linear)"/>
<path d="M755.916 66.0583C729.686 75.4893 701.099 93.6995 676.008 127.809C676.008 127.809 712.949 84.8558 776.11 77.241C781.397 80.7444 786.707 84.6833 792.006 89.2197C862.967 155.365 833.922 227.75 833.922 227.75C833.922 227.75 886.867 181.085 861.495 102.819C859.629 97.0612 857.384 91.7958 854.961 86.7956C859.374 88.349 863.831 90.0337 868.378 91.9838C868.378 91.9838 870.265 92.6381 873.433 94.0678C880.97 113.69 885.576 137.078 885.027 164.92C885.027 164.92 879.142 252.001 805.977 291.32C805.977 291.32 890.541 293.156 930.982 209.749C938.354 194.55 942.628 179.938 944.744 166.187C956.47 191.528 963.553 224.718 959.478 267.795C959.478 267.795 987.948 205.514 946.417 138.281C946.365 138.196 946.309 138.121 946.257 138.044C944.069 91.4351 919.586 60.1952 919.586 60.1952C919.586 60.1952 871.788 -9.25553 777.667 1.03843C777.667 1.03843 827.179 16.1625 858.969 65.5251C847.725 61.3312 840.356 60.0149 840.356 60.0149C840.356 60.0149 838.92 59.6259 836.311 59.1235C802.575 22.1209 754.821 18.3135 754.821 18.3135C754.821 18.3135 690.531 7.65118 641.261 69.7524C641.261 69.7524 694.694 38.5794 755.916 66.0583Z" fill="#05A8EB"/>
<path d="M38.1085 224.834H121.574C125.876 224.834 128.033 228.185 128.033 234.901C128.033 241.617 125.876 244.976 121.574 244.976H39.9154C17.8583 244.976 6.8387 255.306 6.8387 275.961H121.574C132.596 275.961 141.728 271.832 148.961 263.565C155.681 255.649 159.04 246.094 159.04 234.901C159.04 223.718 155.681 214.164 148.961 206.237C141.726 197.971 132.596 193.841 121.574 193.841H38.1085C33.796 193.841 31.6463 190.575 31.6463 184.032C31.6463 177.318 33.796 173.957 38.1085 173.957H123.638C143.102 173.957 152.838 163.627 152.838 142.972H38.1085C27.0786 142.972 18.0335 147.016 10.9759 155.102C3.90788 163.199 0.376465 172.839 0.376465 184.032C0.376465 195.225 3.82024 204.694 10.7129 212.44C17.9485 220.697 27.0786 224.834 38.1085 224.834Z" fill="#65B94A"/>
<path d="M202.966 276.226L305.295 275.961C325.107 275.961 335.015 266.757 335.015 248.328V184.029C335.015 172.836 331.525 163.196 324.55 155.1C317.572 147.014 308.481 142.969 297.286 142.969H230.101C219.071 142.969 210.114 147.014 203.224 155.1C198.228 160.783 195.042 167.241 193.663 174.474L297.288 173.954C301.766 173.954 304.006 177.316 304.006 184.029V199.009H202.19C181.863 199.522 171.789 209.501 171.959 228.961V247.56C171.959 266.502 182.293 276.046 202.966 276.226ZM202.966 229.996H304.003V246.53H202.966V229.996Z" fill="#FAB627"/>
<path d="M378.942 250.404V224.836L442.513 224.571C453.532 225.091 462.492 221.305 469.385 213.216C474.378 207.533 477.566 201.075 478.945 193.841H378.942V173.954H438.378C450.434 174.304 457.499 174.304 459.569 173.954L461.634 173.699C468.869 171.986 474.981 168.189 479.979 162.336C484.975 156.653 488.161 150.195 489.542 142.972H378.169C358.011 142.972 347.935 153.389 347.935 174.212V275.961C368.603 275.961 378.942 267.439 378.942 250.404Z" fill="#F5811E"/>
<path d="M530.37 275.961H604.017C615.041 275.961 623.999 271.917 630.892 263.83C635.887 258.148 639.071 251.689 640.452 244.456L589.288 244.721L530.373 244.976V224.834H538.124L593.938 224.569C604.963 225.089 613.923 221.302 620.815 213.213C625.808 207.531 628.992 201.072 630.376 193.839H530.373V173.952H589.809C601.862 174.302 608.93 174.302 610.997 173.952H612.804L613.064 173.697C620.297 171.983 626.412 168.186 631.41 162.334C636.403 156.651 639.591 150.193 640.97 142.969H529.597C509.442 142.969 499.366 153.387 499.366 174.209V244.976C499.361 265.639 509.694 275.961 530.37 275.961Z" fill="#DF393D"/>
<path d="M690.322 275.961L722.108 236.455L701.174 213.471L650.013 275.961H690.322Z" fill="#963D97"/>
<path d="M760.092 142.972L725.987 184.287L691.874 142.972H651.562L761.644 275.961H801.956L746.139 208.566L800.407 142.972H760.092Z" fill="#963D97"/>
<path d="M13.6282 315.215V342.714H8.45478V315.215H0V310.812H22.0417V315.215H13.6282Z" fill="black"/>
<path d="M39.4307 342.712V310.81H44.6041V322.578H60.2557V310.81H65.4291V342.712H60.2557V327.22H44.6041V342.712H39.4307Z" fill="black"/>
<path d="M86.1636 342.712V310.81H103.924V315.213H91.337V323.209H103.924V327.763H91.337V338.073H103.924V342.712H86.1636Z" fill="black"/>
<path d="M132.944 310.813H138.053L144.074 326.916C144.466 327.977 144.796 328.905 145.064 329.703C145.332 330.502 145.567 331.251 145.77 331.947C146.276 330.262 146.807 328.613 147.356 327.001C147.428 326.795 147.479 326.661 147.508 326.586L153.9 309.545L160.638 326.913C160.955 327.756 161.257 328.595 161.541 329.44C161.824 330.283 162.087 331.133 162.335 331.991C162.479 331.336 162.675 330.618 162.922 329.832C163.167 329.049 163.487 328.119 163.879 327.045L169.856 310.81H175.009L162.685 343.954L155.424 325.759C155.107 324.948 154.815 324.165 154.555 323.417C154.295 322.67 154.063 321.959 153.859 321.292C153.612 322.147 153.367 322.951 153.119 323.698C152.872 324.445 152.619 325.164 152.359 325.847L145.229 343.954L132.944 310.813Z" fill="black"/>
<path d="M224.585 326.828C224.585 329.092 224.16 331.235 223.315 333.255C222.467 335.275 221.232 337.075 219.608 338.66C217.971 340.244 216.123 341.457 214.066 342.297C212.009 343.14 209.849 343.562 207.588 343.562C205.299 343.562 203.113 343.137 201.033 342.287C198.953 341.439 197.118 340.229 195.525 338.66C193.901 337.075 192.669 335.282 191.828 333.278C190.988 331.272 190.568 329.123 190.568 326.828C190.568 324.548 190.988 322.397 191.828 320.375C192.669 318.358 193.901 316.549 195.525 314.95C197.146 313.365 198.987 312.16 201.046 311.333C203.103 310.506 205.284 310.094 207.588 310.094C209.877 310.094 212.048 310.506 214.099 311.333C216.149 312.16 217.987 313.368 219.608 314.95C221.232 316.562 222.467 318.381 223.315 320.408C224.16 322.438 224.585 324.576 224.585 326.828ZM219.196 326.828C219.196 325.213 218.902 323.682 218.314 322.23C217.726 320.777 216.883 319.486 215.783 318.353C214.71 317.232 213.468 316.372 212.055 315.769C210.643 315.166 209.155 314.865 207.588 314.865C206.021 314.865 204.534 315.161 203.121 315.759C201.709 316.354 200.451 317.217 199.35 318.353C198.249 319.471 197.406 320.756 196.829 322.209C196.249 323.662 195.96 325.202 195.96 326.828C195.96 328.44 196.249 329.963 196.829 331.4C197.409 332.84 198.249 334.123 199.35 335.259C200.451 336.393 201.703 337.256 203.111 337.853C204.516 338.448 206.011 338.745 207.588 338.745C209.137 338.745 210.614 338.448 212.012 337.853C213.409 337.256 214.667 336.393 215.783 335.259C216.883 334.123 217.729 332.835 218.314 331.39C218.902 329.947 219.196 328.425 219.196 326.828Z" fill="black"/>
<path d="M248.8 328.441V342.712H243.952V310.81H251.169C253.285 310.81 254.925 310.949 256.093 311.225C257.26 311.5 258.255 311.956 259.083 312.598C260.067 313.366 260.828 314.36 261.366 315.584C261.903 316.802 262.171 318.139 262.171 319.592C262.171 322.15 261.555 324.152 260.322 325.594C259.09 327.039 257.271 327.907 254.866 328.199L265.821 342.712H259.975L249.388 328.441H248.8ZM249.128 324.412H250.063C252.803 324.412 254.621 324.092 255.52 323.453C256.417 322.812 256.868 321.681 256.868 320.053C256.868 318.296 256.386 317.057 255.422 316.338C254.458 315.62 252.672 315.259 250.066 315.259H249.13V324.412H249.128Z" fill="black"/>
<path d="M282.317 342.712V310.81H287.491V338.07H299.054V342.709H282.317V342.712Z" fill="black"/>
<path d="M316.686 342.712V310.81H323.663C328.2 310.81 331.391 311.042 333.239 311.498C335.085 311.956 336.706 312.721 338.098 313.796C339.939 315.205 341.333 317.013 342.282 319.223C343.23 321.431 343.705 323.951 343.705 326.784C343.705 329.615 343.23 332.127 342.282 334.312C341.333 336.496 339.939 338.302 338.098 339.726C336.709 340.803 335.124 341.568 333.35 342.024C331.574 342.483 328.811 342.712 325.058 342.712H323.668H316.686ZM321.859 338.029H326.207C328.6 338.029 330.391 337.866 331.587 337.55C332.783 337.23 333.822 336.692 334.706 335.934C335.91 334.904 336.812 333.624 337.413 332.088C338.016 330.556 338.315 328.773 338.315 326.74C338.315 324.705 338.013 322.923 337.413 321.39C336.812 319.857 335.91 318.577 334.706 317.544C333.806 316.789 332.732 316.251 331.479 315.931C330.226 315.612 328.267 315.452 325.599 315.452H323.73H321.862V338.029H321.859Z" fill="black"/>
<path d="M402.461 326.959C402.401 326.712 402.308 326.029 402.177 324.909C402.061 323.981 401.96 323.211 401.873 322.601C401.741 323.324 401.558 324.054 401.319 324.777C401.079 325.504 400.777 326.246 400.416 327.001L392.091 343.997L383.765 326.653C383.417 325.939 383.115 325.251 382.862 324.582C382.61 323.912 382.388 323.252 382.2 322.598C382.187 323.268 382.13 323.966 382.038 324.7C381.942 325.434 381.8 326.202 381.612 327.001L378.199 342.709H373.438L380.96 309.458L390.351 329.592C390.498 329.909 390.717 330.44 391.013 331.182C391.31 331.923 391.668 332.84 392.088 333.928C392.392 333.013 392.869 331.849 393.521 330.44C393.696 330.063 393.825 329.772 393.913 329.569L403.084 309.458L410.779 342.709H405.974L402.461 326.959Z" fill="black"/>
<path d="M449.366 342.712L445.757 334.497H433.15L429.456 342.712H424.022L439.434 309.548L454.826 342.712H449.366ZM435.065 330.182H443.932L440.672 322.905C440.484 322.441 440.288 321.905 440.084 321.302C439.88 320.7 439.677 320.027 439.473 319.285C439.3 319.983 439.115 320.633 438.919 321.235C438.723 321.841 438.524 322.397 438.321 322.905L435.065 330.182Z" fill="black"/>
<path d="M476.104 328.441V342.712H471.255V310.81H478.473C480.589 310.81 482.229 310.949 483.396 311.225C484.564 311.5 485.559 311.956 486.386 312.598C487.371 313.366 488.131 314.36 488.67 315.584C489.206 316.802 489.474 318.139 489.474 319.592C489.474 322.15 488.858 324.152 487.626 325.594C486.394 327.039 484.574 327.907 482.169 328.199L493.124 342.712H487.278L476.692 328.441H476.104ZM476.429 324.412H477.364C480.105 324.412 481.922 324.092 482.821 323.453C483.718 322.812 484.17 321.681 484.17 320.053C484.17 318.296 483.688 317.057 482.723 316.338C481.759 315.62 479.973 315.259 477.367 315.259H476.431V324.412H476.429Z" fill="black"/>
<path d="M509.622 342.712V310.81H514.795V324.018L526.23 310.81H532.556L519.948 324.994L534.056 342.709H527.382L514.795 326.411V342.709H509.622V342.712Z" fill="black"/>
<path d="M550.661 342.712V310.81H568.421V315.213H555.835V323.209H568.421V327.763H555.835V338.073H568.421V342.712H550.661Z" fill="black"/>
<path d="M598.07 315.215V342.714H592.896V315.215H584.441V310.812H606.483V315.215H598.07Z" fill="black"/>
<path d="M628.718 328.397V342.712H623.869V310.81H631.695C634.013 310.81 635.719 310.939 636.814 311.191C637.907 311.444 638.861 311.864 639.673 312.443C640.673 313.183 641.457 314.182 642.021 315.439C642.586 316.696 642.869 318.082 642.869 319.589C642.869 321.101 642.586 322.495 642.021 323.773C641.457 325.051 640.673 326.053 639.673 326.782C638.861 327.361 637.907 327.776 636.814 328.021C635.719 328.268 634.013 328.392 631.695 328.392H630.674H628.718V328.397ZM629.045 324.149H630.373C633.242 324.149 635.154 323.837 636.111 323.211C637.067 322.585 637.544 321.483 637.544 319.898C637.544 318.201 637.034 317 636.013 316.302C634.992 315.604 633.113 315.256 630.373 315.256H629.045V324.149Z" fill="black"/>
<path d="M660.999 342.712V310.81H666.172V338.07H677.736V342.709H660.999V342.712Z" fill="black"/>
<path d="M716.385 342.712L712.776 334.497H700.169L696.475 342.712H691.041L706.451 309.548L721.842 342.712H716.385ZM702.081 330.182H710.949L707.688 322.905C707.5 322.441 707.304 321.905 707.1 321.302C706.897 320.7 706.693 320.027 706.489 319.285C706.317 319.983 706.131 320.633 705.935 321.235C705.739 321.841 705.541 322.397 705.337 322.905L702.081 330.182Z" fill="black"/>
<path d="M763.814 318.571C762.35 317.322 760.804 316.384 759.172 315.761C757.543 315.135 755.829 314.823 754.032 314.823C750.555 314.823 747.725 315.944 745.544 318.18C743.363 320.416 742.273 323.314 742.273 326.874C742.273 330.316 743.332 333.157 745.456 335.393C747.58 337.629 750.256 338.747 753.488 338.747C755.373 338.747 757.164 338.415 758.868 337.745C760.572 337.075 762.206 336.066 763.771 334.716V340.579C762.379 341.581 760.866 342.328 759.226 342.823C757.587 343.315 755.813 343.562 753.901 343.562C751.465 343.562 749.217 343.163 747.152 342.364C745.088 341.565 743.273 340.388 741.708 338.832C740.156 337.307 738.966 335.509 738.133 333.441C737.3 331.369 736.883 329.164 736.883 326.828C736.883 324.489 737.3 322.289 738.133 320.236C738.966 318.182 740.172 316.377 741.752 314.821C743.33 313.252 745.142 312.064 747.186 311.258C749.227 310.452 751.439 310.05 753.816 310.05C755.684 310.05 757.468 310.32 759.162 310.864C760.858 311.41 762.502 312.234 764.095 313.339L763.814 318.571Z" fill="black"/>
<path d="M783.66 342.712V310.81H801.42V315.213H788.833V323.209H801.42V327.763H788.833V338.073H801.42V342.712H783.66Z" fill="black"/>
</g>
<defs>
<linearGradient id="paint0_linear" x1="499.361" y1="209.466" x2="640.968" y2="209.466" gradientUnits="userSpaceOnUse">
<stop stop-color="#EF435A"/>
<stop offset="0.0104" stop-color="#F04B5A"/>
<stop offset="0.0703" stop-color="#F57658"/>
<stop offset="0.1242" stop-color="#F89457"/>
<stop offset="0.17" stop-color="#FAA756"/>
<stop offset="0.202" stop-color="#FBAE56"/>
<stop offset="0.2917" stop-color="#F7CF6B"/>
<stop offset="0.3736" stop-color="#F5E67A"/>
<stop offset="0.4247" stop-color="#F4EF7F"/>
<stop offset="0.4594" stop-color="#CFEE8C"/>
<stop offset="0.5142" stop-color="#9AEC9F"/>
<stop offset="0.5619" stop-color="#74EBAD"/>
<stop offset="0.5999" stop-color="#5DEAB5"/>
<stop offset="0.6237" stop-color="#54EAB8"/>
<stop offset="0.6533" stop-color="#56E8C4"/>
<stop offset="0.7493" stop-color="#5BE4E7"/>
<stop offset="0.8011" stop-color="#5DE2F4"/>
<stop offset="0.8652" stop-color="#66B0D8"/>
<stop offset="0.9239" stop-color="#6D8AC2"/>
<stop offset="0.9708" stop-color="#7173B5"/>
<stop offset="1" stop-color="#736AB0"/>
</linearGradient>
<linearGradient id="paint1_linear" x1="347.934" y1="209.466" x2="489.541" y2="209.466" gradientUnits="userSpaceOnUse">
<stop stop-color="#EF435A"/>
<stop offset="0.0104" stop-color="#F04B5A"/>
<stop offset="0.0703" stop-color="#F57658"/>
<stop offset="0.1242" stop-color="#F89457"/>
<stop offset="0.17" stop-color="#FAA756"/>
<stop offset="0.202" stop-color="#FBAE56"/>
<stop offset="0.2917" stop-color="#F7CF6B"/>
<stop offset="0.3736" stop-color="#F5E67A"/>
<stop offset="0.4247" stop-color="#F4EF7F"/>
<stop offset="0.4594" stop-color="#CFEE8C"/>
<stop offset="0.5142" stop-color="#9AEC9F"/>
<stop offset="0.5619" stop-color="#74EBAD"/>
<stop offset="0.5999" stop-color="#5DEAB5"/>
<stop offset="0.6237" stop-color="#54EAB8"/>
<stop offset="0.6533" stop-color="#56E8C4"/>
<stop offset="0.7493" stop-color="#5BE4E7"/>
<stop offset="0.8011" stop-color="#5DE2F4"/>
<stop offset="0.8652" stop-color="#66B0D8"/>
<stop offset="0.9239" stop-color="#6D8AC2"/>
<stop offset="0.9708" stop-color="#7173B5"/>
<stop offset="1" stop-color="#736AB0"/>
</linearGradient>
<linearGradient id="paint2_linear" x1="0.377617" y1="209.466" x2="159.041" y2="209.466" gradientUnits="userSpaceOnUse">
<stop stop-color="#EF435A"/>
<stop offset="0.0104" stop-color="#F04B5A"/>
<stop offset="0.0703" stop-color="#F57658"/>
<stop offset="0.1242" stop-color="#F89457"/>
<stop offset="0.17" stop-color="#FAA756"/>
<stop offset="0.202" stop-color="#FBAE56"/>
<stop offset="0.2917" stop-color="#F7CF6B"/>
<stop offset="0.3736" stop-color="#F5E67A"/>
<stop offset="0.4247" stop-color="#F4EF7F"/>
<stop offset="0.4594" stop-color="#CFEE8C"/>
<stop offset="0.5142" stop-color="#9AEC9F"/>
<stop offset="0.5619" stop-color="#74EBAD"/>
<stop offset="0.5999" stop-color="#5DEAB5"/>
<stop offset="0.6237" stop-color="#54EAB8"/>
<stop offset="0.6533" stop-color="#56E8C4"/>
<stop offset="0.7493" stop-color="#5BE4E7"/>
<stop offset="0.8011" stop-color="#5DE2F4"/>
<stop offset="0.8652" stop-color="#66B0D8"/>
<stop offset="0.9239" stop-color="#6D8AC2"/>
<stop offset="0.9708" stop-color="#7173B5"/>
<stop offset="1" stop-color="#736AB0"/>
</linearGradient>
<clipPath id="clip0">
<rect width="969" height="344" fill="white"/>
</clipPath>
</defs>
</svg>
