<?xml version="1.0" encoding="utf-8"?>
<!-- Generator: Adobe Illustrator 22.1.0, SVG Export Plug-In . SVG Version: 6.00 Build 0)  -->
<svg version="1.1" id="Layer_1" xmlns="http://www.w3.org/2000/svg" xmlns:xlink="http://www.w3.org/1999/xlink" x="0px" y="0px"
	 viewBox="0 0 800 800" style="enable-background:new 0 0 800 800;" xml:space="preserve">
<style type="text/css">
	.st0{fill:#00C0ED;}
</style>
<path class="st0" d="M397.5,15C183.5,15,10,188.5,10,402.5S183.5,790,397.5,790S785,616.5,785,402.5S611.5,15,397.5,15z
	 M656.1,615.6c7.2-76.6-5.5-135.6-26.5-180.4c-3.6,24.6-11.3,50.9-24.5,78.1c-71.2,146.9-220,143.6-220,143.6
	c128.8-69.2,139.1-222.6,139.1-222.6c1-49.2-7.2-90.6-20.5-125.2c-5-2.2-7.9-3.2-7.9-3.2c-7.9-3.4-15.7-6.4-23.4-9.2
	c4.2,8.8,8,18.2,11.3,28.3c44.6,137.8-48.5,220-48.5,220s51.1-127.5-73.8-243.9c-9.3-8-18.7-15-28-21.2
	c-111.2,13.4-176.2,89.1-176.2,89.1c44.1-60,94.5-92.2,140.6-108.8c-107.7-48.4-201.8,6.6-201.8,6.6
	c86.7-109.4,199.8-90.6,199.8-90.6s84.4,6.5,143.8,71.9c4.4,0.9,6.8,1.5,6.8,1.5s12.4,2.1,31.7,9.3
	c-56-86.6-142.9-113.1-142.9-113.1C500.9,127.7,585,250,585,250s42.5,54.3,46.9,135.6c0.4,0.6,0.8,1.3,1.2,1.9
	C706.2,505.9,656.1,615.6,656.1,615.6z"/>
</svg>
