<?xml version="1.0" encoding="utf-8"?>
<!-- Generator: Adobe Illustrator 17.0.0, SVG Export Plug-In . SVG Version: 6.00 Build 0)  -->
<!DOCTYPE svg PUBLIC "-//W3C//DTD SVG 1.1//EN" "http://www.w3.org/Graphics/SVG/1.1/DTD/svg11.dtd">
<svg version="1.1" id="Layer_1" xmlns="http://www.w3.org/2000/svg" xmlns:xlink="http://www.w3.org/1999/xlink" x="0px" y="0px"
	 width="187px" height="123.063px" viewBox="0 0 187 123.063" enable-background="new 0 0 187 123.063" xml:space="preserve">
<g display="none">
	<g display="inline">
		<path fill="#54E9B7" d="M57.037-125.02c-1.354-1.245-2.621-2.577-3.844-3.953c-1.092-1.267-2.14-2.555-3.145-3.909
			c-1.616-2.162-3.057-4.477-4.324-6.879c-0.786-1.507-1.529-3.036-2.184-4.608c-0.939-2.249-1.725-4.542-2.359-6.879
			c-0.721-2.686-1.245-5.438-1.551-8.211c-0.131-1.245-0.262-2.511-0.284-3.756c-0.066-2.337-0.022-4.673,0.153-7.01
			c0.022-0.284,0.022-0.59,0.066-0.895c0.109-0.852,0.24-1.725,0.349-2.599c0.109-0.939,0.284-1.878,0.48-2.795
			c0.24-1.179,0.524-2.359,0.83-3.516c0.502-1.856,1.114-3.713,1.813-5.525c0.808-2.075,1.747-4.084,2.795-6.049
			c0.786-1.463,1.638-2.883,2.533-4.259c0.939-1.42,1.944-2.795,3.014-4.127c1.07-1.332,2.184-2.599,3.341-3.822
			c1.179-1.245,2.446-2.446,3.756-3.56c0.874-0.764,1.769-1.485,2.686-2.184c0.568-0.415,1.136-0.852,1.703-1.288
			c-13.78,0-27.538,0-41.297,0c-0.262,0-0.349,0.022-0.393,0.284c0,30.006,0,60.012,0,89.997c0,0.306,0.087,0.328,0.349,0.328
			c13.78,0,27.538,0,41.319,0c0.022-0.066-0.022-0.109-0.066-0.153C60.75-121.788,58.828-123.339,57.037-125.02z"/>
		<path fill="#54E9B7" d="M167.519-210.846c-13.736,0-27.495,0-41.253-0.044c0.044,0.087,0.087,0.131,0.153,0.197
			c0.808,0.546,1.572,1.157,2.337,1.747c1.529,1.223,3.014,2.511,4.411,3.865c0.721,0.655,1.398,1.398,2.053,2.118
			c0.24,0.262,0.502,0.524,0.721,0.786c1.07,1.288,2.162,2.577,3.145,3.931c1.288,1.769,2.49,3.582,3.56,5.481
			c0.764,1.31,1.441,2.642,2.075,4.018c0.721,1.572,1.354,3.167,1.944,4.783c0.721,2.075,1.332,4.193,1.813,6.333
			c0.24,1.157,0.459,2.337,0.655,3.494c0.175,1.048,0.284,2.118,0.393,3.188c0.153,1.354,0.218,2.73,0.262,4.084
			c0.022,1.157,0.022,2.315-0.044,3.472c-0.065,1.114-0.131,2.206-0.218,3.298c-0.087,0.917-0.197,1.834-0.328,2.73
			c-0.24,1.551-0.524,3.079-0.895,4.608c-0.524,2.228-1.201,4.411-2.009,6.552c-0.939,2.533-2.075,5.001-3.385,7.36
			c-1.005,1.834-2.118,3.603-3.341,5.307c-1.441,2.031-3.014,3.975-4.717,5.787c-1.332,1.441-2.73,2.773-4.215,4.04
			c-1.136,0.961-2.293,1.922-3.516,2.795c-0.284,0.218-0.655,0.349-0.83,0.699c13.736,0,27.495,0,41.231,0.022
			c0.262,0,0.349-0.044,0.349-0.328c0-30.006,0-60.012,0-89.997C167.868-210.802,167.781-210.846,167.519-210.846z"/>
		<line fill="#54E9B7" x1="63.598" y1="-169.914" x2="63.674" y2="-169.991"/>
		<polygon fill="#54E9B7" points="63.587,-169.903 63.609,-169.903 63.598,-169.914 63.587,-169.925 		"/>
	</g>
	<g display="inline">
		<path fill="#54E9B7" d="M94.584-210.889c-25.039,0-45.338,20.298-45.338,45.338c0,25.039,20.298,45.338,45.338,45.338
			s45.338-20.298,45.338-45.338C139.921-190.591,119.623-210.889,94.584-210.889z M63.587-169.903v-0.022l0.011,0.011l0.011,0.011
			H63.587z M128.035-138.473c-0.044,0.175-0.131,0.306-0.24,0.437c0.371-3.865,0.306-7.753-0.175-11.618
			c-0.48-3.865-1.551-7.622-3.145-11.16c-0.175,0.218-0.131,0.459-0.175,0.677c-1.442,7.359-4.717,13.736-10.155,18.934
			c-4.062,3.887-8.91,6.377-14.348,7.753c-1.922,0.502-3.909,0.808-5.896,0.939c-0.306,0.022-0.612,0-0.917,0
			c0-0.131,0.131-0.131,0.196-0.175c5.94-3.32,10.308-8.124,13.365-14.151c2.075-4.106,3.451-8.495,4.127-13.038
			c0.262-1.594,0.197-3.21,0.109-4.826c-0.175-4.215-1.005-8.386-2.468-12.339c-0.044-0.175-0.175-0.328-0.349-0.393
			c-1.223-0.48-2.446-0.961-3.647-1.441c-0.065-0.044-0.175-0.044-0.24,0c0.109,0.197,0.196,0.415,0.284,0.611
			c2.053,4.739,3.058,9.675,2.577,14.85c-0.568,6.137-2.992,11.443-7.185,15.942c-0.109,0.109-0.24,0.24-0.371,0.349
			c0,0.022-0.044,0.022-0.087,0.022c0.175-0.611,0.349-1.223,0.502-1.834c0.699-2.926,0.917-5.962,0.633-8.954
			c-0.655-6.988-3.647-12.907-8.299-18.082c-1.682-1.9-3.604-3.56-5.7-4.979c-0.218-0.175-0.502-0.24-0.786-0.197
			c-8.43,1.201-15.637,4.848-21.708,10.766c-0.044,0.035-0.092,0.074-0.14,0.113c0.623-0.863,1.282-1.678,1.996-2.472
			c3.647-4.171,7.927-7.512,12.994-9.827c0.437-0.197,0.874-0.371,1.289-0.546c0.415-0.175,0.852-0.349,1.288-0.524
			c-0.764-0.699-5.831-2.14-8.495-2.424c-5.94-0.655-11.946,0.437-17.296,3.123c0-0.087,0-0.131,0.022-0.153
			c3.363-4.149,7.403-7.403,12.361-9.434c4.04-1.66,8.233-2.511,12.579-2.075c7.36,0.743,13.758,3.625,18.956,8.976
			c0.262,0.284,0.612,0.459,1.005,0.502c1.398,0.284,2.752,0.677,4.084,1.157c0.087,0.044,0.196,0.066,0.284,0.022
			c-2.162-3.341-4.848-6.268-7.971-8.714c-3.101-2.468-6.595-4.433-10.33-5.809c0.459-0.109,0.939-0.175,1.42-0.175
			c6.923-0.48,13.518,0.83,19.633,4.171c4.389,2.38,8.189,5.482,11.181,9.522c1.944,2.664,3.319,5.634,4.346,8.757
			c0.917,2.774,1.463,5.656,1.616,8.583c0,0.175,0.066,0.349,0.175,0.502c2.402,3.887,3.997,8.233,4.674,12.776
			c0.437,3.014,0.459,6.049,0.065,9.063C129.388-142.95,128.843-140.657,128.035-138.473z"/>
		<polygon fill="#54E9B7" points="63.587,-169.925 63.587,-169.903 63.609,-169.903 63.598,-169.914 		"/>
	</g>
</g>
<g>
	<path fill="#5DE1F3" d="M93.584,11.4c-26.795,0-48.516,21.721-48.516,48.516c0,26.795,21.721,48.516,48.516,48.516
		S142.1,86.711,142.1,59.916C142.1,33.121,120.378,11.4,93.584,11.4z M60.414,55.259v-0.023l0.012,0.012l0.012,0.012H60.414z
		 M129.38,88.894c-0.047,0.187-0.14,0.327-0.257,0.467c0.397-4.136,0.327-8.296-0.187-12.433c-0.514-4.136-1.659-8.156-3.365-11.942
		c-0.187,0.234-0.14,0.491-0.187,0.725c-1.543,7.875-5.048,14.699-10.867,20.261c-4.347,4.16-9.535,6.824-15.354,8.296
		c-2.056,0.538-4.183,0.865-6.31,1.005c-0.327,0.023-0.654,0-0.981,0c0-0.14,0.14-0.14,0.21-0.187
		c6.357-3.552,11.031-8.694,14.302-15.144c2.22-4.393,3.692-9.091,4.417-13.952c0.28-1.706,0.21-3.435,0.117-5.165
		c-0.187-4.51-1.075-8.974-2.641-13.204c-0.047-0.187-0.187-0.35-0.374-0.421c-1.309-0.514-2.617-1.028-3.903-1.542
		c-0.07-0.047-0.187-0.047-0.257,0c0.117,0.21,0.21,0.444,0.304,0.654c2.197,5.071,3.272,10.353,2.758,15.891
		c-0.608,6.567-3.202,12.246-7.689,17.06c-0.117,0.117-0.257,0.257-0.397,0.374c0,0.023-0.047,0.023-0.093,0.023
		c0.187-0.654,0.374-1.309,0.537-1.963c0.748-3.132,0.982-6.38,0.678-9.582c-0.701-7.478-3.903-13.811-8.88-19.35
		c-1.8-2.033-3.856-3.809-6.1-5.328c-0.234-0.187-0.537-0.257-0.841-0.21c-9.021,1.285-16.733,5.188-23.229,11.521
		c-0.047,0.038-0.098,0.079-0.15,0.121c0.667-0.924,1.371-1.796,2.136-2.645c3.903-4.464,8.483-8.039,13.905-10.516
		c0.468-0.21,0.935-0.397,1.379-0.584c0.444-0.187,0.911-0.374,1.379-0.561c-0.818-0.748-6.24-2.29-9.091-2.594
		c-6.357-0.701-12.783,0.467-18.509,3.342c0-0.093,0-0.14,0.023-0.164c3.599-4.44,7.922-7.922,13.227-10.096
		c4.324-1.776,8.811-2.688,13.461-2.22c7.876,0.795,14.723,3.879,20.285,9.605c0.28,0.304,0.654,0.491,1.075,0.537
		c1.496,0.304,2.945,0.724,4.37,1.239c0.093,0.047,0.21,0.07,0.304,0.023c-2.314-3.576-5.188-6.707-8.53-9.324
		c-3.318-2.641-7.058-4.744-11.054-6.216c0.491-0.117,1.005-0.187,1.519-0.187c7.408-0.514,14.466,0.888,21.009,4.464
		c4.697,2.547,8.763,5.866,11.965,10.189c2.08,2.851,3.552,6.029,4.65,9.371c0.981,2.968,1.566,6.053,1.729,9.184
		c0,0.187,0.07,0.374,0.187,0.537c2.571,4.16,4.277,8.81,5.001,13.671c0.467,3.225,0.491,6.473,0.07,9.698
		C130.829,84.103,130.245,86.556,129.38,88.894z"/>
	<polygon fill="#5DE1F3" points="60.414,55.236 60.414,55.259 60.437,55.259 60.425,55.248 	"/>
</g>
</svg>
