<?xml version="1.0" encoding="UTF-8" standalone="no"?>
<svg xmlns:dc="http://purl.org/dc/elements/1.1/" 
  xmlns:cc="http://creativecommons.org/ns#" 
  xmlns:rdf="http://www.w3.org/1999/02/22-rdf-syntax-ns#" 
  xmlns:svg="http://www.w3.org/2000/svg" 
  xmlns="http://www.w3.org/2000/svg" viewBox="0 0 1706.6667 1706.6667" height="1706.6667" width="1706.6667" xml:space="preserve" id="svg2" version="1.1">
  <metadata id="metadata8">
    <rdf:RDF>
      <cc:Work rdf:about="">
        <dc:format>image/svg+xml</dc:format>
        <dc:type rdf:resource="http://purl.org/dc/dcmitype/StillImage" />
        <dc:title></dc:title>
      </cc:Work>
    </rdf:RDF>
  </metadata>
  <defs id="defs6">
    <clipPath id="clipPath18" clipPathUnits="userSpaceOnUse">
      <path id="path16" d="M 0,1280 H 1280 V 0 H 0 Z" />
    </clipPath>
  </defs>
  <g transform="matrix(1.3333333,0,0,-1.3333333,0,1706.6667)" id="g10">
    <g id="g12">
      <g clip-path="url(#clipPath18)" id="g14">
        <g transform="translate(899.8281,594.1328)" id="g20">
          <path id="path22" style="fill:#54eab8;fill-opacity:1;fill-rule:nonzero;stroke:none" d="m 0,0 c -12.577,-64.219 -41.161,-119.863 -88.611,-165.217 -35.445,-33.92 -77.749,-55.644 -125.2,-67.649 -16.769,-4.384 -34.11,-7.051 -51.451,-8.195 -2.668,-0.19 -5.336,0 -8.004,0 0,1.144 1.143,1.144 1.715,1.525 51.833,28.966 89.946,70.889 116.624,123.484 18.104,35.825 30.109,74.129 36.017,113.766 2.286,13.911 1.715,28.013 0.952,42.114 -1.524,36.778 -8.766,73.176 -21.533,107.668 -0.381,1.524 -1.525,2.858 -3.049,3.43 -10.672,4.192 -21.343,8.385 -31.824,12.577 -0.572,0.381 -1.525,0.381 -2.096,0 0.952,-1.715 1.715,-3.621 2.477,-5.336 17.913,-41.352 26.678,-84.419 22.486,-129.582 -4.954,-53.548 -26.107,-99.855 -62.694,-139.11 -0.954,-0.954 -2.097,-2.097 -3.241,-3.049 0,-0.192 -0.38,-0.192 -0.761,-0.192 1.524,5.336 3.048,10.672 4.382,16.008 6.098,25.535 8.004,52.024 5.527,78.131 -5.717,60.98 -31.824,112.622 -72.414,157.785 -14.673,16.579 -31.443,31.062 -49.737,43.448 -1.905,1.525 -4.383,2.097 -6.86,1.715 -73.557,-10.481 -136.442,-42.304 -189.419,-93.947 -0.384,-0.307 -0.8,-0.646 -1.221,-0.99 5.435,7.531 11.182,14.641 17.419,21.571 31.824,36.398 69.174,65.553 113.385,85.753 3.811,1.715 7.622,3.239 11.243,4.764 3.62,1.525 7.432,3.049 11.243,4.573 -6.67,6.099 -50.88,18.676 -74.129,21.153 -51.832,5.717 -104.237,-3.811 -150.925,-27.251 0,0.763 0,1.144 0.191,1.334 29.346,36.207 64.6,64.601 107.858,82.323 35.254,14.483 71.842,21.915 109.764,18.104 64.219,-6.479 120.054,-31.634 165.407,-78.321 2.288,-2.478 5.336,-4.002 8.766,-4.383 12.196,-2.478 24.012,-5.908 35.636,-10.1 0.762,-0.381 1.715,-0.572 2.477,-0.191 -18.866,29.156 -42.305,54.692 -69.555,76.035 -27.06,21.533 -57.55,38.684 -90.136,50.689 4.002,0.953 8.194,1.525 12.386,1.525 60.409,4.192 117.959,-7.242 171.316,-36.398 38.303,-20.771 71.461,-47.831 97.568,-83.085 16.959,-23.249 28.965,-49.165 37.921,-76.416 8.004,-24.201 12.768,-49.355 14.102,-74.89 0,-1.525 0.572,-3.049 1.524,-4.383 20.962,-33.92 34.873,-71.842 40.781,-111.479 3.811,-26.297 4.002,-52.786 0.572,-79.083 -2.478,-20.2 -7.241,-40.209 -14.292,-59.265 -0.382,-1.525 -1.144,-2.668 -2.097,-3.812 3.239,33.73 2.668,67.65 -1.524,101.379 C 24.773,-57.74 15.436,-24.963 1.525,5.908 0,4.002 0.382,1.906 0,0 m -529.59,85.225 h -0.191 v 0.191 l 0.095,-0.096 0.669,0.669 -0.669,-0.669 z M 128.63,-28.012 c 41.542,214.192 -98.33,421.714 -312.523,463.257 -18.484,3.62 -37.159,5.907 -55.835,6.67 -0.761,0 -1.905,-0.191 -2.667,0.571 h -33.92 c -4.192,-1.334 -8.385,-0.762 -12.577,-1.143 -142.731,-10.672 -268.312,-97.759 -328.72,-227.341 -16.769,-35.635 -27.822,-73.557 -33.158,-112.622 -27.822,-200.853 100.808,-390.081 297.849,-437.912 40.018,-9.909 81.37,-13.34 122.531,-10.101 177.986,12.959 325.1,143.494 359.02,318.621" />
        </g>
        <g transform="translate(312.8965,287.709)" id="g24">
          <path id="path26" style="fill:#54eab8;fill-opacity:1;fill-rule:nonzero;stroke:none" d="m 0,0 c -11.815,10.862 -22.867,22.486 -33.539,34.492 -9.528,11.053 -18.675,22.296 -27.441,34.111 -14.102,18.866 -26.679,39.065 -37.731,60.027 -6.86,13.148 -13.339,26.488 -19.057,40.208 -8.193,19.629 -15.054,39.638 -20.58,60.027 -6.289,23.44 -10.862,47.45 -13.53,71.652 -1.143,10.862 -2.287,21.915 -2.477,32.777 -0.572,20.39 -0.191,40.78 1.334,61.17 0.19,2.477 0.19,5.145 0.571,7.813 0.953,7.432 2.096,15.055 3.049,22.677 0.953,8.194 2.478,16.388 4.193,24.392 2.096,10.29 4.573,20.581 7.241,30.68 4.383,16.198 9.719,32.396 15.817,48.213 7.05,18.103 15.245,35.635 24.392,52.785 6.86,12.768 14.292,25.155 22.105,37.16 8.194,12.387 16.96,24.392 26.298,36.016 9.337,11.625 19.056,22.677 29.156,33.349 10.29,10.862 21.343,21.343 32.776,31.061 7.623,6.67 15.436,12.959 23.44,19.057 4.954,3.621 9.909,7.432 14.863,11.243 h -360.353 c -2.287,0 -3.049,-0.191 -3.43,-2.477 V -38.875 c 0,-2.667 0.762,-2.857 3.049,-2.857 H 50.689 c 0.191,0.571 -0.19,0.952 -0.571,1.334 C 32.396,-28.203 15.626,-14.673 0,0" />
        </g>
        <g transform="translate(1276.9512,1036.6191)" id="g28">
          <path id="path30" style="fill:#54eab8;fill-opacity:1;fill-rule:nonzero;stroke:none" d="m 0,0 c -119.863,0 -239.918,0 -359.973,0.381 0.382,-0.762 0.763,-1.144 1.334,-1.715 7.051,-4.764 13.721,-10.1 20.391,-15.245 13.339,-10.671 26.298,-21.915 38.493,-33.73 6.289,-5.716 12.196,-12.196 17.913,-18.484 2.096,-2.287 4.383,-4.574 6.289,-6.86 9.337,-11.243 18.866,-22.487 27.441,-34.302 11.243,-15.435 21.723,-31.252 31.061,-47.831 6.67,-11.434 12.577,-23.058 18.104,-35.063 6.289,-13.721 11.814,-27.632 16.96,-41.734 6.289,-18.103 11.624,-36.587 15.817,-55.263 2.096,-10.099 4.001,-20.389 5.717,-30.489 1.524,-9.147 2.476,-18.485 3.43,-27.823 1.334,-11.814 1.905,-23.82 2.287,-35.634 0.19,-10.101 0.19,-20.2 -0.382,-30.3 -0.571,-9.719 -1.144,-19.247 -1.905,-28.775 -0.763,-8.003 -1.715,-16.007 -2.859,-23.82 -2.097,-13.53 -4.573,-26.87 -7.813,-40.209 -4.574,-19.437 -10.481,-38.494 -17.532,-57.168 -8.194,-22.106 -18.103,-43.639 -29.537,-64.22 -8.765,-16.007 -18.484,-31.443 -29.156,-46.307 -12.577,-17.721 -26.298,-34.682 -41.161,-50.499 -11.624,-12.577 -23.82,-24.201 -36.778,-35.254 -9.911,-8.385 -20.01,-16.769 -30.681,-24.391 -2.478,-1.907 -5.717,-3.05 -7.241,-6.099 119.863,0 239.918,0 359.781,-0.19 2.287,0 3.049,0.381 3.049,2.858 V -2.859 C 3.049,-0.381 2.287,0 0,0" />
        </g>
        <g transform="translate(370.1426,679.4531)" id="g32">
          <path id="path34" style="fill:none;stroke:#fefefe;stroke-width:0.75;stroke-linecap:round;stroke-linejoin:round;stroke-miterlimit:4;stroke-dasharray:none;stroke-opacity:1" d="M 0,0 0.668,0.668" />
        </g>
        <g transform="translate(370.0474,679.3574)" id="g36">
          <path id="path38" style="fill:#fefefe;fill-opacity:1;fill-rule:nonzero;stroke:none" d="M 0,0 H 0.191 L 0.095,0.096 0,0.191 Z" />
        </g>
      </g>
    </g>
  </g>
</svg>