<?xml version="1.0" encoding="utf-8"?>
<!-- Generator: Adobe Illustrator 17.0.0, SVG Export Plug-In . SVG Version: 6.00 Build 0)  -->
<!DOCTYPE svg PUBLIC "-//W3C//DTD SVG 1.1//EN" "http://www.w3.org/Graphics/SVG/1.1/DTD/svg11.dtd">
<svg version="1.1" id="Layer_25_copy_4" xmlns="http://www.w3.org/2000/svg" xmlns:xlink="http://www.w3.org/1999/xlink" x="0px"
	 y="0px" width="976px" height="1510.53px" viewBox="0 0 976 1510.53" enable-background="new 0 0 976 1510.53"
	 xml:space="preserve">
<g id="XMLID_6_">
	<g>
		<polygon fill="#355097" points="934.92,228.61 959.4,255.79 935.67,339.72 728.43,460.14 732.91,454.87 723.59,414.34 721.41,365 
			734.93,394.63 743.27,360.16 762.41,330.55 766.41,356.77 779.81,326.2 781.72,284.04 849.81,284.51 854.96,271.09 863.51,266.55 
			882.41,256.51 902.34,245.92 923.14,234.87 923.15,234.87 		"/>
		<polygon fill="#102866" points="935.67,339.72 882.13,394.93 851.87,453.33 843.42,431.75 824.95,547.57 631.06,633.84 
			663.42,582.61 702.92,534.65 640.42,534.11 683.69,522.81 729.41,499 695.41,499 728.43,460.14 		"/>
		<polygon fill="#ABC4E5" points="899.41,215 923.14,234.87 902.34,245.92 		"/>
		<polygon fill="#355097" points="887.81,652.56 890.93,773.63 862.92,739.24 631.06,633.84 824.95,547.57 		"/>
		<polygon fill="#355097" points="860.06,87.1 882.41,110 877.77,139.69 854.82,97.81 		"/>
		<path fill="#102866" d="M882.41,1182l-44-52l-43-79l53.12-181.27l2.25,0.21l-7.36,79.29C846.42,961.26,882.41,1182,882.41,1182z"
			/>
		<polygon fill="#ABC4E5" points="882.41,256.51 863.51,266.55 843.91,242 863.16,249.25 		"/>
		<polygon fill="#102866" points="877.77,139.69 877.77,139.7 867.06,208.15 863.16,249.25 843.91,242 863.51,266.55 854.96,271.09 
			849.81,284.51 781.72,284.04 778.92,252.99 854.82,97.81 		"/>
		<polygon fill="#355097" points="862.92,739.24 850.78,869.94 848.53,869.73 758.31,961 758.31,889.33 754.22,886.41 
			755.42,884.73 631.06,633.84 		"/>
		<polygon fill="#102866" points="840.69,46.3 860.06,87.1 823.65,74.19 785.39,75.33 766.57,31.6 813.06,15.16 830.36,23.69 		"/>
		<polygon fill="#355097" points="860.06,87.1 854.82,97.81 778.92,252.99 781.72,284.04 779.81,326.2 766.41,356.77 762.41,330.55 
			743.27,360.16 734.93,394.63 721.41,365 723.59,414.34 732.91,454.87 728.43,460.14 695.41,499 729.41,499 683.69,522.81 
			640.42,534.11 702.92,534.65 663.42,582.61 631.06,633.84 589.69,650 615.62,616 552.97,618.6 484.43,576.71 455.41,586 
			463.92,539.61 433.41,553 433.41,494.21 491.08,518.27 480.76,545.23 595.08,550.67 601.82,522.67 698.41,392.47 672.41,413.33 
			667.08,354 741.03,294.84 747.08,290 761.75,238.68 831.06,103.06 823.65,74.19 		"/>
		<path fill="#102866" d="M854.41,1248c1,3-20.71,95-20.71,95l-63.29,60l-11.06,58.86L735.41,1349v-56h-17l9-63l30-140l38-39l43,79
			C838.41,1130,853.41,1245,854.41,1248z"/>
		<polygon fill="#355097" points="848.53,869.73 795.41,1051 757.41,1090 758.31,961 		"/>
		<polygon fill="#7495C3" points="823.65,74.19 831.06,103.06 761.75,238.68 747.08,290 741.03,294.84 589.69,225.68 785.39,75.33 
					"/>
		<polygon fill="#ABC4E5" points="766.57,31.6 785.39,75.33 589.69,225.68 591.5,223.5 638.37,166.97 		"/>
		<path fill="#355097" d="M769.67,1510.53l-231.42-252.32c0,0,25.9-112.21,26.16-115.21l15-74l64,165l125.94,275.03L769.67,1510.53z
			"/>
		<polygon fill="#7495C3" points="769.35,1509.03 643.41,1234 659.41,1120 683.41,1269 727.41,1230 718.41,1293 735.41,1293 
			735.41,1349 759.35,1461.86 759.35,1461.87 		"/>
		<polygon fill="#355097" points="758.31,889.33 758.31,961 757.41,1090 736.41,961 651.41,843.98 564.41,750.94 754.22,886.41 		
			"/>
		<polygon fill="#102866" points="736.41,961 757.41,1090 727.41,1230 683.41,1269 659.41,1120 570.41,814 651.41,843.98 		"/>
		<polygon fill="#102866" points="631.06,633.84 755.42,884.73 754.22,886.41 564.41,750.94 556.43,745.24 371.85,629.74 
			340.49,584.29 352.45,545.42 363.23,510.38 433.41,494.21 433.41,553 463.92,539.61 455.41,586 484.43,576.71 552.97,618.6 
			615.62,616 589.69,650 		"/>
		<polygon fill="#7495C3" points="589.06,255.14 588.6,255.07 589.69,225.68 741.03,294.84 667.08,354 583.08,295.33 		"/>
		<polygon fill="#7495C3" points="698.41,392.47 601.82,522.67 583.08,295.33 667.08,354 672.41,413.33 		"/>
		<polygon fill="#7495C3" points="570.41,814 659.41,1120 643.41,1234 579.41,1069 576.54,877.93 		"/>
		<polygon fill="#102866" points="564.41,750.94 651.41,843.98 570.41,814 576.54,877.93 489.32,768.89 489.32,800 371.85,629.74 
			556.43,745.24 		"/>
		<polygon fill="#ABC4E5" points="638.37,166.97 591.5,223.5 589.69,222 512.41,238.68 481.92,216.29 439.94,225.68 527.6,179.76 
			635.5,170 		"/>
		<polygon fill="#7495C3" points="583.08,295.33 601.82,522.67 595.08,550.67 480.76,545.23 491.08,518.27 		"/>
		<polygon fill="#355097" points="479.32,340.89 471.26,344.63 512.41,299.33 512.41,238.68 589.69,222 591.5,223.5 589.69,225.68 
			543.11,254.03 527.6,281.92 588.6,255.07 589.06,255.14 583.08,295.33 534.88,315.12 		"/>
		<polygon fill="#102866" points="589.69,225.68 588.6,255.07 527.6,281.92 543.11,254.03 		"/>
		<polygon fill="#7495C3" points="583.08,295.33 491.08,518.27 433.41,494.21 479.32,340.89 534.88,315.12 		"/>
		<path fill="#7495C3" d="M576.54,877.93l2.87,191.07l-15,74c0,0-58-158-60-159c0,0-12.09-176.5-15.09-184v-31.11L576.54,877.93z"/>
		<path fill="#355097" d="M564.41,1143c-0.26,3-26.16,115.21-26.16,115.21L504.41,1326c0,0-51-228-51-231l-4.42-78.98l0.42-0.02
			c0,0,53-33,55-32S564.41,1143,564.41,1143z"/>
		<polygon fill="#ABC4E5" points="512.41,238.68 512.41,299.33 471.26,344.63 380.41,394.93 393.18,305.97 481.92,216.29 		"/>
		<path fill="#102866" d="M504.41,1326l-174.9-285.61l22.9-39.39l18.99,79.42l15.01-27.42l40,110c0,0,27-71,27-68
			S504.41,1326,504.41,1326z"/>
		<polygon fill="#102866" points="329.51,1040.39 504.41,1326 141.56,918.85 311.68,976 332.41,976 327.87,1037.72 327.41,1044 		
			"/>
		<path fill="#7495C3" d="M504.41,984c-2-1-55,32-55,32l13-84l-59.79-65.33l-34.37-23.72L377.1,803l-20.6,5l13.1-42h-26.19
			l26.19-52.37L343.41,706l-37.31-99.76l26.69,3.09l7.7-25.04l31.36,45.45L489.32,800C492.32,807.5,504.41,984,504.41,984z"/>
		<polygon fill="#ABC4E5" points="479.32,340.89 433.41,494.21 363.23,510.38 314.12,518.27 314.12,504.67 295.2,514 277.24,517.27 
			303.75,482.19 277.24,482.19 350.74,425.49 317.27,435.47 380.41,394.93 471.26,344.63 		"/>
		<path fill="#355097" d="M448.99,1016.02l4.42,78.98c0-3-27,68-27,68l-40-110l-15.01,27.42L352.41,1001l15.65-158.07l0.19,0.02
			l34.37,23.72L462.41,932l-13,84L448.99,1016.02z"/>
		<path fill="#7495C3" d="M393.18,305.97l-12.77,88.96l-63.14,40.54l33.47-9.98l-73.5,56.7h26.51l-26.51,35.08L295.2,514l18.92-9.33
			v13.6l49.11-7.89l-10.78,35.04l-31.37,29.25v-19.64c0,0-39.33,30.3-42,32.3c-2.67,2,9.2-56.18,9.2-56.18l-38.53,23.52l10.66-32
			l-49.06,30.38L155.96,546l86.66-45.39l-20.17-15.33h31.85l115.63-121.65l-28.73-5.13L393.18,305.97z"/>
		<path fill="#355097" d="M368.06,842.93L352.41,1001l-22.9,39.39l-1.64-2.67l4.54-61.72h-20.73V843.98L281.41,864l8.48-91.11
			L256.41,786c0,0,27.63-177.38,27.24-182.36v-0.01l22.45,2.61L343.41,706l26.19,7.63L343.41,766h26.19l-13.1,42l20.6-5l-8.85,39.95
			L368.06,842.93z"/>
		<path fill="#102866" d="M352.45,545.42l-11.96,38.87l-7.7,25.04l-26.69-3.09l-22.45-2.61l-9.98-1.15l-60.77-7.05l-59.44-48.12
			l2.5-1.31l55.39,7.05l49.06-30.38l-10.66,32l38.53-23.52c0,0-11.87,58.18-9.2,56.18c2.67-2,42-32.3,42-32.3v19.64L352.45,545.42z"
			/>
		<polygon fill="#102866" points="311.68,843.98 311.68,976 141.56,918.85 254.2,788 256.41,786 289.89,772.89 281.41,864 		"/>
		<path fill="#7495C3" d="M283.65,603.64c0.39,4.98-27.24,182.36-27.24,182.36l-2.21,2L141.56,918.85L9.46,946.23L235.43,745.1
			l-39.11-3.02l41.26-42.87L181.7,656.1l91.97-53.62l9.98,1.15V603.64z"/>
	</g>
	<g>
	</g>
</g>
</svg>
